SplineFontDB: 3.0
FontName: TAM-ThiruValluvarBold
Copyright: Copyright (c) 2009-2015, NLCI (http://www.nlci.in/fonts/)
ItalicAngle: 0
UnderlinePosition: -492
UnderlineWidth: 40
Ascent: 1638
Descent: 410
InvalidEm: 0
LayerCount: 2
Layer: 0 0 "Back" 1
Layer: 1 0 "Fore" 0
XUID: [1021 406 472118173 9773527]
OS2Version: 0
OS2_WeightWidthSlopeOnly: 0
OS2_UseTypoMetrics: 1
CreationTime: 1410967618
ModificationTime: 1441180593
PfmFamily: 81
TTFWeight: 400
TTFWidth: 5
LineGap: 0
VLineGap: 0
Panose: 2 0 0 0 0 0 0 0 0 0
OS2TypoAscent: 2650
OS2TypoAOffset: 0
OS2TypoDescent: -1029
OS2TypoDOffset: 0
OS2TypoLinegap: 0
OS2WinAscent: 2650
OS2WinAOffset: 0
OS2WinDescent: 1029
OS2WinDOffset: 0
HheadAscent: 2650
HheadAOffset: 0
HheadDescent: -1029
HheadDOffset: 0
OS2SubXSize: 1434
OS2SubYSize: 1331
OS2SubXOff: 0
OS2SubYOff: 293
OS2SupXSize: 1434
OS2SupYSize: 1331
OS2SupXOff: 0
OS2SupYOff: 928
OS2StrikeYSize: 102
OS2StrikeYPos: 530
OS2CapHeight: 0
OS2XHeight: 0
OS2Vendor: 'Alts'
OS2CodePages: 00000000.00000000
OS2UnicodeRanges: 00100001.00000000.00000000.00000000
Lookup: 4 0 0 "akhnAkhandinTamillookup9" { "akhnAkhandinTamillookup9 subtable"  } ['akhn' ('taml' <'TAM ' 'TAO ' 'dflt' > ) ]
Lookup: 4 0 0 "akhnligs" { "akhnligs subtable"  } ['akhn' ('taml' <'TAM ' 'TAO ' 'dflt' > ) ]
Lookup: 4 0 0 "sub_ligature_pststaml_0" { "sub_ligature_pststaml_0 subtable"  } ['psts' ('taml' <'TAM ' 'TAO ' 'dflt' > ) ]
Lookup: 4 0 0 "sub_ligature_pststaml_2" { "sub_ligature_pststaml_2 subtable"  } ['psts' ('taml' <'TAM ' 'TAO ' 'dflt' > ) ]
Lookup: 4 0 0 "sub_ligature_pststaml_4" { "sub_ligature_pststaml_4 subtable"  } ['psts' ('taml' <'TAM ' 'TAO ' 'dflt' > ) ]
Lookup: 4 0 0 "sub_ligature_pststaml_6" { "sub_ligature_pststaml_6 subtable"  } ['psts' ('taml' <'TAM ' 'TAO ' 'dflt' > ) ]
Lookup: 4 0 0 "sub_ligature_pststaml_8" { "sub_ligature_pststaml_8 subtable"  } ['psts' ('taml' <'TAM ' 'TAO ' 'dflt' > ) ]

StartChar: .notdef
Encoding: 0 -1 0
Width: 1024
Flags: W
HStem: -25 114<153 871> 1447 114<153 871>
VStem: 39 114<89 1447> 871 114<89 1447>
LayerCount: 2
Back
Fore
SplineSet
39 -25 m 1
 39 1561 l 1
 985 1561 l 1
 985 -25 l 1
 39 -25 l 1
871 89 m 1
 871 1447 l 1
 153 1447 l 1
 153 89 l 1
 871 89 l 1
EndSplineSet
Validated: 1
EndChar

StartChar: exclam
Encoding: 4 33 4
Width: 692
GlyphClass: 1
Flags: HW
LayerCount: 2
Back
Fore
SplineSet
498 102 m 0
 498 23.0156 431.753 -50 346 -50 c 0
 269.917 -50 196 11.5176 196 102 c 0
 196 192 266.312 252 346 252 c 0
 425.95 252 498 192 498 102 c 0
496 1274 m 0
 496 1267.72 494.595 1247.44 492.926 1224.08 c 2
 420.01 346 l 1
 274.063 346 l 1
 220.1 971.773 l 2
 215.09 1025.88 211.093 1072.81 208.073 1116.09 c 2
 199.075 1224.07 l 2
 197.39 1247.67 196 1267.45 196 1274 c 0
 196 1380.5 252.984 1432 346 1432 c 0
 439.078 1432 496 1380.45 496 1274 c 0
EndSplineSet
Validated: 1
EndChar

StartChar: quotedbl
Encoding: 5 34 5
Width: 682
GlyphClass: 1
Flags: HW
LayerCount: 2
Back
Fore
SplineSet
176 1487 m 0
 244.68 1487 287 1445.42 287 1362 c 2
 287 1360.28 l 1
 214.787 837 l 1
 138.342 837 l 1
 63 1360.21 l 1
 63 1362 l 2
 63 1462 127.675 1487 176 1487 c 0
506 1487 m 0
 554.325 1487 619 1462 619 1362 c 2
 619 1360.21 l 1
 543.658 837 l 1
 467.213 837 l 1
 395 1360.28 l 1
 395 1362 l 2
 395 1436.89 433.243 1487 506 1487 c 0
EndSplineSet
Validated: 1
EndChar

StartChar: numbersign
Encoding: 6 35 6
Width: 1522
GlyphClass: 1
Flags: HW
LayerCount: 2
Back
Fore
SplineSet
681.826 837 m 1
 598.062 594 l 1
 842.174 594 l 1
 925.938 837 l 1
 681.826 837 l 1
1011.5 594 m 1
 1332 594 l 1
 1332 442 l 1
 957.997 442 l 1
 783.854 -78.4053 l 1
 634.367 -30.042 l 1
 790.405 442 l 1
 545.931 442 l 1
 369.581 -78.9404 l 1
 222.305 -27.3936 l 1
 383.016 442 l 1
 102 442 l 1
 102 594 l 1
 433.116 594 l 1
 516.052 837 l 1
 194 837 l 1
 194 992 l 1
 568.087 992 l 1
 734.205 1481.24 l 1
 886.126 1433.03 l 1
 731.274 992 l 1
 977.017 992 l 1
 1141.02 1480.96 l 1
 1298.14 1433.39 l 1
 1145.13 992 l 1
 1422 992 l 1
 1422 837 l 1
 1091.12 837 l 1
 1011.5 594 l 1
EndSplineSet
Validated: 1
EndChar

StartChar: dollar
Encoding: 7 36 7
Width: 1253
GlyphClass: 1
Flags: HW
LayerCount: 2
Back
Fore
SplineSet
709.973 558.688 m 1
 709.973 139.543 l 1
 777.461 155.191 898 203.939 898 350 c 0
 898 469.588 821.758 520.761 709.973 558.688 c 1
552.978 850.215 m 1
 552.978 1233.37 l 1
 494.087 1215.68 394.877 1167.23 394.877 1032 c 0
 394.877 931.712 469.199 883.464 552.978 850.215 c 1
152 981.592 m 0
 152 1270.99 445.647 1349.38 552.978 1368.28 c 1
 552.978 1522 l 1
 712.184 1522 l 1
 712.184 1380.21 l 1
 818.152 1377.89 934.26 1362.46 1057.67 1334.96 c 2
 1077 1330.65 l 1
 1077 979 l 1
 923.219 979 l 1
 891.398 1209.16 l 1
 866.422 1229.26 812.896 1246.07 712.184 1248.66 c 1
 712.184 808.056 l 1
 793.401 785.917 l 1
 978.749 731.071 1134 631.986 1134 401.14 c 0
 1134 166.925 900.394 20.7617 709.973 -1.95215 c 1
 709.973 -211 l 1
 549.661 -211 l 1
 549.661 -4.59668 l 1
 336.213 6.51367 214.542 25.3965 137.239 46.502 c 2
 119 51.4814 l 1
 119 432.436 l 1
 267.285 432.436 l 1
 306.467 196.734 l 1
 337.755 167.855 434.378 143.674 549.661 140.283 c 1
 549.661 599.786 l 1
 336.673 646.425 152 757.313 152 981.592 c 0
EndSplineSet
EndChar

StartChar: percent
Encoding: 8 37 8
Width: 1861
GlyphClass: 1
Flags: HW
LayerCount: 2
Back
Fore
SplineSet
269 964.5 m 0
 269 811.317 296.4 650 409.965 650 c 0
 491.871 650 546.476 734.851 546.476 964.5 c 0
 546.476 1194.15 491.871 1279 409.965 1279 c 0
 296.4 1279 269 1116.65 269 964.5 c 0
1311.36 409.481 m 0
 1311.36 261.527 1339.7 93 1453.08 93 c 0
 1534.87 93 1588 178.64 1588 409.481 c 0
 1588 639.404 1534.86 725 1453.08 725 c 0
 1339.7 725 1311.36 559.707 1311.36 409.481 c 0
66 964.5 m 0
 66 1145.5 134 1407 409.965 1407 c 0
 691.741 1407 762.185 1147.66 762.185 964.5 c 0
 762.185 781.336 691.741 522 409.965 522 c 0
 134 522 66 781.559 66 964.5 c 0
560.833 -25 m 1
 364.718 -25 l 1
 1304.31 1399 l 1
 1498.27 1399 l 1
 560.833 -25 l 1
1098.77 409.5 m 0
 1098.77 590.504 1169.63 852 1453.08 852 c 0
 1710.22 852 1796 621.667 1796 409.5 c 0
 1796 229.795 1728.2 -33 1453.08 -33 c 0
 1169.63 -33 1098.77 229.529 1098.77 409.5 c 0
EndSplineSet
EndChar

StartChar: ampersand
Encoding: 9 38 9
Width: 1432
GlyphClass: 1
Flags: HW
LayerCount: 2
Back
Fore
SplineSet
957 1092 m 0
 957 888.335 805.808 788.188 672.743 724.749 c 1
 972.719 401.229 l 1
 1003.97 446.279 1055.06 530.273 1065.04 603.08 c 0
 1065.04 603.098 1057.27 615.22 1051.04 616.318 c 2
 919 635.346 l 1
 919 768 l 1
 1389 768 l 1
 1389 635.463 l 1
 1236.47 612.636 l 1
 1207.73 517.887 1165.05 428.462 1109.79 344.112 c 1
 1073.51 290.854 l 1
 1219.93 122.386 l 1
 1416 111.671 l 1
 1416 -25 l 1
 989 -25 l 1
 989 39.4609 l 1
 918.848 118 l 1
 854.055 68.043 l 1
 747.286 -10.7373 630.222 -50 506 -50 c 0
 263.027 -50 55 124.379 55 381 c 0
 55 525.963 122.453 659.942 310.95 749.243 c 1
 290.153 770.493 l 2
 165.825 897.531 157 1020.31 157 1055 c 0
 157 1277.75 334.173 1426 571 1426 c 0
 784.334 1426 957 1292.4 957 1092 c 0
551 1275 m 0
 454.428 1275 392 1203.69 392 1108 c 0
 392 1035.2 430.644 959.993 513.316 880.031 c 2
 561.538 833.391 l 1
 691.427 902.586 718 990.963 718 1079 c 0
 718 1183.8 668.151 1275 551 1275 c 0
312 428 m 0
 312 247.063 438.336 134 584 134 c 0
 633.422 134 704.841 135.669 819.601 225.653 c 1
 430.586 648.776 l 1
 351.345 588.924 312 516.366 312 428 c 0
EndSplineSet
Validated: 1
EndChar

StartChar: quotesingle
Encoding: 10 39 10
Width: 350
GlyphClass: 1
Flags: HW
LayerCount: 2
Back
Fore
SplineSet
174 1487 m 0
 222.325 1487 287 1462 287 1362 c 2
 287 1360.28 l 1
 214.787 837 l 1
 138.342 837 l 1
 63 1360.21 l 1
 63 1362 l 2
 63 1436.89 101.243 1487 174 1487 c 0
EndSplineSet
Validated: 1
EndChar

StartChar: parenleft
Encoding: 11 40 11
Width: 770
GlyphClass: 1
Flags: HW
LayerCount: 2
Back
Fore
SplineSet
336 590 m 128
 336 225.262 397.857 -126.051 706.025 -176.326 c 2
 727 -179.748 l 1
 727 -318.947 l 1
 699.226 -315.846 l 2
 281.806 -269.235 96 91.6113 96 590 c 0
 96 1086.68 280.244 1444.43 699.13 1492.83 c 2
 727 1496.06 l 1
 727 1356.75 l 1
 706.025 1353.33 l 2
 397.679 1303.02 336 955.363 336 590 c 128
EndSplineSet
Validated: 1
EndChar

StartChar: parenright
Encoding: 12 41 12
Width: 770
GlyphClass: 1
Flags: HW
LayerCount: 2
Back
Fore
SplineSet
65.8506 1353.35 m 2
 45 1356.86 l 1
 45 1495.95 l 1
 72.7744 1492.85 l 2
 489.996 1446.26 676 1089.62 676 590 c 0
 676 94.2754 491.839 -267.53 72.8633 -315.836 c 2
 45 -319.048 l 1
 45 -179.839 l 1
 65.8701 -176.344 l 2
 255.851 -144.524 434 -1.02637 434 590 c 0
 434 1178.12 254.885 1321.53 65.8506 1353.35 c 2
EndSplineSet
Validated: 1
EndChar

StartChar: asterisk
Encoding: 13 42 13
Width: 1024
GlyphClass: 1
Flags: HW
LayerCount: 2
Back
Fore
SplineSet
425.322 723.527 m 1
 238.034 653.624 l 1
 243.313 854.249 l 1
 440.588 1012.45 l 1
 188.387 1026.67 l 1
 66.4248 1180.45 l 1
 258.015 1237.27 l 1
 468.145 1099.4 l 1
 400.867 1345.45 l 1
 511.757 1510.46 l 1
 625.239 1345.51 l 1
 556.056 1099.53 l 1
 765.985 1237.27 l 1
 957.576 1180.45 l 1
 835.617 1026.68 l 1
 583.533 1012.35 l 1
 780.687 854.249 l 1
 785.966 653.624 l 1
 598.678 723.527 l 1
 512 950.365 l 1
 425.322 723.527 l 1
524.28 1060 m 1
 499.554 1060 l 1
 490.601 1027.54 l 1
 512 1011.28 l 1
 535.041 1028.79 l 1
 524.28 1060 l 1
EndSplineSet
Validated: 1
EndChar

StartChar: plus
Encoding: 14 43 14
Width: 2048
GlyphClass: 1
Flags: HW
LayerCount: 2
Back
Fore
SplineSet
1112 526 m 1
 1112 -25 l 1
 936 -25 l 1
 936 526 l 1
 385 526 l 1
 385 703 l 1
 936 703 l 1
 936 1254 l 1
 1112 1254 l 1
 1112 703 l 1
 1663 703 l 1
 1663 526 l 1
 1112 526 l 1
EndSplineSet
Validated: 1
EndChar

StartChar: comma
Encoding: 15 44 15
Width: 573
GlyphClass: 1
Flags: HW
LayerCount: 2
Back
Fore
SplineSet
252 275 m 0
 408 275 447 129.846 447 20 c 0
 447 -215.75 250.365 -357.989 68.04 -372.917 c 2
 41 -375.131 l 1
 41 -253.932 l 1
 60.5938 -249.592 l 2
 187.456 -221.493 261.258 -162.337 265.854 -11 c 1
 151.645 -11 l 1
 144.322 -3.67773 l 2
 132.606 8.03809 100 41.3936 100 109 c 0
 100 191.214 161.06 275 252 275 c 0
EndSplineSet
Validated: 1
EndChar

StartChar: hyphen
Encoding: 16 45 16
Width: 655
GlyphClass: 1
Flags: HW
LayerCount: 2
Back
Fore
SplineSet
65 391 m 1
 65 594 l 1
 590 594 l 1
 590 391 l 1
 65 391 l 1
EndSplineSet
Validated: 1
EndChar

StartChar: period
Encoding: 17 46 17
Width: 573
GlyphClass: 1
Flags: HW
LayerCount: 2
Back
Fore
SplineSet
262 275 m 0
 343.361 275 426 211.221 426 113 c 0
 426 11.6533 341.072 -50 262 -50 c 0
 178.044 -50 100 15.2002 100 113 c 0
 100 208.442 178.117 275 262 275 c 0
EndSplineSet
Validated: 1
EndChar

StartChar: slash
Encoding: 18 47 18
Width: 1004
GlyphClass: 1
Flags: HW
LayerCount: 2
Back
Fore
SplineSet
145.677 -215 m 1
 -42.5615 -215 l 1
 857.315 1399 l 1
 1046.59 1399 l 1
 145.677 -215 l 1
EndSplineSet
Validated: 1
EndChar

StartChar: zero
Encoding: 19 48 19
Width: 1253
GlyphClass: 1
Flags: HW
LayerCount: 2
Back
Fore
SplineSet
348.757 686.063 m 0
 348.757 188.599 522.986 120 624.863 120 c 0
 846.621 120 902.06 421.625 902.06 686.063 c 0
 902.06 879.944 871.57 1255 624.863 1255 c 0
 403.978 1255 348.757 949.607 348.757 686.063 c 0
624.863 -33 m 0
 347.585 -33 82 165.298 82 686.033 c 0
 82 902.771 127.597 1077.12 221.445 1208.14 c 0
 316.407 1340.7 454.096 1407 624.863 1407 c 0
 796.629 1407 936.462 1340.88 1031.55 1208.14 c 0
 1125.4 1077.12 1171 902.771 1171 686.033 c 0
 1171 243.009 962.6 -33 624.863 -33 c 0
EndSplineSet
EndChar

StartChar: one
Encoding: 20 49 20
Width: 1253
GlyphClass: 1
Flags: HW
LayerCount: 2
Back
Fore
SplineSet
460.562 149.65 m 2
 470.294 149.65 484.291 155.047 484.291 168.9 c 2
 484.291 1186.98 l 1
 156 1134.07 l 1
 156 1268.88 l 1
 653.678 1407 l 1
 776 1407 l 1
 776 168.897 l 2
 776 155.044 788.12 149.647 796.521 149.647 c 2
 1013 140.98 l 1
 1013 0 l 1
 221 0 l 1
 221 141.053 l 1
 460.562 149.65 l 2
EndSplineSet
EndChar

StartChar: two
Encoding: 21 50 21
Width: 1253
GlyphClass: 1
Flags: HW
LayerCount: 2
Back
Fore
SplineSet
125 1077 m 0
 125 1258.47 337.062 1407 624.856 1407 c 0
 926.681 1407 1132 1247.69 1132 1000.17 c 0
 1132 804.609 962.537 630.277 817.532 511.246 c 2
 740.571 450.622 l 1
 681.955 406.093 618.98 361.604 553.004 316.37 c 2
 416.536 222 l 1
 974.596 222 l 1
 1010.6 398 l 1
 1157 398 l 1
 1157 0 l 1
 96 0 l 1
 96 167.073 l 1
 396.909 402.129 l 2
 653.012 588.145 856.164 771.025 856.164 972.957 c 0
 856.164 1134.42 741.09 1246 562.369 1246 c 0
 504.369 1246 449.733 1225.61 417.435 1209.96 c 2
 403.413 1203.07 l 1
 403.413 979.737 l 1
 394.166 972.275 l 2
 356.509 941.889 313.893 931 273 931 c 0
 184.2 931 125 991.25 125 1077 c 0
EndSplineSet
EndChar

StartChar: three
Encoding: 22 51 22
Width: 1253
GlyphClass: 1
Flags: HW
LayerCount: 2
Back
Fore
SplineSet
1104 1040.72 m 0
 1104 878.873 986.898 784.021 861.525 731.823 c 1
 1021 694.803 1157 586.746 1157 400.933 c 0
 1157 140.573 898.839 -33 564.562 -33 c 0
 240.765 -33 96 127.2 96 234 c 0
 96 298.259 141.853 369 242 369 c 0
 258.846 369 300.002 368.713 326.23 350.555 c 2
 333.063 345.824 l 1
 398.634 165.084 l 1
 459.108 134.835 517.159 120 571.139 120 c 0
 762.826 120 894.533 253.041 894.533 402.012 c 0
 894.533 584.031 702.076 624 585.391 624 c 0
 541.786 624 497.931 621.089 451.525 616.167 c 2
 420.953 612.925 l 1
 420.953 793 l 1
 448.359 793 l 2
 454.169 793 483.22 791 506.461 791 c 0
 639.326 791 838.624 838 838.624 1026 c 0
 838.624 1168.03 711.421 1244 571.139 1244 c 0
 503.778 1244 436.851 1223.04 396.836 1202.51 c 1
 396.836 1013.03 l 1
 348.465 994.234 l 2
 341.541 991.342 318.908 981 275 981 c 0
 181.282 981 131 1040.31 131 1112.29 c 0
 131 1274.64 344.249 1407 634.722 1407 c 0
 916.525 1407 1104 1260.49 1104 1040.72 c 0
EndSplineSet
EndChar

StartChar: four
Encoding: 23 52 23
Width: 1253
GlyphClass: 1
Flags: HW
LayerCount: 2
Back
Fore
SplineSet
739.452 572 m 1
 739.452 1071.62 l 1
 319.839 572 l 1
 739.452 572 l 1
1171 383 m 1
 997 383 l 1
 997 -33 l 1
 739.452 -33 l 1
 739.452 383 l 1
 82 383 l 1
 82 557.625 l 1
 806.924 1407 l 1
 997 1407 l 1
 997 572 l 1
 1171 572 l 1
 1171 383 l 1
EndSplineSet
EndChar

StartChar: five
Encoding: 24 53 24
Width: 1253
GlyphClass: 1
Flags: HW
LayerCount: 2
Back
Fore
SplineSet
371.973 845.742 m 1
 443.802 866.755 540.838 889 647.951 889 c 0
 875.926 889 1159 799.447 1159 455.748 c 0
 1159 243.346 1021.46 -33 522.008 -33 c 0
 281.066 -33 92 111.028 92 234 c 0
 92 326.542 159.998 374 246 374 c 0
 267.635 374 288.537 370.506 308.905 363.717 c 2
 319.722 360.111 l 1
 405.899 166.674 l 1
 431.187 147.281 504.651 118 555.958 118 c 0
 789.774 118 898.74 295.321 898.74 407.724 c 0
 898.74 600.977 761.965 708 542.816 708 c 0
 458.063 708 340.814 685.819 207.063 640.336 c 2
 174 629.07 l 1
 174 1374 l 1
 1065 1374 l 1
 1065 1150 l 1
 371.973 1150 l 1
 371.973 845.742 l 1
EndSplineSet
EndChar

StartChar: six
Encoding: 25 54 25
Width: 1253
GlyphClass: 1
Flags: HW
LayerCount: 2
Back
Fore
SplineSet
910.791 453.56 m 0
 910.791 576.841 856.441 737 622.68 737 c 0
 517.633 737 412.429 690.595 347.527 649.178 c 1
 345.247 624.256 344.392 592.736 344.392 554.445 c 0
 344.392 360.085 394.539 124 622.68 124 c 0
 853.169 124 910.791 315.196 910.791 453.56 c 0
622.68 -33 m 0
 397.43 -33 82 62.4492 82 591.322 c 0
 82 1180.55 519.645 1407 976 1407 c 2
 1001 1407 l 1
 1001 1229.28 l 1
 903.492 1232.01 l 2
 898.941 1232.12 894.19 1232.18 889.62 1232.18 c 0
 641.589 1232.18 431.024 1079 366.972 825.158 c 1
 461.34 884.754 571.74 920 701.256 920 c 0
 990.6 920 1171 733.225 1171 480.528 c 0
 1171 175.506 939.876 -33 622.68 -33 c 0
EndSplineSet
EndChar

StartChar: seven
Encoding: 26 55 26
Width: 1253
GlyphClass: 1
Flags: HW
LayerCount: 2
Back
Fore
SplineSet
1167 1233.58 m 1
 455.495 50.6211 l 1
 455.495 -33 l 1
 160.783 -33 l 1
 883.59 1150 l 1
 268.955 1150 l 1
 235.955 964 l 1
 86 964 l 1
 86 1374 l 1
 1167 1374 l 1
 1167 1233.58 l 1
EndSplineSet
EndChar

StartChar: eight
Encoding: 27 56 27
Width: 1253
GlyphClass: 1
Flags: HW
LayerCount: 2
Back
Fore
SplineSet
322 410 m 0
 322 246.199 424.094 128 624.954 128 c 0
 832.216 128 910.97 265.486 910.97 365 c 0
 910.97 498.034 782.463 555.543 673.431 597.915 c 1
 497.982 663.321 l 1
 423.936 624.887 322 557.773 322 410 c 0
624.954 1253 m 0
 484.198 1253 395.705 1152.35 395.705 1044 c 0
 395.705 932.706 488.297 849.227 730.597 765.262 c 1
 823.32 832.445 870.578 913.432 870.578 1011 c 0
 870.578 1153.39 772.329 1253 624.954 1253 c 0
1114 1042.65 m 0
 1114 875.164 981.601 773.476 895.266 725.021 c 1
 1022.13 672.194 1169 573.767 1169 383.537 c 0
 1169 133.615 938.503 -33 624.954 -33 c 0
 292.369 -33 82 132.068 82 379.671 c 0
 82 509.562 152.758 628.304 340.524 711.709 c 1
 252.234 758.295 137 851.318 137 1010.76 c 0
 137 1247.08 314.503 1407 624.954 1407 c 0
 899.936 1407 1114 1261.26 1114 1042.65 c 0
EndSplineSet
EndChar

StartChar: nine
Encoding: 28 57 28
Width: 1253
GlyphClass: 1
Flags: HW
LayerCount: 2
Back
Fore
SplineSet
628.137 1250 m 0
 397.648 1250 340.027 1061.97 340.027 920.44 c 0
 340.027 797.159 394.377 637 628.137 637 c 0
 733.185 637 838.388 683.405 903.29 724.822 c 1
 905.571 749.744 906.426 781.264 906.426 819.555 c 0
 906.426 1013.92 856.279 1250 628.137 1250 c 0
82 891.522 m 0
 82 1184.24 294.858 1407 628.137 1407 c 0
 854.26 1407 1171 1311.86 1171 782.678 c 0
 1171 296.307 853.544 -33 275 -33 c 2
 250 -33 l 1
 250 144.735 l 1
 346.265 141.989 l 2
 351.451 141.854 356.629 141.788 361.767 141.788 c 0
 624.34 141.788 824.595 307.362 885.845 547.875 c 1
 783.535 482.429 670.952 454 551.744 454 c 0
 259.669 454 82 638.968 82 891.522 c 0
EndSplineSet
EndChar

StartChar: colon
Encoding: 29 58 29
Width: 573
GlyphClass: 1
Flags: HW
LayerCount: 2
Back
Fore
SplineSet
262 275 m 0
 343.361 275 426 211.221 426 113 c 0
 426 11.6533 341.072 -50 262 -50 c 0
 178.044 -50 100 15.2002 100 113 c 0
 100 208.442 178.117 275 262 275 c 0
262 1037 m 0
 343.643 1037 426 972.128 426 874 c 128
 426 774.619 342.208 712 262 712 c 0
 178.123 712 100 778.573 100 874 c 0
 100 971.8 178.044 1037 262 1037 c 0
EndSplineSet
Validated: 1
EndChar

StartChar: semicolon
Encoding: 30 59 30
Width: 573
GlyphClass: 1
Flags: HW
LayerCount: 2
Back
Fore
SplineSet
264 1037 m 0
 346.756 1037 424 971.8 424 874 c 0
 424 775.12 342.385 712 262 712 c 0
 178.123 712 100 778.573 100 874 c 0
 100 961.576 171.02 1037 264 1037 c 0
252 275 m 0
 408 275 447 129.846 447 20 c 0
 447 -215.75 250.365 -357.989 68.04 -372.917 c 2
 41 -375.131 l 1
 41 -253.931 l 1
 60.5938 -249.592 l 2
 187.457 -221.495 261.258 -162.338 265.854 -11 c 1
 151.645 -11 l 1
 144.322 -3.67773 l 2
 132.606 8.03809 100 41.3936 100 109 c 0
 100 191.214 161.06 275 252 275 c 0
EndSplineSet
Validated: 33
EndChar

StartChar: less
Encoding: 31 60 31
Width: 2048
GlyphClass: 1
Flags: HW
LayerCount: 2
Back
Fore
SplineSet
385 533.812 m 1
 385 695.188 l 1
 1663 1185.36 l 1
 1663 1004.62 l 1
 612.794 614.029 l 1
 1663 224.39 l 1
 1663 43.6357 l 1
 385 533.812 l 1
EndSplineSet
Validated: 1
EndChar

StartChar: equal
Encoding: 32 61 32
Width: 2048
GlyphClass: 1
Flags: HW
LayerCount: 2
Back
Fore
SplineSet
385 340 m 1
 385 517 l 1
 1663 517 l 1
 1663 340 l 1
 385 340 l 1
385 712 m 1
 385 889 l 1
 1663 889 l 1
 1663 712 l 1
 385 712 l 1
EndSplineSet
Validated: 1
EndChar

StartChar: greater
Encoding: 33 62 33
Width: 2048
GlyphClass: 1
Flags: HW
LayerCount: 2
Back
Fore
SplineSet
385 43.6357 m 1
 385 224.39 l 1
 1435.21 614.029 l 1
 385 1004.62 l 1
 385 1185.36 l 1
 1663 695.188 l 1
 1663 533.812 l 1
 385 43.6357 l 1
EndSplineSet
Validated: 1
EndChar

StartChar: question
Encoding: 34 63 34
Width: 995
GlyphClass: 1
Flags: HW
LayerCount: 2
Back
Fore
SplineSet
428 1432 m 0
 691.25 1432 879 1275.2 879 1040 c 0
 879 857.645 765.634 706.633 543.317 603.229 c 129
 490 579.705 l 1
 490 344 l 1
 325 344 l 1
 325 684.235 l 1
 342.364 689.806 l 2
 441.353 721.557 622 823.483 622 1024 c 0
 622 1153.89 571.217 1275.36 370.79 1281.74 c 1
 287.96 1075.65 l 1
 274.11 1073.34 l 2
 267.73 1072.28 262.47 1072.39 257.531 1072.01 c 0
 255.359 1071.85 251.516 1071 243 1071 c 2
 236 1071 l 2
 165.09 1071 77 1099.77 77 1206 c 0
 77 1341.6 223.05 1432 428 1432 c 0
410 252 m 0
 502.88 252 562 175.353 562 100 c 0
 562 13.626 490.906 -50 410 -50 c 0
 320 -50 260 23.9248 260 102 c 0
 260 192 330.312 252 410 252 c 0
EndSplineSet
Validated: 1
EndChar

StartChar: at
Encoding: 35 64 35
Width: 1917
GlyphClass: 1
Flags: HW
LayerCount: 2
Back
Fore
SplineSet
1075 897 m 0
 892 897 770 717.222 770 469 c 0
 770 321.007 824 273 905 273 c 0
 978.776 273 1043.29 333.506 1090.63 391.838 c 1
 1171.62 810.486 l 2
 1171.75 811.006 1172 812.642 1172 813.523 c 0
 1172 839.918 1130.59 897 1075 897 c 0
1069 1440 m 0
 1479.2 1440 1794 1206.65 1794 764 c 0
 1794 328.597 1487.11 90 1270 90 c 0
 1149 90 1102.2 151.36 1089.14 230.143 c 1
 1018.37 165.168 917.964 92 813 92 c 0
 644.4 92 532 235.6 532 451 c 0
 532 781.066 799.453 1033 1067 1033 c 0
 1129.34 1033 1194.04 1015.82 1260.98 983.497 c 1
 1292.86 1024 l 1
 1451.24 1024 l 1
 1434.3 958.121 l 1
 1304.29 385.079 l 2
 1298.75 363.879 1296 343.502 1296 326 c 0
 1296 272.107 1316.64 256 1356 256 c 0
 1460.02 256 1644 446.763 1644 762 c 0
 1644 1124.02 1378.83 1300 1096 1300 c 0
 622.382 1300 322 947.606 322 526 c 0
 322 129.775 570.25 -186 1014 -186 c 0
 1101.54 -186 1274.59 -185.082 1541.89 -37.127 c 2
 1566.86 -23.3057 l 1
 1614.37 -144.522 l 1
 1594.84 -155.021 l 2
 1255.86 -337.23 1056.89 -338 965 -338 c 0
 519.199 -338 125 -28.9785 125 489 c 0
 125 1083.58 569.093 1440 1069 1440 c 0
EndSplineSet
Validated: 33
EndChar

StartChar: A
Encoding: 36 65 36
Width: 1480
GlyphClass: 1
Flags: HW
LayerCount: 2
Back
Fore
SplineSet
1470 0 m 1
 933 0 l 1
 933 129.279 l 1
 1071.29 140.381 l 1
 1072.09 141.718 1072.89 143.611 1072.89 144.798 c 2
 938.691 483 l 1
 450.43 483 l 1
 320.908 149.632 l 1
 321.349 146.809 325.396 141.72 328.535 140.394 c 1
 472 129.325 l 1
 472 0 l 1
 10 0 l 1
 10 128.72 l 1
 135.326 154.146 l 1
 630.794 1407 l 1
 842.497 1407 l 1
 1333.65 170.031 l 1
 1338.59 154.519 1337.53 152.311 1357.67 148.286 c 2
 1470 129.428 l 1
 1470 0 l 1
876.859 631 m 1
 691.976 1071.37 l 1
 508.931 631 l 1
 876.859 631 l 1
EndSplineSet
EndChar

StartChar: B
Encoding: 37 66 37
Width: 1339
GlyphClass: 1
Flags: HW
LayerCount: 2
Back
Fore
SplineSet
1259 415.866 m 0
 1259 83.1738 939.098 0 667.855 0 c 2
 66 0 l 1
 66 88 l 1
 197.093 97.6943 l 2
 215.729 99.1641 217 114.076 217 117.736 c 2
 217 1208.03 l 2
 217 1220.13 209.326 1226.53 196.526 1228.13 c 2
 66 1286 l 1
 66 1374 l 1
 639 1374 l 2
 1038.69 1374 1175 1236.99 1175 1031.46 c 0
 1175 899.363 1105.3 801.895 961.843 741.027 c 1
 1113 713.321 1259 625.882 1259 415.866 c 0
631 634 m 0
 587.645 634 517.806 626.18 472 623.487 c 1
 472 153.978 l 1
 511.515 151.315 545.359 150 574 150 c 0
 828.001 150 981.799 200.206 981.799 401.033 c 0
 981.799 540.813 899.794 634 631 634 c 0
564 1230 m 0
 530.463 1230 496.926 1227.08 472 1225.43 c 1
 472 780.004 l 1
 475 780 l 1
 476.557 780 l 1
 478.101 779.807 l 2
 484.06 779.062 490.991 779 499 779 c 2
 521 779 l 2
 810.058 779 887.154 874.127 887.154 1016.82 c 0
 887.154 1144.73 803.269 1230 564 1230 c 0
EndSplineSet
EndChar

StartChar: C
Encoding: 38 67 38
Width: 1384
GlyphClass: 1
Flags: HW
LayerCount: 2
Back
Fore
SplineSet
869.088 1242 m 0
 668.603 1242 367.875 1131.57 367.875 689.828 c 0
 367.875 450.329 472.34 130 898.066 130 c 0
 962.305 130 1018.18 141.799 1064.06 162.909 c 1
 1076.58 167.683 1085.68 175.367 1088.68 186.759 c 2
 1139.72 429 l 1
 1304 429 l 1
 1304 56.873 l 1
 1290.6 49.8545 l 2
 1240.85 23.7949 1032.14 -33 856.209 -33 c 0
 347.349 -33 80 315.098 80 689.899 c 0
 80 1101.64 372.73 1407 858.356 1407 c 0
 953.784 1407 1060.26 1391.5 1170.96 1360.01 c 1
 1304 1320.68 l 1
 1304 956 l 1
 1134.71 956 l 1
 1101.29 1163.19 l 2
 1100.47 1166.77 1100.16 1167.85 1098.65 1170.53 c 0
 1080.91 1202.01 973.466 1242 869.088 1242 c 0
EndSplineSet
EndChar

StartChar: D
Encoding: 39 68 39
Width: 1525
GlyphClass: 1
Flags: HW
LayerCount: 2
Back
Fore
SplineSet
1160.59 661 m 0
 1160.59 966.332 1049.65 1226 607 1226 c 2
 476 1226 l 1
 476 98.3027 l 1
 616.741 99.999 l 1
 946.087 102.596 1160.59 251.812 1160.59 661 c 0
1446 689.895 m 0
 1446 392.888 1293.45 0 663.859 0 c 2
 66 0 l 1
 66 88 l 1
 197.118 97.6963 l 2
 219.59 99.4229 219 116.771 219 117.736 c 2
 219 1208.03 l 2
 219 1209.32 219.106 1226.38 197.118 1228.07 c 2
 66 1286 l 1
 66 1374 l 1
 619 1374 l 2
 1116.56 1374 1446 1149.47 1446 689.895 c 0
EndSplineSet
EndChar

StartChar: E
Encoding: 40 69 40
Width: 1294
GlyphClass: 1
Flags: HW
LayerCount: 2
Back
Fore
SplineSet
793.959 791 m 2
 800.512 791 806.926 801 806.926 801 c 1
 806.926 802.852 l 1
 833.344 967 l 1
 995 967 l 1
 995 460 l 1
 833.32 460 l 1
 806.926 625.161 l 1
 806.926 627 l 2
 806.926 627.877 797.469 639 793.959 639 c 2
 489.235 639 l 1
 489.235 150 l 1
 1019 150 l 2
 1020.58 150.331 1024.36 155.152 1025.62 157.039 c 0
 1029 162.08 1031.19 167.571 1031.5 168.953 c 2
 1072.14 392 l 1
 1228 392 l 1
 1228 0 l 1
 66 0 l 1
 66 131.402 l 1
 195.101 140.804 l 2
 218.717 142.557 217 159.237 217 160.171 c 2
 217 1213.83 l 2
 217 1215.08 217 1231.57 195.101 1233.2 c 2
 66 1242.6 l 1
 66 1374 l 1
 1161 1374 l 1
 1161 1019 l 1
 992.191 1019 l 1
 955.294 1208.18 l 2
 954.103 1217 946.754 1226 941.999 1226 c 2
 489.235 1226 l 1
 489.235 791 l 1
 793.959 791 l 2
EndSplineSet
EndChar

StartChar: F
Encoding: 41 70 41
Width: 1208
GlyphClass: 1
Flags: HW
LayerCount: 2
Back
Fore
SplineSet
979.561 999 m 1
 947.389 1207.64 l 2
 944.016 1224.51 940.8 1224 937 1224 c 2
 492.163 1224 l 1
 492.163 766 l 1
 806.133 766 l 2
 810.28 766.744 815.52 774.744 817.016 777.342 c 0
 817.688 778.509 819.377 781.19 819.657 782.347 c 2
 843.289 947 l 1
 997 947 l 1
 997 436 l 1
 843.31 436 l 1
 819.658 599.642 l 2
 819.131 601.171 818.46 602.148 817.016 604.658 c 0
 815.52 607.256 809.328 616 806.133 616 c 2
 492.163 616 l 1
 492.163 118.792 l 2
 492.163 108.325 497.136 99.6328 514.142 97.749 c 2
 688.394 88 l 1
 688.394 0 l 1
 68 0 l 1
 68 88 l 1
 199.093 98.1035 l 2
 217.729 99.6348 219 115.176 219 118.99 c 2
 219 1255.25 l 2
 219 1267.86 211.451 1274.53 198.651 1276.19 c 2
 51 1286 l 1
 51 1374 l 1
 1147 1374 l 1
 1147 999 l 1
 979.561 999 l 1
EndSplineSet
EndChar

StartChar: G
Encoding: 42 71 42
Width: 1523
GlyphClass: 1
Flags: HW
LayerCount: 2
Back
Fore
SplineSet
365.189 699.439 m 0
 365.189 387.95 525.826 132 894.585 132 c 0
 956.231 132 1033.79 150.31 1048.9 153.9 c 2
 1058.7 156.085 l 1
 1058.7 523.673 l 2
 1058.7 533.488 1057.11 538.93 1037.31 540.755 c 2
 868.115 551.758 l 1
 868.115 689 l 1
 1472 689 l 1
 1472 552.288 l 1
 1345.48 540.622 l 2
 1326.79 538.768 1325 533.215 1325 523.24 c 2
 1325 52.9883 l 1
 1308.76 47.1611 l 2
 1155.33 -6.48145 999.665 -33 849.057 -33 c 0
 354.947 -33 80 302.388 80 689.899 c 0
 80 1151.7 412.744 1407 876.585 1407 c 0
 975.845 1407 1087.07 1391.59 1209.46 1361.17 c 2
 1323 1331.22 l 1
 1323 956 l 1
 1149.84 956 l 1
 1110.98 1160.65 l 2
 1108.26 1175.45 1098.64 1184.69 1083.27 1191 c 2
 1045.41 1205.9 l 2
 983.366 1229.91 924.415 1242 868.115 1242 c 0
 637.374 1242 365.189 1115.2 365.189 699.439 c 0
EndSplineSet
EndChar

StartChar: H
Encoding: 43 72 43
Width: 1622
GlyphClass: 1
Flags: HW
LayerCount: 2
Back
Fore
SplineSet
1556 0 m 1
 988 0 l 1
 988 131.261 l 1
 1128.19 140.488 l 2
 1140.09 141.37 1148 148.422 1148 159.806 c 2
 1148 645 l 1
 474 645 l 1
 474 159.806 l 2
 474 150.179 478.686 142.178 494.285 140.445 c 2
 634 131.261 l 1
 634 0 l 1
 66 0 l 1
 66 136.204 l 1
 195.101 145.948 l 2
 218.717 147.766 217 165.056 217 166.023 c 2
 217 1258.18 l 2
 217 1265.41 213.347 1274.88 195.147 1276.25 c 2
 66 1286 l 1
 66 1374 l 1
 634 1374 l 1
 634 1286 l 1
 493.812 1275.89 l 2
 477.311 1274.55 474 1264.46 474 1256.84 c 2
 474 797 l 1
 1148 797 l 1
 1148 1256.84 l 2
 1148 1266.96 1139.66 1274.84 1128.06 1275.9 c 2
 988 1286 l 1
 988 1374 l 1
 1556 1374 l 1
 1556 1286 l 1
 1426.88 1276.25 l 2
 1406.72 1274.73 1405 1261.16 1405 1258.18 c 2
 1405 166.023 l 2
 1405 164.73 1405 147.634 1426.9 145.948 c 2
 1556 136.204 l 1
 1556 0 l 1
EndSplineSet
EndChar

StartChar: I
Encoding: 44 73 44
Width: 726
GlyphClass: 1
Flags: W
HStem: 0 88<68 213.198 510.142 658> 1286 88<68 213.224 509.733 658>
VStem: 233 257<98.0069 1276.03>
LayerCount: 2
Back
Fore
SplineSet
68 0 m 1
 68 88 l 1
 213.198 97.9248 l 2
 231.834 99.459 233 115.021 233 118.843 c 2
 233 1257.24 l 2
 233 1272.72 220.212 1275.51 213.224 1276.07 c 2
 68 1286 l 1
 68 1374 l 1
 658 1374 l 1
 658 1286 l 1
 509.733 1276.11 l 2
 489.975 1274.56 490 1259.19 490 1257.28 c 2
 490 118.807 l 2
 490 114.744 491.599 99.9434 510.142 97.8535 c 2
 658 88 l 1
 658 0 l 1
 68 0 l 1
EndSplineSet
EndChar

StartChar: J
Encoding: 45 74 45
Width: 1093
GlyphClass: 1
Flags: HW
LayerCount: 2
Back
Fore
SplineSet
359.284 -33 m 0
 247.926 -33 101.51 9.29395 64.8193 27.6396 c 2
 51 34.5488 l 1
 51 425 l 1
 219.901 425 l 1
 268.56 154.666 l 2
 273.96 127.666 306.607 122 342.608 122 c 0
 548.186 122 601.643 286.268 601.643 528.476 c 2
 601.643 1256.54 l 2
 601.643 1268.64 593.278 1275.03 579.048 1276.63 c 2
 410.424 1286 l 1
 410.424 1374 l 1
 1040 1374 l 1
 1040 1286 l 1
 897.797 1276.45 l 2
 885.891 1275.54 878 1268.22 878 1256.41 c 2
 878 542.292 l 2
 878 235.293 781.744 -33 359.284 -33 c 0
EndSplineSet
EndChar

StartChar: K
Encoding: 46 75 46
Width: 1407
GlyphClass: 1
Flags: HW
LayerCount: 2
Back
Fore
SplineSet
998 0 m 1
 998 76.8662 l 1
 578.946 585 l 1
 474 585 l 1
 474 159.196 l 2
 474 157.957 474 141.562 495.812 139.953 c 2
 636 130.761 l 1
 636 0 l 1
 66 0 l 1
 66 131.434 l 1
 197.093 140.803 l 2
 215.729 142.223 217 156.634 217 160.171 c 2
 217 1213.83 l 2
 217 1225.52 209.326 1231.71 196.526 1233.25 c 2
 66 1242.57 l 1
 66 1374 l 1
 636 1374 l 1
 636 1242.68 l 1
 495.812 1233.45 l 2
 473.34 1231.78 474 1215.05 474 1214.12 c 2
 474 721 l 1
 511.154 721 l 1
 995.412 1232.04 l 1
 873 1243.27 l 1
 873 1374 l 1
 1357 1374 l 1
 1357 1287.22 l 1
 1334.08 1286 l 2
 1310.2 1284.01 1288.04 1281.94 1270.27 1279.14 c 2
 1222.97 1274.09 l 1
 1206.33 1271.89 l 1
 788.484 793.427 l 1
 1247.8 147.115 l 1
 1407 136.359 l 1
 1407 0 l 1
 998 0 l 1
997.15 1253.73 m 1
 996.372 1257.31 996.623 1255.57 996.983 1253.53 c 1
 997.15 1253.73 l 1
EndSplineSet
EndChar

StartChar: L
Encoding: 47 76 47
Width: 1187
GlyphClass: 1
Flags: HW
LayerCount: 2
Back
Fore
SplineSet
55 0 m 1
 55 88 l 1
 197.178 97.9443 l 2
 215.813 99.4766 217 115.012 217 118.827 c 2
 217 1255.17 l 2
 217 1267.78 209.411 1274.45 196.611 1276.12 c 2
 55 1286 l 1
 55 1374 l 1
 628 1374 l 1
 628 1286 l 1
 495.874 1276.32 l 2
 473.402 1274.59 474 1257.25 474 1256.28 c 2
 474 150 l 1
 929 150 l 2
 932.929 150.489 934.85 151.002 938.209 152.936 c 0
 940.613 154.319 941.843 155.377 942.419 155.849 c 0
 945.815 158.628 948.928 161.844 949.325 163.966 c 2
 985.13 431 l 1
 1151 431 l 1
 1151 0 l 1
 55 0 l 1
EndSplineSet
EndChar

StartChar: M
Encoding: 48 77 48
Width: 1944
GlyphClass: 1
Flags: HW
LayerCount: 2
Back
Fore
SplineSet
1881 0 m 1
 1314 0 l 1
 1314 136.232 l 1
 1446.13 145.93 l 2
 1469.79 147.75 1468 165.032 1468 166 c 2
 1418 1155.69 l 1
 989.393 0 l 1
 852.49 0 l 1
 390 1134.12 l 1
 390 166 l 2
 390 164.707 390 147.611 411.812 145.934 c 2
 552 136.349 l 1
 552 0 l 1
 59 0 l 1
 59 131.562 l 1
 199.163 140.808 l 2
 217.799 142.228 219 156.634 219 160.171 c 2
 219 1213.83 l 2
 219 1225.52 211.396 1231.7 198.597 1233.25 c 2
 59 1242.44 l 1
 59 1374 l 1
 568 1374 l 1
 568 1298.46 l 1
 964.07 360.062 l 1
 1310 1292.49 l 1
 1310 1374 l 1
 1831 1374 l 1
 1831 1242.52 l 1
 1696.86 1233.19 l 2
 1673.16 1231.43 1675 1214.76 1675 1213.83 c 2
 1725 160.171 l 2
 1725 158.924 1725 142.429 1746.86 140.807 c 2
 1881 131.479 l 1
 1881 0 l 1
EndSplineSet
EndChar

StartChar: N
Encoding: 49 78 49
Width: 1577
GlyphClass: 1
Flags: HW
LayerCount: 2
Back
Fore
SplineSet
1379.86 1276.39 m 2
 1361.22 1274.92 1360 1260.01 1360 1256.35 c 2
 1360 0 l 1
 1161.59 0 l 1
 388 1040.84 l 1
 388 117.651 l 2
 388 107.651 392.686 99.3398 408.285 97.54 c 2
 548 88 l 1
 548 0 l 1
 55 0 l 1
 55 88 l 1
 195.188 97.9746 l 2
 217.66 99.7725 217 117.849 217 118.855 c 2
 217 1255.2 l 2
 217 1256.54 217.205 1274.32 195.217 1276.08 c 2
 51 1286 l 1
 51 1374 l 1
 507 1374 l 1
 507 1329.81 l 1
 1189 399.389 l 1
 1189 1256.35 l 2
 1189 1260.25 1187.35 1274.45 1168.8 1276.45 c 2
 1029 1286 l 1
 1029 1374 l 1
 1517 1374 l 1
 1517 1286 l 1
 1379.86 1276.39 l 2
EndSplineSet
EndChar

StartChar: O
Encoding: 50 79 50
Width: 1597
GlyphClass: 1
Flags: W
HStem: -33 163<606.342 980.693> 1240 167<606.338 981.551>
VStem: 80 287.191<419.675 957.522> 1227.7 289.3<424.511 951.434>
LayerCount: 2
Back
Fore
SplineSet
367.191 687.871 m 0
 367.191 381.874 506.531 130 794.805 130 c 0
 1113.46 130 1227.7 418.667 1227.7 684.043 c 0
 1227.7 945.435 1115.99 1240 800.084 1240 c 0
 480.848 1240 367.191 956.192 367.191 687.871 c 0
80 687.967 m 0
 80 1098.46 358.956 1407 797.972 1407 c 0
 1236.81 1407 1517 1085.24 1517 686.033 c 0
 1517 289.718 1237.95 -33 800.084 -33 c 0
 360.997 -33 80 272.448 80 687.967 c 0
EndSplineSet
EndChar

StartChar: P
Encoding: 51 80 51
Width: 1286
GlyphClass: 1
Flags: HW
LayerCount: 2
Back
Fore
SplineSet
1206 951.379 m 0
 1206 639.794 946.182 495.907 610.605 495.907 c 0
 607.194 495.907 603.627 495.95 600.206 495.953 c 0
 568.979 495.98 538.479 498.077 505.551 499.853 c 2
 476 501.445 l 1
 476 160.171 l 2
 476 150.522 480.572 142.51 496.172 140.772 c 2
 666.782 131.768 l 1
 666.782 0 l 1
 66 0 l 1
 66 131.434 l 1
 197.118 140.805 l 2
 220.77 142.561 219 159.237 219 160.171 c 2
 219 1213.83 l 2
 219 1215.08 219 1231.57 197.23 1233.19 c 2
 51 1242.36 l 1
 51 1374 l 1
 566 1374 l 2
 965.209 1374 1206 1289.48 1206 951.379 c 0
476 1222.26 m 1
 476 624.652 l 1
 499.006 621.422 529.835 616.355 566.188 615.999 c 2
 566.188 615.999 572.464 615.945 575.509 615.945 c 0
 809.856 615.945 940.496 720.619 940.496 933 c 0
 940.496 1165.8 769.907 1224 555 1224 c 0
 529.774 1224 516.851 1223.35 490.038 1223.04 c 0
 485.805 1223 482.616 1222.45 476 1222.26 c 1
EndSplineSet
EndChar

StartChar: Q
Encoding: 52 81 52
Width: 1613
GlyphClass: 1
Flags: HW
LayerCount: 2
Back
Fore
SplineSet
80 686.195 m 0
 80 1091.7 362.708 1407 803.836 1407 c 0
 1248.57 1407 1534 1101 1534 686.282 c 0
 1534 302.146 1303.42 43.999 951.693 -18.3604 c 1
 961.651 -127.494 1025.95 -220 1222.59 -220 c 0
 1304.53 -220 1368.51 -212.968 1415.95 -199.016 c 2
 1448 -189.588 l 1
 1448 -336 l 1
 1425.29 -335.87 l 1
 1413.54 -337.597 1281.68 -371 1109.73 -371 c 0
 793.002 -371 674.684 -227.477 667.107 -23.4482 c 1
 298.157 34.4834 80 314.219 80 686.195 c 0
805.945 1242 m 0
 485.894 1242 371.369 961.963 371.369 689.828 c 0
 371.369 349.156 545.2 130 805.945 130 c 0
 1124.08 130 1239.47 422.296 1239.47 686 c 0
 1239.47 953.191 1125.37 1242 805.945 1242 c 0
EndSplineSet
EndChar

StartChar: R
Encoding: 53 82 53
Width: 1429
GlyphClass: 1
Flags: HW
LayerCount: 2
Back
Fore
SplineSet
1202 1000.1 m 0
 1202 808.142 1063.3 717.451 902.168 669.877 c 1
 1004.79 631.894 1092.37 559.805 1130.71 401.636 c 1
 1152.64 317.222 l 2
 1187.15 182.844 1257.07 136 1404 136 c 2
 1429 136 l 1
 1429 -2.68262 l 1
 1407.54 -5.74902 l 2
 1387.9 -8.55371 1334.42 -33 1269 -33 c 0
 1096.33 -33 970.117 27.6514 900.621 243.097 c 2
 867.664 345.965 l 2
 809.833 526.21 708.477 587 541 587 c 0
 508.306 587 488.521 585.654 474 584.557 c 1
 474 159.219 l 2
 474 149.627 478.757 141.65 494.356 139.925 c 2
 625 130.652 l 1
 625 0 l 1
 66 0 l 1
 66 131.402 l 1
 195.101 140.804 l 2
 218.717 142.557 217 159.237 217 160.171 c 2
 217 1213.83 l 2
 217 1215.08 217 1231.57 195.101 1233.2 c 2
 66 1242.6 l 1
 66 1374 l 1
 625 1374 l 2
 938.594 1374 1202 1299.22 1202 1000.1 c 0
474 737 m 1
 491 737 l 2
 515.717 737 533.978 736 551 736 c 0
 834.55 736 903.988 836.834 903.988 988.086 c 0
 903.988 1129.63 819.43 1224 543 1224 c 2
 474 1224 l 1
 474 737 l 1
EndSplineSet
EndChar

StartChar: S
Encoding: 54 83 54
Width: 1167
GlyphClass: 1
Flags: HW
LayerCount: 2
Back
Fore
SplineSet
632.78 1246 m 0
 457.057 1246 367 1152.57 367 1038.13 c 0
 367 916.767 489.1 861.855 661.04 801.493 c 1
 785.365 756.154 l 1
 1034.11 655.219 1087 518.682 1087 393.333 c 0
 1087 214.045 959.765 -33 484.386 -33 c 0
 316.74 -33 194.398 -2.75586 94.1611 45.4717 c 2
 80 52.2852 l 1
 80 456 l 1
 256.259 456 l 1
 285.764 202.395 l 1
 292.237 161.396 420.177 132 520.931 132 c 0
 712.028 132 826.578 216.116 826.578 340.812 c 0
 826.578 419.065 752.54 495.674 575.701 566.301 c 1
 443.755 620.254 l 2
 289.043 685.811 102 768.854 102 997.075 c 0
 102 1243.03 310.852 1407 629.458 1407 c 0
 734.563 1407 843.54 1390.45 946.472 1358.86 c 1
 1036 1330.26 l 1
 1036 968 l 1
 872.644 968 l 1
 838.102 1184.55 l 2
 837.152 1187.5 836.882 1187.88 835.184 1190.27 c 0
 817.77 1214.78 734.068 1246 632.78 1246 c 0
EndSplineSet
EndChar

StartChar: T
Encoding: 55 84 55
Width: 1327
GlyphClass: 1
Flags: HW
LayerCount: 2
Back
Fore
SplineSet
1126.49 997 m 1
 1094.43 1209.48 l 2
 1091.43 1223.28 1088.6 1224 1085 1224 c 2
 800.93 1224 l 1
 800.93 117.442 l 2
 800.93 107.455 805.844 99.1602 822.528 97.3633 c 2
 987.022 88 l 1
 987.022 0 l 1
 339.978 0 l 1
 339.978 88 l 1
 504.952 97.4053 l 2
 524.882 98.875 526.07 113.781 526.07 117.442 c 2
 526.07 1224 l 1
 240 1224 l 2
 235.826 1224 231.188 1221.97 229.772 1210.65 c 2
 198.618 997 l 1
 33 997 l 1
 33 1374 l 1
 1294 1374 l 1
 1294 997 l 1
 1126.49 997 l 1
EndSplineSet
EndChar

StartChar: U
Encoding: 56 85 56
Width: 1558
GlyphClass: 1
Flags: HW
LayerCount: 2
Back
Fore
SplineSet
474 532.448 m 2
 474 272.324 551.08 154 819.846 154 c 0
 1040 154 1170 234.126 1170 532.448 c 2
 1170 1256.39 l 2
 1170 1257.68 1170.18 1274.74 1148.19 1276.43 c 2
 1008 1286 l 1
 1008 1374 l 1
 1503 1374 l 1
 1503 1286 l 1
 1360.82 1276.45 l 2
 1342.19 1274.98 1341 1260.07 1341 1256.41 c 2
 1341 479.369 l 2
 1341 216.124 1230.8 -33 756.358 -33 c 0
 388.691 -33 215 145.265 215 479.313 c 2
 215 1256.27 l 2
 215 1268.37 207.334 1274.78 194.534 1276.38 c 2
 63 1286 l 1
 63 1374 l 1
 634 1374 l 1
 634 1286 l 1
 493.837 1276.43 l 2
 475.201 1274.96 474 1260.05 474 1256.39 c 2
 474 532.448 l 2
EndSplineSet
EndChar

StartChar: V
Encoding: 57 86 57
Width: 1464
GlyphClass: 1
Flags: HW
LayerCount: 2
Back
Fore
SplineSet
1443 1244.82 m 1
 1318.76 1222.45 l 1
 841.74 -33 l 1
 625.085 -33 l 1
 147.463 1224.05 l 1
 20 1244.4 l 1
 20 1374 l 1
 560 1374 l 1
 560 1237.98 l 1
 421.227 1226.51 l 1
 420.559 1225.13 419.697 1223.6 419.524 1222.46 c 2
 781.587 277.776 l 1
 1128.18 1217.04 l 2
 1128.18 1218.69 1123.36 1225.74 1120.59 1226.26 c 2
 986 1238.11 l 1
 986 1374 l 1
 1443 1374 l 1
 1443 1244.82 l 1
EndSplineSet
EndChar

StartChar: W
Encoding: 58 87 58
Width: 2057
GlyphClass: 1
Flags: HW
LayerCount: 2
Back
Fore
SplineSet
2036 1244.93 m 1
 1906.52 1220.92 l 1
 1592.68 -33 l 1
 1381.41 -33 l 1
 1031.25 1039.53 l 1
 681.294 -33 l 1
 478.63 -33 l 1
 143.704 1221.03 l 1
 20 1245.12 l 1
 20 1374 l 1
 539 1374 l 1
 539 1238.34 l 1
 395.858 1224.27 l 1
 395.232 1222.84 395.015 1221.4 395.015 1218.49 c 0
 395.015 1216.73 394.938 1215.81 395.372 1213.5 c 2
 626.84 375.9 l 1
 967.424 1374 l 1
 1162.59 1374 l 1
 1514.56 347.325 l 1
 1726.58 1213.34 l 2
 1726.68 1213.82 1726.74 1214.09 1726.78 1214.23 c 0
 1726.75 1214.29 1726.72 1214.53 1726.72 1215.21 c 0
 1726.72 1221.99 1720.82 1223.92 1718.99 1224.19 c 2
 1568 1238.22 l 1
 1568 1374 l 1
 2036 1374 l 1
 2036 1244.93 l 1
EndSplineSet
EndChar

StartChar: X
Encoding: 59 88 59
Width: 1398
GlyphClass: 1
Flags: HW
LayerCount: 2
Back
Fore
SplineSet
1378 0 m 1
 784.045 0 l 1
 784.045 135.587 l 1
 942.427 149.867 l 2
 943.905 150.213 948.473 151.289 949.335 153.444 c 0
 949.288 153.649 949.088 153.914 948.889 154.387 c 2
 948.889 154.387 951.551 149.867 948.568 155.145 c 2
 654.686 551.6 l 1
 353.335 148.921 l 1
 354.833 148.471 356.704 148.106 358.937 147.925 c 2
 505 136.05 l 1
 505 0 l 1
 20 0 l 1
 20 128.745 l 1
 153.516 154.93 l 1
 549.74 679.217 l 1
 191.831 1219.91 l 1
 47 1244.76 l 1
 47 1374 l 1
 611 1374 l 1
 611 1238.29 l 1
 484.528 1226.13 l 2
 480.613 1225.32 478.518 1224.82 477.363 1224.46 c 1
 730.266 869.088 l 1
 1011.75 1217.29 l 2
 1012.25 1218.3 1013.06 1219.34 1013.26 1220.14 c 0
 1012.96 1220.45 1010.98 1221.85 1007.97 1222.19 c 2
 881 1239.11 l 1
 881 1374 l 1
 1360 1374 l 1
 1360 1244.23 l 1
 1217.08 1223.33 l 1
 846.944 740.169 l 1
 1241.31 154.832 l 1
 1378 128.869 l 1
 1378 0 l 1
EndSplineSet
EndChar

StartChar: Y
Encoding: 60 89 60
Width: 1382
GlyphClass: 1
Flags: HW
LayerCount: 2
Back
Fore
SplineSet
1241.55 1223.86 m 1
 829.172 580.896 l 1
 829.172 160.171 l 2
 829.172 156.412 831.004 142.716 852.744 140.781 c 2
 1013 131.726 l 1
 1013 0 l 1
 360 0 l 1
 360 131.683 l 1
 510.256 140.814 l 2
 532.728 142.482 532 159.237 532 160.171 c 2
 532 551.467 l 1
 147.734 1220.37 l 1
 20 1245.23 l 1
 20 1374 l 1
 556 1374 l 1
 556 1238.31 l 1
 431.04 1226.19 l 2
 428.949 1225.67 426.909 1225.58 424.661 1224.3 c 0
 424.805 1224.04 425.396 1222.9 425.664 1222.46 c 2
 717.941 725.516 l 1
 1038.52 1216.78 l 2
 1038.7 1217.2 1039.26 1218.11 1039.4 1218.82 c 0
 1038.89 1219.7 1035.95 1221.87 1033.18 1222.16 c 2
 896 1238.86 l 1
 896 1374 l 1
 1362 1374 l 1
 1362 1244.8 l 1
 1241.55 1223.86 l 1
EndSplineSet
EndChar

StartChar: Z
Encoding: 61 90 61
Width: 1278
GlyphClass: 1
Flags: HW
LayerCount: 2
Back
Fore
SplineSet
80 0 m 1
 80 117.551 l 1
 864.104 1222 l 1
 334.715 1222 l 2
 331.019 1222 327.153 1220.7 323.442 1206.9 c 1
 290.362 997 l 1
 123 997 l 1
 123 1374 l 1
 1187 1374 l 1
 1187 1252.58 l 1
 401.029 154 l 1
 982 154 l 2
 985.8 154 989.003 153.407 992.376 170.271 c 2
 1030.41 429 l 1
 1198 429 l 1
 1198 0 l 1
 80 0 l 1
EndSplineSet
EndChar

StartChar: bracketleft
Encoding: 62 91 62
Width: 866
GlyphClass: 1
Flags: HW
LayerCount: 2
Back
Fore
SplineSet
254 -295 m 1
 254 1475 l 1
 801 1475 l 1
 801 1333 l 1
 482 1333 l 1
 482 -151 l 1
 801 -151 l 1
 801 -295 l 1
 254 -295 l 1
EndSplineSet
Validated: 1
EndChar

StartChar: backslash
Encoding: 63 92 63
Width: 1001
GlyphClass: 1
Flags: HW
LayerCount: 2
Back
Fore
SplineSet
855.299 -215 m 1
 -42.5146 1399 l 1
 145.701 1399 l 1
 1043.51 -215 l 1
 855.299 -215 l 1
EndSplineSet
Validated: 1
EndChar

StartChar: bracketright
Encoding: 64 93 64
Width: 866
GlyphClass: 1
Flags: HW
LayerCount: 2
Back
Fore
SplineSet
65 -295 m 1
 65 -151 l 1
 387 -151 l 1
 387 1333 l 1
 65 1333 l 1
 65 1475 l 1
 615 1475 l 1
 615 -295 l 1
 65 -295 l 1
EndSplineSet
Validated: 1
EndChar

StartChar: asciicircum
Encoding: 65 94 65
Width: 670
GlyphClass: 1
Flags: HW
LayerCount: 2
Back
Fore
SplineSet
335.919 1296.39 m 1
 133.005 1103 l 1
 -49.7412 1103 l 1
 245.435 1500 l 1
 424.565 1500 l 1
 719.741 1103 l 1
 536.927 1103 l 1
 335.919 1296.39 l 1
EndSplineSet
Validated: 1
EndChar

StartChar: underscore
Encoding: 66 95 66
Width: 686
GlyphClass: 1
Flags: HW
LayerCount: 2
Back
Fore
SplineSet
-25 -330 m 1
 -25 -150 l 1
 711 -150 l 1
 711 -330 l 1
 -25 -330 l 1
EndSplineSet
Validated: 1
EndChar

StartChar: grave
Encoding: 67 96 67
Width: 717
GlyphClass: 1
Flags: HW
LayerCount: 2
Back
Fore
SplineSet
94 1526 m 0
 177.036 1526 206.66 1478.01 220.012 1462.23 c 2
 529.541 1103 l 1
 350.687 1103 l 1
 33.4863 1305.97 l 2
 -19.4297 1340.11 -25 1385.77 -25 1409 c 0
 -25 1458.7 3.78711 1526 94 1526 c 0
EndSplineSet
Validated: 1
EndChar

StartChar: a
Encoding: 68 97 68
Width: 1142
GlyphClass: 1
Flags: HW
LayerCount: 2
Back
Fore
SplineSet
322.628 291 m 0
 322.628 220.648 369.817 146 464.62 146 c 0
 557.491 146 672.635 207.499 714.481 231.6 c 1
 714.481 539.609 l 1
 376.651 457.49 322.628 390.435 322.628 291 c 0
117 745 m 0
 117 905.2 304.075 1012 593.403 1012 c 0
 851.743 1012 966 910.369 966 697.783 c 2
 966 154.528 l 2
 966 146.847 969.052 138.005 986.657 135.441 c 1
 1108 128.53 l 1
 1108 0 l 1
 749.664 0 l 1
 724.326 103.161 l 1
 648.861 54.8057 504.005 -25 365.556 -25 c 0
 216.069 -25 70 65.5615 70 260.937 c 0
 70 413.139 147.451 523.546 714.481 633.199 c 1
 714.481 697.415 l 2
 714.481 831.482 638.349 865 531.763 865 c 0
 483.712 865 439.248 858.544 399.678 846.513 c 1
 399.678 661 l 1
 218 661 l 2
 198.23 661.705 174.885 662.818 153.249 675.841 c 0
 148.878 678.472 128.123 690.25 120.136 719.873 c 0
 117.957 727.953 117 736.364 117 745 c 0
EndSplineSet
EndChar

StartChar: b
Encoding: 69 98 69
Width: 1237
GlyphClass: 1
Flags: HW
LayerCount: 2
Back
Fore
SplineSet
1167 539.353 m 0
 1167 288.06 1034.62 0 504 0 c 2
 184 0 l 1
 184 1312 l 1
 29 1312 l 1
 29 1423.61 l 1
 317.658 1509 l 1
 437.594 1509 l 1
 437.594 949.552 l 1
 450.339 954.807 l 2
 547.987 995.46 636.186 1012 716.137 1012 c 0
 1023.36 1012 1167 782.682 1167 539.353 c 0
906.89 499.563 m 0
 906.89 665.839 844.462 841 594.749 841 c 0
 562.25 841 511.767 836.401 437.594 816.553 c 1
 425 147.022 l 1
 428.264 146.999 432.858 147.138 436.244 146.938 c 0
 442.123 146.565 449.293 146 467 146 c 2
 500 146 l 2
 824.849 146 906.197 294.992 906.89 499.563 c 0
EndSplineSet
EndChar

StartChar: c
Encoding: 70 99 70
Width: 1054
GlyphClass: 1
Flags: HW
LayerCount: 2
Back
Fore
SplineSet
330.773 514.064 m 0
 330.773 372.104 401.639 154 686.81 154 c 0
 794.274 154 881.306 195.826 946.187 238.837 c 2
 985 264.567 l 1
 985 85.4541 l 1
 897.967 42.5342 l 2
 805.909 -1.94336 706.087 -25 597.233 -25 c 0
 269.342 -25 70 184.7 70 487.299 c 0
 70 820.653 303.859 1012 624.446 1012 c 0
 849.37 1012 981 920 981 782 c 0
 981 694.4 917.125 636 835 636 c 0
 796.593 636 758.225 650.262 716.066 674.768 c 2
 702.684 682.104 l 1
 702.684 859.129 l 1
 676.354 870.81 652.97 876 633.517 876 c 0
 451.87 876 330.773 735.615 330.773 514.064 c 0
EndSplineSet
EndChar

StartChar: d
Encoding: 71 100 71
Width: 1255
GlyphClass: 1
Flags: HW
LayerCount: 2
Back
Fore
SplineSet
322.528 502.802 m 0
 322.528 291.425 442.227 165 617.56 165 c 0
 674.468 165 741.713 183.26 819.31 221.331 c 1
 819.31 840.914 l 1
 758.562 855.776 704.59 863 657.694 863 c 0
 457.025 863 322.528 728.643 322.528 502.802 c 0
70 468.219 m 0
 70 752.655 257.604 1012 642.508 1012 c 0
 698.824 1012 757.376 1006.02 819.31 993.582 c 1
 819.31 1312 l 1
 651.185 1312 l 1
 651.185 1423.61 l 1
 960.34 1509 l 1
 1071 1509 l 1
 1071 155.034 l 2
 1071 143.972 1072.44 137.508 1091.14 135.641 c 2
 1202 128.354 l 1
 1202 0 l 1
 819.31 0 l 1
 819.31 84.7686 l 1
 673.146 -8.75488 568.292 -25 502.585 -25 c 0
 193.811 -25 70 237.17 70 468.219 c 0
EndSplineSet
EndChar

StartChar: e
Encoding: 72 101 72
Width: 1104
GlyphClass: 1
Flags: HW
LayerCount: 2
Back
Fore
SplineSet
318.699 510 m 1
 324.952 342.403 400.892 150 672.782 150 c 0
 742.174 150 844.531 173.568 995.245 272.876 c 2
 1034 298.412 l 1
 1034 113.198 l 1
 1022.32 105.844 l 2
 884.461 19.043 746.265 -25 600.089 -25 c 0
 295.061 -25 70 156.752 70 483.483 c 0
 70 794.56 272.4 1012 606.799 1012 c 0
 948.912 1012 1034 769.998 1034 589.04 c 2
 1034 563.377 l 2
 1034 551.485 1032.87 540.988 1031.85 532.239 c 2
 1029.38 510 l 1
 318.699 510 l 1
777.906 669.863 m 2
 777.906 753.485 740.228 861 583.314 861 c 0
 440.809 861 352.104 772.783 333.277 652 c 1
 777.906 652 l 1
 777.906 669.863 l 2
EndSplineSet
EndChar

StartChar: f
Encoding: 73 102 73
Width: 768
GlyphClass: 1
Flags: HW
LayerCount: 2
Back
Fore
SplineSet
203.188 968.971 m 1
 211.148 1365.96 496.578 1509 696 1509 c 0
 815.675 1509 897 1449.8 897 1361 c 0
 897 1275.39 823.396 1233.59 781.225 1226.36 c 2
 768.472 1224.17 l 1
 759.322 1233.32 l 2
 758.243 1234.4 749.223 1240.73 746.659 1242.52 c 2
 579.548 1352.36 l 1
 576.891 1353.89 l 1
 494.149 1305.42 466.314 1200.87 466.314 1077 c 2
 466.314 971 l 1
 747 971 l 1
 747 816 l 1
 466.314 816 l 1
 466.314 154.154 l 2
 466.314 146.757 471.002 138.155 490.447 135.417 c 1
 657 128.791 l 1
 657 0 l 1
 59 0 l 1
 59 128.559 l 1
 182.329 135.335 l 1
 202.312 138.246 203 150.607 203 154.14 c 2
 203 816 l 1
 72 816 l 1
 72 931.917 l 1
 203.188 968.971 l 1
EndSplineSet
EndChar

StartChar: g
Encoding: 74 103 74
Width: 1175
GlyphClass: 1
Flags: HW
LayerCount: 2
Back
Fore
SplineSet
351.338 346.969 m 1
 232.969 385.932 115 483.104 115 654.35 c 0
 115 879.655 295.961 1012 573.256 1012 c 0
 645.268 1012 719.16 997.062 794.221 967.971 c 2
 839.465 950.836 l 1
 1140 950.836 l 1
 1140 807.812 l 1
 953.523 807.812 l 1
 978.484 759.2 991 708.499 991 656.208 c 0
 991 460.605 800.914 321.976 535.858 321.976 c 0
 525.868 321.976 515.783 322.171 505.608 322.566 c 1
 498.603 307.158 492.085 284.009 492.414 253.358 c 0
 492.477 247.51 492.627 242.609 492.916 238.518 c 1
 588.129 229.872 l 2
 916.842 199.831 1087 109.071 1087 -57 c 0
 1087 -258.415 844.48 -469 495.539 -469 c 0
 221.113 -469 70 -335.917 70 -153 c 0
 70 25.1768 208.014 83.7383 278.299 102.078 c 1
 270.301 123.226 266 147.88 266 174.926 c 0
 266 240.438 306.715 301.031 351.338 346.969 c 1
551.364 878 m 0
 437.849 878 365.28 792.344 365.28 651 c 0
 365.28 522.146 431.605 426 551.364 426 c 0
 666.787 426 731.975 523.97 731.975 653 c 0
 731.975 777.743 664.051 878 551.364 878 c 0
448.53 54.1338 m 1
 343.697 18.0234 304 -46.7568 304 -112 c 0
 304 -186.846 375.247 -325 568.878 -325 c 0
 773.399 -325 857.855 -195.089 857.855 -112 c 0
 857.855 -58.3828 818.921 5.81934 615.435 32.2412 c 2
 520.483 44.208 l 2
 488.798 47.7168 465.407 51.2227 448.53 54.1338 c 1
EndSplineSet
EndChar

StartChar: h
Encoding: 75 104 75
Width: 1276
GlyphClass: 1
Flags: HW
LayerCount: 2
Back
Fore
SplineSet
425 903.317 m 1
 495.194 942.496 667.103 1012 788 1012 c 0
 919.226 1012 1091 942.111 1091 694.941 c 2
 1091 154.523 l 2
 1091.3 152.062 1091.63 140.44 1108.5 136.289 c 0
 1109.43 136.06 1109.03 135.857 1112.95 135.521 c 2
 1228 128.423 l 1
 1228 0 l 1
 722 0 l 1
 722 128.278 l 1
 828.978 135.396 l 2
 827.351 135.131 831.724 135.727 833.504 136.158 c 0
 841.937 138.202 851 144.047 851 154.111 c 2
 851 646.13 l 2
 851 778.826 777.158 812 652.237 812 c 0
 545.005 812 478.854 791.649 425 766.228 c 1
 425 154.116 l 2
 425 139.138 436.906 135.919 442.982 135.404 c 2
 554 128.354 l 1
 554 0 l 1
 43 0 l 1
 43 128.517 l 1
 163.95 135.61 l 2
 182.445 137.446 184 143.576 184 154.886 c 2
 184 1312 l 1
 31 1312 l 1
 31 1423.57 l 1
 314.312 1509 l 1
 425 1509 l 1
 425 903.317 l 1
EndSplineSet
EndChar

StartChar: i
Encoding: 76 105 76
Width: 671
GlyphClass: 1
Flags: HW
LayerCount: 2
Back
Fore
SplineSet
70 0 m 1
 70 128.545 l 1
 192.965 135.517 l 2
 211.46 137.327 213 143.373 213 154.529 c 2
 213 822.713 l 1
 72 822.713 l 1
 72 931.921 l 1
 343.19 1012 l 1
 453 1012 l 1
 453 154.533 l 2
 453 146.852 456.009 138.011 473.614 135.447 c 1
 601 128.612 l 1
 601 0 l 1
 70 0 l 1
195 1300 m 0
 195 1376.7 255.8 1450 347 1450 c 0
 437.069 1450 496 1379.76 496 1300 c 0
 496 1208.8 425 1148 347 1148 c 0
 257.593 1148 195 1221.11 195 1300 c 0
EndSplineSet
EndChar

StartChar: j
Encoding: 77 106 77
Width: 648
GlyphClass: 1
Flags: HW
LayerCount: 2
Back
Fore
SplineSet
19 -469 m 0
 -53.4004 -469 -162 -441.4 -162 -331 c 0
 -162 -246.082 -102.506 -205.645 -57.4463 -189.47 c 2
 -45.3818 -185.14 l 1
 149.995 -319.646 l 1
 192.187 -284.375 223 -194.512 223 -18 c 2
 223 825.074 l 1
 78 825.074 l 1
 78 931.347 l 1
 351.22 1012 l 1
 464 1012 l 1
 464 137.516 l 2
 464 -112.148 421.1 -268.388 284.776 -375.394 c 0
 202.475 -442.324 102.109 -469 19 -469 c 0
184 1300 m 0
 184 1390 257.925 1450 336 1450 c 0
 426 1450 486 1379.69 486 1300 c 0
 486 1208.8 413.65 1148 336 1148 c 0
 260.661 1148 184 1207.15 184 1300 c 0
EndSplineSet
EndChar

StartChar: k
Encoding: 78 107 78
Width: 1194
GlyphClass: 1
Flags: HW
LayerCount: 2
Back
Fore
SplineSet
795 0 m 1
 795 92.208 l 1
 500.602 440 l 1
 425 440 l 1
 425 147.613 l 2
 425 136.767 426.438 130.428 445.137 128.598 c 2
 556 121.453 l 1
 556 0 l 1
 41 0 l 1
 41 123.826 l 1
 163.965 130.922 l 2
 182.46 132.765 184 138.918 184 150.273 c 2
 184 1312 l 1
 29 1312 l 1
 29 1423.57 l 1
 312.312 1509 l 1
 425 1509 l 1
 425 549 l 1
 429.743 549 l 1
 761.023 899 l 1
 631.873 905.215 l 1
 631.873 987 l 1
 1114 987 l 1
 1114 865.676 l 1
 969.887 851.017 l 1
 698.921 596.388 l 1
 1054.1 133.809 l 1
 1173 121.234 l 1
 1173 0 l 1
 795 0 l 1
EndSplineSet
EndChar

StartChar: l
Encoding: 79 108 79
Width: 658
GlyphClass: 1
Flags: HW
LayerCount: 2
Back
Fore
SplineSet
188.312 135.981 m 2
 190.437 136.287 193.155 136.957 196.294 138.931 c 0
 199.995 141.257 203.944 145.022 206.329 148.386 c 0
 209.796 153.274 209 152.768 209 153.266 c 2
 209 1312 l 1
 53 1312 l 1
 53 1423.57 l 1
 336.312 1509 l 1
 449 1509 l 1
 449 103.464 l 2
 449.618 99.3965 452.033 96.1113 455.143 92.9883 c 0
 457.061 91.0615 459.308 89.2979 461.412 88 c 0
 466.509 146.852 466.52 135.981 467.675 135.981 c 2
 603 128.686 l 1
 603 0 l 1
 55 0 l 1
 55 128.662 l 1
 188.312 135.981 l 2
EndSplineSet
EndChar

StartChar: m
Encoding: 80 109 80
Width: 1891
GlyphClass: 1
Flags: HW
LayerCount: 2
Back
Fore
SplineSet
784 1012 m 0
 912.163 1012 984.698 933.277 1018.29 879.434 c 1
 1072.08 910.962 l 2
 1072.13 910.985 1273.17 1012 1415 1012 c 0
 1643.33 1012 1704 838.967 1704 691.158 c 2
 1704 154.528 l 2
 1704 146.847 1707.05 138.005 1724.66 135.441 c 1
 1846 128.53 l 1
 1846 0 l 1
 1337 0 l 1
 1337 128.316 l 1
 1445.84 135.387 l 2
 1464.34 137.169 1466 143.129 1466 154.113 c 2
 1466 640.539 l 2
 1466 775.422 1403.2 812 1293.95 812 c 0
 1199.69 812 1133.17 797.508 1065 767.596 c 1
 1065 154.113 l 2
 1065 143.432 1066.46 137.189 1085.16 135.387 c 2
 1194 128.316 l 1
 1194 0 l 1
 695 0 l 1
 695 128.316 l 1
 803.844 135.387 l 2
 822.339 137.169 824 143.129 824 154.113 c 2
 824 652.653 l 2
 824 773.812 762 812 654.714 812 c 0
 545.414 812 469.767 787.281 425 766.307 c 1
 425 154.113 l 2
 425 143.432 426.457 137.189 445.156 135.387 c 2
 554 128.316 l 1
 554 0 l 1
 41 0 l 1
 41 128.545 l 1
 163.965 135.506 l 2
 182.46 137.313 184 143.35 184 154.489 c 2
 184 802.732 l 1
 43 802.732 l 1
 43 907.004 l 1
 312.161 987 l 1
 425 987 l 1
 425 904.2 l 1
 544.51 973.697 699.65 1012 784 1012 c 0
EndSplineSet
EndChar

StartChar: n
Encoding: 81 110 81
Width: 1261
GlyphClass: 1
Flags: HW
LayerCount: 2
Back
Fore
SplineSet
847 650.79 m 2
 847 748.644 812.6 812 656.14 812 c 0
 566.644 812 496.188 796.655 425 765.666 c 1
 425 154.113 l 2
 425 143.432 426.457 137.189 445.156 135.387 c 2
 554 128.316 l 1
 554 0 l 1
 41 0 l 1
 41 128.545 l 1
 163.965 135.506 l 2
 182.46 137.313 184 143.35 184 154.489 c 2
 184 802.732 l 1
 41 802.732 l 1
 41 907.046 l 1
 312.19 987 l 1
 425 987 l 1
 425 901.921 l 1
 475.34 929.112 l 1
 591.68 983.065 716.575 1012 788 1012 c 0
 1023.59 1012 1087 842.63 1087 689.263 c 2
 1087 154.521 l 2
 1087 146.84 1090.13 137.992 1107.73 135.429 c 1
 1220 128.389 l 1
 1220 0 l 1
 718 0 l 1
 718 128.316 l 1
 826.2 135.309 l 1
 846.183 138.218 847 150.583 847 154.113 c 2
 847 650.79 l 2
EndSplineSet
EndChar

StartChar: o
Encoding: 82 111 82
Width: 1214
GlyphClass: 1
Flags: W
HStem: -25 143<473.054 742.587> 870 142<466.289 745.815>
VStem: 70 266.807<278.457 714.66> 879.381 264.619<273.243 714.552>
LayerCount: 2
Back
Fore
SplineSet
336.807 494 m 0
 336.807 268.4 444.884 118 607 118 c 0
 824.905 118 879.381 350.714 879.381 494 c 0
 879.381 725.391 771.304 870 609.188 870 c 0
 391.283 870 336.807 644.127 336.807 494 c 0
70 492.069 m 0
 70 794.589 277.636 1012 611.376 1012 c 0
 939.429 1012 1144 798.788 1144 492.069 c 0
 1144 190.451 936.301 -25 604.812 -25 c 0
 275.997 -25 70 183.319 70 492.069 c 0
EndSplineSet
EndChar

StartChar: p
Encoding: 83 112 83
Width: 1295
GlyphClass: 1
Flags: HW
LayerCount: 2
Back
Fore
SplineSet
968.435 478.332 m 0
 968.983 603.354 911.037 818 679.254 818 c 0
 619.105 818 551.662 802.851 475 770.236 c 1
 448.073 143.048 l 1
 505.15 127.767 559.72 120 612.952 120 c 0
 861.601 120 968.435 297.533 968.435 478.332 c 0
475 909.769 m 1
 552.57 958.072 668.147 1012 790.261 1012 c 0
 1058.6 1012 1225 787.81 1225 507.333 c 0
 1225 178.812 1015.57 -25 631.661 -25 c 0
 574.309 -25 512.886 -20.5439 448.073 -11.0645 c 1
 448.073 -286 l 2
 448.073 -294.705 450.295 -302.065 474.476 -304.134 c 2
 642.185 -319.542 l 1
 642.185 -446 l 1
 43 -446 l 1
 43 -320.098 l 1
 163.07 -304.175 l 2
 179.531 -302.472 184 -297.738 184 -286 c 2
 184 799.369 l 1
 43 799.369 l 1
 43 905.628 l 1
 366.22 987 l 1
 475 987 l 1
 475 909.769 l 1
EndSplineSet
EndChar

StartChar: q
Encoding: 84 113 84
Width: 1224
GlyphClass: 1
Flags: HW
LayerCount: 2
Back
Fore
SplineSet
326.879 502.324 m 0
 326.879 355.421 388.772 146 636.343 146 c 0
 683.272 146 738.372 153.76 800.305 168.979 c 1
 800.305 899 l 1
 775.95 890.815 l 2
 736.172 876.424 714.906 868 674.348 868 c 0
 434.023 868 326.879 710.341 326.879 502.324 c 0
70 470.127 m 0
 70 823.217 322.813 1012 718.867 1012 c 0
 821.995 1012 928.216 1000.76 1032.32 978.428 c 2
 1052 974.141 l 1
 1052 -290 l 2
 1052 -297.919 1052.35 -304.61 1073.5 -308.258 c 1
 1194 -321.624 l 1
 1194 -446 l 1
 622.227 -446 l 1
 622.227 -321.17 l 1
 778.033 -308.128 l 2
 780.034 -307.82 780.45 -307.737 782.194 -307.297 c 0
 795.174 -304.021 800.305 -298.866 800.305 -290 c 2
 800.305 41.335 l 1
 727.406 12.6543 611.371 -25 515.815 -25 c 0
 242 -25 70 183.947 70 470.127 c 0
EndSplineSet
EndChar

StartChar: r
Encoding: 85 114 85
Width: 951
GlyphClass: 1
Flags: HW
LayerCount: 2
Back
Fore
SplineSet
780 1012 m 0
 825.978 1012 872.102 1000.94 916.396 978.251 c 2
 930 971.283 l 1
 930 728 l 1
 813.799 728 l 1
 806.343 736.359 l 2
 780.689 765.122 751.537 784 715 784 c 0
 660.392 784 580.865 754.176 485 680.372 c 1
 485 154.079 l 2
 485 143.429 486.524 137.222 511.488 135.424 c 1
 713 128.913 l 1
 713 0 l 1
 51 0 l 1
 51 126.098 l 1
 174.083 135.278 l 1
 194.065 138.229 195 150.777 195 154.358 c 2
 195 802.704 l 1
 47 802.704 l 1
 47 907.114 l 1
 372.248 987 l 1
 485 987 l 1
 485 845.24 l 1
 497.487 855.652 l 2
 607.927 948.836 708.1 1012 780 1012 c 0
EndSplineSet
EndChar

StartChar: s
Encoding: 86 115 86
Width: 915
GlyphClass: 1
Flags: HW
LayerCount: 2
Back
Fore
SplineSet
512.744 1012 m 0
 637.114 1012 752.536 985.63 800.786 962.554 c 2
 815 955.756 l 1
 815 673 l 1
 660.642 673 l 1
 643.405 827.049 l 1
 620.031 842.048 566.736 863 492.103 863 c 0
 344.098 863 320.908 799.382 320.908 756.97 c 0
 320.908 567.436 845 594.537 845 303.503 c 0
 845 73.0762 652.696 -25 392.543 -25 c 0
 273.266 -25 175.87 -7.48145 85.6689 28.8066 c 2
 70 35.1104 l 1
 70 349 l 1
 220.665 349 l 1
 247.096 165.04 l 1
 299.567 133.21 359.04 118 425.325 118 c 0
 562.485 118 615 188.524 615 244.902 c 0
 615 304.849 579.023 344.517 459.257 390.345 c 2
 331.821 439.57 l 1
 142.487 525.415 84 598.27 84 707.055 c 0
 84 918.643 260.291 1012 512.744 1012 c 0
EndSplineSet
EndChar

StartChar: t
Encoding: 87 116 87
Width: 796
GlyphClass: 1
Flags: HW
LayerCount: 2
Back
Fore
SplineSet
461.031 324.711 m 2
 461.031 175.524 531.618 140 616 140 c 0
 667.768 140 710.95 154.138 745.419 172.155 c 2
 782 191.277 l 1
 782 52.4727 l 1
 768.082 45.5898 l 2
 674.136 -0.867188 578.149 -25 466.109 -25 c 0
 262.926 -25 186 50.2363 186 215.989 c 2
 186 835 l 1
 55 835 l 1
 55 942.854 l 1
 200.708 1011.54 l 1
 295.445 1235 l 1
 461.031 1235 l 1
 461.031 987 l 1
 766 987 l 1
 766 835 l 1
 461.031 835 l 1
 461.031 324.711 l 2
EndSplineSet
EndChar

StartChar: u
Encoding: 88 117 88
Width: 1265
GlyphClass: 1
Flags: HW
LayerCount: 2
Back
Fore
SplineSet
437.843 359.518 m 2
 437.843 207.158 512.471 165 624.412 165 c 0
 687.325 165 758.155 180.545 836.863 213.667 c 1
 836.863 823.148 l 1
 681.569 823.148 l 1
 681.569 930.085 l 1
 973.93 1012 l 1
 1087 1012 l 1
 1087 154.521 l 2
 1087.3 152.061 1087.63 140.438 1104.5 136.287 c 0
 1105.43 136.058 1105.04 135.854 1108.96 135.518 c 2
 1222 128.389 l 1
 1222 0 l 1
 836.863 0 l 1
 836.863 92.4707 l 1
 685.628 -6.22656 577.824 -25 510.098 -25 c 0
 315.508 -25 186 70.7197 186 315.579 c 2
 186 821.199 l 1
 43 821.199 l 1
 43 929.281 l 1
 318.273 1012 l 1
 437.843 1012 l 1
 437.843 359.518 l 2
EndSplineSet
EndChar

StartChar: v
Encoding: 89 118 89
Width: 1183
GlyphClass: 1
Flags: HW
LayerCount: 2
Back
Fore
SplineSet
1163 865.744 m 1
 1046.64 853.552 l 1
 669.499 0 l 1
 470.572 0 l 1
 139.916 853.54 l 1
 20 865.661 l 1
 20 987 l 1
 523 987 l 1
 523 858.483 l 1
 401.949 851.08 l 2
 396.687 850.579 391.708 846.683 391.708 843.071 c 0
 391.708 842.627 391.798 841.402 392.476 839.595 c 2
 620.031 261.177 l 1
 876.828 840.381 l 2
 877.273 841.802 877.757 842.696 877.908 844.126 c 2
 877.908 844.126 877.944 840.481 877.944 844.778 c 0
 877.944 845.981 877.388 850.014 869.419 851.152 c 2
 755 858.577 l 1
 755 987 l 1
 1163 987 l 1
 1163 865.744 l 1
EndSplineSet
EndChar

StartChar: w
Encoding: 90 119 90
Width: 1754
GlyphClass: 1
Flags: HW
LayerCount: 2
Back
Fore
SplineSet
1733 859.719 m 1
 1622.99 847.723 l 1
 1291.35 0 l 1
 1109.68 0 l 1
 884.703 712.117 l 1
 583.695 0 l 1
 401.27 0 l 1
 138.711 847.602 l 1
 20 859.515 l 1
 20 987 l 1
 519 987 l 1
 519 858.514 l 1
 400.469 851.139 l 2
 390.447 849.772 390.337 845.229 390.337 842.485 c 0
 390.337 840.588 390.857 838.512 391.114 837.594 c 2
 540.013 279.668 l 1
 833.158 987 l 1
 1015.45 987 l 1
 1233.53 280.306 l 1
 1449.02 838.056 l 2
 1449.3 839.036 1449.82 841.051 1449.82 843.084 c 0
 1449.82 846.644 1448.76 850.151 1441.51 851.14 c 2
 1325 858.545 l 1
 1325 987 l 1
 1733 987 l 1
 1733 859.719 l 1
EndSplineSet
EndChar

StartChar: x
Encoding: 91 120 91
Width: 1144
GlyphClass: 1
Flags: W
HStem: 0 120.548<20 129.148 1019.51 1124> 0 88<341.765 460 634 725.735> 866.546 120.454<31 130.135 463.673 531 677 755.469 1003.43 1095>
LayerCount: 2
Back
Fore
SplineSet
1124 0 m 1xa0
 634 0 l 1
 634 81.3057 l 1
 724.506 88 l 1
 725.735 88 l 2
 725.417 88 724.801 88 724.999 88 c 2
 724.937 88 l 1
 543.707 319.161 l 1
 341.765 88 l 1
 460 82.127 l 1
 460 0 l 1x60
 20 0 l 1
 20 120.699 l 1
 148.441 137.418 l 1
 424.196 478.705 l 1
 162.434 847.937 l 1
 31 866.546 l 1
 31 987 l 1
 531 987 l 1
 531 860.274 l 1
 438.294 847.219 l 2
 437.497 846.987 436.766 846.495 436.376 846.157 c 2
 600.875 647.952 l 1
 782.226 847.724 l 1
 677 859.68 l 1
 677 987 l 1
 1095 987 l 1
 1095 866.846 l 1
 973.644 847.944 l 1
 715.989 535.831 l 1
 1002.44 137.226 l 1
 1124 120.548 l 1
 1124 0 l 1xa0
436.098 870.866 m 2
 436.22 871.012 l 2
 436.16 870.952 436.119 870.902 436.098 870.866 c 2
EndSplineSet
EndChar

StartChar: y
Encoding: 92 121 92
Width: 1185
GlyphClass: 1
Flags: HW
LayerCount: 2
Back
Fore
SplineSet
226 -469 m 0
 85.7383 -469 51 -374.264 51 -327 c 0
 51 -270.146 80.3535 -223.178 125.91 -184.866 c 2
 138.025 -174.678 l 1
 328.034 -261.765 l 1
 393.108 -190.281 456.8 -49.0439 479.445 15.1992 c 1
 140.23 852.146 l 1
 20 864.423 l 1
 20 987 l 1
 523 987 l 1
 523 858.483 l 1
 401.949 851.08 l 2
 396.687 850.579 391.708 846.683 391.708 843.071 c 0
 391.708 842.627 391.708 841.642 392.334 839.972 c 2
 631.038 294.58 l 1
 876.865 840.473 l 2
 877.311 841.894 877.757 842.696 877.908 844.126 c 2
 877.908 844.126 877.944 840.481 877.944 844.778 c 0
 877.944 845.981 877.43 850.011 869.461 851.149 c 2
 750 858.499 l 1
 750 987 l 1
 1165 987 l 1
 1165 865.176 l 1
 1050.5 852.892 l 1
 602.548 -114.732 l 1
 436.414 -456.644 299.362 -469 226 -469 c 0
EndSplineSet
EndChar

StartChar: z
Encoding: 93 122 93
Width: 1046
GlyphClass: 1
Flags: HW
LayerCount: 2
Back
Fore
SplineSet
70 0 m 1
 70 133.858 l 1
 626.671 841 l 1
 281 841 l 2
 278.467 840.574 274.852 836.938 273.401 835.263 c 0
 270.912 832.388 266.225 826.394 264.625 818.794 c 2
 241.926 646 l 1
 90 646 l 1
 90 987 l 1
 948 987 l 1
 948 876.721 l 1
 365.932 148 l 1
 775 148 l 2
 775.01 148 793.132 159.993 795.219 175.296 c 2
 819.031 359 l 1
 977 359 l 1
 977 0 l 1
 70 0 l 1
EndSplineSet
EndChar

StartChar: braceleft
Encoding: 94 123 94
Width: 999
GlyphClass: 1
Flags: HW
LayerCount: 2
Back
Fore
SplineSet
414.566 595.787 m 1
 609.438 522.477 625 374.171 625 197 c 0
 625 -66.7588 629.615 -143 858 -143 c 2
 883 -143 l 1
 883 -277 l 1
 858 -277 l 2
 552.796 -277 393 -201.2 393 102 c 2
 393 278 l 2
 393 505.65 310.453 524 123 524 c 2
 98 524 l 1
 98 666 l 1
 123 666 l 2
 308.605 666 393 685.36 393 912 c 2
 393 1087 l 2
 393 1391 549.312 1467 858 1467 c 2
 883 1467 l 1
 883 1333 l 1
 858 1333 l 2
 635.834 1333 624.9 1246.44 624.9 1051.63 c 0
 624.9 1032.95 625 1013.39 625 993 c 0
 625 796.747 601.339 664.09 414.566 595.787 c 1
EndSplineSet
Validated: 33
EndChar

StartChar: bar
Encoding: 95 124 95
Width: 724
GlyphClass: 1
Flags: HW
LayerCount: 2
Back
Fore
SplineSet
275 -553 m 1
 275 1655 l 1
 449 1655 l 1
 449 -553 l 1
 275 -553 l 1
EndSplineSet
Validated: 1
EndChar

StartChar: braceright
Encoding: 96 125 96
Width: 999
GlyphClass: 1
Flags: HW
LayerCount: 2
Back
Fore
SplineSet
607 1087 m 2
 607 912 l 2
 607 698.853 665.512 666 877 666 c 2
 902 666 l 1
 902 524 l 1
 877 524 l 2
 665.512 524 607 491.147 607 278 c 2
 607 102 l 2
 607 -201.2 448.433 -277 141 -277 c 2
 116 -277 l 1
 116 -143 l 1
 141 -143 l 2
 360.384 -143 374.239 -52.4209 374.239 124.22 c 0
 374.239 147.262 374 171.573 374 197 c 0
 374 385.667 397.04 525.027 585.237 595.657 c 1
 405.311 661.115 374 788.335 374 993 c 0
 374 1022.16 374.405 1049.98 374.405 1076.17 c 0
 374.405 1244.02 357.654 1333 141 1333 c 2
 116 1333 l 1
 116 1467 l 1
 141 1467 l 2
 450.881 1467 607 1391 607 1087 c 2
EndSplineSet
Validated: 33
EndChar

StartChar: asciitilde
Encoding: 97 126 97
Width: 1706
GlyphClass: 1
Flags: HW
LayerCount: 2
Back
Fore
SplineSet
1147 627 m 0
 1220.67 627 1337.87 651.734 1515.34 780.248 c 2
 1555 808.97 l 1
 1555 613.908 l 1
 1544.24 606.451 l 2
 1429.21 526.735 1306.43 458 1145 458 c 0
 939.65 458 762.05 596 553 596 c 0
 456.607 596 337.395 547.556 190.713 440.787 c 2
 151 411.881 l 1
 151 606.877 l 1
 161.483 614.354 l 2
 300.34 713.391 435.343 764 565 764 c 0
 768.7 764 976.037 627 1147 627 c 0
EndSplineSet
Validated: 1
EndChar

StartChar: quoteleft
Encoding: 98 8216 98
Width: 506
GlyphClass: 1
Flags: HW
LayerCount: 2
Back
Fore
SplineSet
250 856 m 0
 125.995 856 55 939.576 55 1071 c 0
 55 1210.07 132.576 1330.71 231.264 1418.57 c 1
 297.321 1478.83 l 1
 429.522 1454.48 l 1
 344.597 1360.29 l 2
 270.113 1277.1 236 1198.89 236 1126 c 0
 236 1120.18 236.278 1115.98 236.628 1112 c 1
 354.763 1112 l 1
 362.249 1101.66 l 2
 385.276 1069.86 398 1037.83 398 1006 c 0
 398 923.4 340.675 856 250 856 c 0
EndSplineSet
Validated: 1
EndChar

StartChar: quoteright
Encoding: 99 8217 99
Width: 506
GlyphClass: 1
Flags: HW
LayerCount: 2
Back
Fore
SplineSet
256 1477 m 0
 377.333 1477 451 1391.79 451 1262 c 0
 451 1110.53 360.743 990.221 274.66 913.36 c 2
 208.236 853.929 l 1
 74.6885 882.044 l 1
 107.322 914.678 l 2
 256.463 1063.82 270.059 1145.99 270.059 1201.14 c 0
 270.059 1203.47 270.014 1205.55 270.002 1207.79 c 0
 269.977 1212.7 269.78 1216.59 269.486 1220 c 1
 152.973 1220 l 1
 145.538 1228.14 l 2
 138.945 1235.36 108 1267.69 108 1327 c 0
 108 1387.92 141.737 1477 256 1477 c 0
EndSplineSet
Validated: 33
EndChar

StartChar: quotedblleft
Encoding: 100 8220 100
Width: 928
GlyphClass: 1
Flags: HW
LayerCount: 2
Back
Fore
SplineSet
250 856 m 0
 127.543 856 55 942.343 55 1071 c 0
 55 1210.06 131.019 1329.07 231.25 1418.56 c 1
 297.321 1478.83 l 1
 432.322 1453.97 l 1
 398.678 1420.32 l 2
 246.877 1268.52 236 1184.32 236 1126 c 0
 236 1120.62 236.238 1116.17 236.55 1112 c 1
 353.027 1112 l 1
 360.462 1103.86 l 2
 386.779 1075.03 398 1040.26 398 1006 c 0
 398 923.4 340.675 856 250 856 c 0
672 856 m 0
 547.35 856 477 944.056 477 1075 c 0
 477 1224.62 568.075 1344.53 653.402 1419.7 c 2
 719.469 1478.81 l 1
 850.887 1454.6 l 1
 770.642 1363.34 l 1
 694.022 1278.96 658 1200.43 658 1128 c 0
 658 1121.79 658.287 1116.75 658.644 1112 c 1
 776.763 1112 l 1
 784.248 1101.66 l 2
 807.092 1070.12 820 1039.16 820 1008 c 0
 820 921.771 759.378 856 672 856 c 0
EndSplineSet
Validated: 1
EndChar

StartChar: quotedblright
Encoding: 101 8221 101
Width: 928
GlyphClass: 1
Flags: HW
LayerCount: 2
Back
Fore
SplineSet
258 1477 m 0
 381.802 1477 451 1388.84 451 1260 c 0
 451 1121.34 373.109 1001.22 274.658 913.358 c 2
 208.236 853.929 l 1
 77.835 881.382 l 1
 144.332 956.628 l 129
 261.021 1086.6 270 1154.54 270 1204 c 0
 270 1210.21 269.713 1215.25 269.356 1220 c 1
 152.351 1220 l 1
 144.857 1228.92 l 2
 120.466 1257.96 108 1292.22 108 1327 c 0
 108 1412.88 170.236 1477 258 1477 c 0
678 1477 m 0
 799.333 1477 873 1391.79 873 1262 c 0
 873 1110.53 782.743 990.221 696.66 913.36 c 2
 630.236 853.929 l 1
 496.688 882.044 l 1
 529.322 914.678 l 2
 683.304 1068.66 694 1150.87 694 1208 c 0
 694 1212.91 693.562 1216.59 692.974 1220 c 1
 574.973 1220 l 1
 567.538 1228.14 l 2
 560.881 1235.43 530 1268.49 530 1329 c 0
 530 1415.95 589.2 1477 678 1477 c 0
EndSplineSet
Validated: 1
EndChar

StartChar: u0B83
Encoding: 102 2947 102
Width: 1463
GlyphClass: 1
Flags: HW
LayerCount: 2
Back
Fore
SplineSet
1 179 m 0
 1 279.308 86.6045 366.851 188.859 367.999 c 1
 291.998 367.999 376 282.834 376 180 c 0
 376 85.7246 298.9 -7 188 -7 c 0
 66.0566 -7 1 96.3262 1 179 c 0
851 178 m 0
 851 278.283 936.456 365.847 1037.86 366.999 c 1
 1142.05 366.999 1226 280.931 1226 179 c 0
 1226 84.5156 1146.8 -8 1038 -8 c 0
 916.057 -8 851 95.3262 851 178 c 0
429 1107 m 0
 429 1205.71 511.394 1295 616 1295 c 128
 720.188 1295 804 1208.93 804 1107 c 0
 804 1011.51 725.563 921 616 921 c 0
 494.057 921 429 1024.33 429 1107 c 0
EndSplineSet
EndChar

StartChar: u0B85
Encoding: 103 2949 103
Width: 2352
GlyphClass: 1
Flags: HW
AnchorPoint: "V" 1045.5 1306.73 basechar 0
AnchorPoint: "N" 1045.5 4.57237 basechar 0
LayerCount: 2
Back
Fore
SplineSet
152 353 m 0
 151.853 342.801 151.711 352.819 153.004 348.992 c 0
 169.39 300.479 326.484 127.802 718 125 c 1
 943.679 125 1151.79 200.158 1302.04 360 c 1
 187 360 l 2
 171.056 360 155.663 357.707 151.996 353.519 c 0
 151.996 353.404 152 353.237 152 353 c 0
995 771 m 0
 1085.52 771 1120 858.297 1120 916 c 0
 1120 1047.43 1056.11 1105.19 1028.43 1119.93 c 1
 911.96 1117.04 862 1024.2 862 934 c 0
 862 790.419 961.308 771 995 771 c 0
1715 732 m 0
 1715 660.795 1702.23 586.98 1677.8 510 c 1
 1843 510 l 1
 1843 1313 l 1
 2108.07 1313 l 1
 2103.93 -240 l 1
 1839 -240 l 1
 1839 363 l 1
 1604.01 363 l 1
 1442.49 105.588 1107.37 -24 772 -24 c 1
 136.313 -19.8867 -6.81141 348.682 -16.3359 402.199 c 0
 -16.6787 404.125 -17 406.517 -17 409 c 0
 -17 455.65 6.40039 511 100 511 c 2
 1406.81 511 l 1
 1456.73 596.82 1481 687.927 1481 786 c 0
 1481 943.023 1414.84 1048.49 1284.55 1107.91 c 1
 1319.59 1053.57 1337 981.464 1337 892 c 0
 1337 695.525 1223.35 570 1020 570 c 0
 823.36 570 712 735.679 712 941 c 0
 712 1158.06 868.072 1311 1115 1311 c 0
 1385.23 1311 1715 1190.22 1715 732 c 0
EndSplineSet
EndChar

StartChar: u0B86
Encoding: 104 2950 104
Width: 2896
GlyphClass: 1
Flags: HW
AnchorPoint: "V" 1308 1286.51 basechar 0
AnchorPoint: "N" 1308 -707.904 basechar 0
LayerCount: 2
Back
Fore
SplineSet
992 769 m 0
 1082.52 769 1117 856.297 1117 914 c 0
 1117 1045.43 1053.11 1103.19 1025.43 1117.93 c 1
 908.96 1115.04 859 1022.2 859 932 c 0
 859 788.419 958.308 769 992 769 c 0
2634 139 m 0
 2634 -562.008 2077.33 -741 1678 -741 c 0
 1321.89 -741 877 -662.2 877 -347 c 0
 877 -184.4 1030.44 -76 1268 -76 c 0
 1436.02 -76 1582.28 -135.431 1670.88 -216.562 c 2
 1685.59 -230.026 l 1
 1632.44 -323.491 l 1
 1609.63 -305.72 l 2
 1539.02 -250.694 1398.43 -200 1253 -200 c 0
 1152.27 -200 1021 -228.2 1021 -341 c 0
 1021 -541 1359.68 -591 1591 -591 c 0
 2107.53 -591 2367 -219.714 2367 120 c 0
 2367 367.05 2247 446 2167 446 c 0
 2143.37 446 2124.59 439.957 2106.93 426.349 c 1
 2102.85 -242 l 1
 1838 -242 l 1
 1838 361 l 1
 1603.01 361 l 1
 1441.49 103.588 1106.37 -26 771 -26 c 1
 135.313 -21.8867 -7.81141 346.682 -17.3359 400.199 c 0
 -17.6787 402.125 -18 404.517 -18 407 c 0
 -18 453.65 5.40039 509 99 509 c 2
 1405.81 509 l 1
 1455.73 594.82 1480 685.927 1480 784 c 0
 1480 941.023 1413.84 1046.49 1283.55 1105.91 c 1
 1318.59 1051.57 1336 979.464 1336 890 c 0
 1336 693.525 1222.35 568 1019 568 c 0
 822.36 568 711 733.679 711 939 c 0
 711 1156.06 867.072 1309 1114 1309 c 0
 1384.23 1309 1714 1188.22 1714 730 c 0
 1714 658.795 1701.23 584.98 1676.8 508 c 1
 1842 508 l 1
 1842 1311 l 1
 2107 1311 l 1
 2107 584.411 l 1
 2149.88 612.28 2198.34 625 2250 625 c 0
 2404.91 625 2634 497.615 2634 139 c 0
149.076 351.608 m 1
 149.028 351.223 l 1
 153.502 325.888 287.781 126.098 715 123 c 1
 941.722 123 1149.14 198.439 1299.05 358 c 1
 184 358 l 2
 168.169 358 152.882 355.739 149.076 351.608 c 1
EndSplineSet
EndChar

StartChar: u0B87
Encoding: 105 2951 105
Width: 2207
GlyphClass: 1
Flags: HW
AnchorPoint: "V" 977.5 1872.82 basechar 0
AnchorPoint: "N" 977.5 -255 basechar 0
LayerCount: 2
Back
Fore
SplineSet
617 773 m 0
 706.485 773 742.735 859.049 743.001 918.182 c 0
 743.592 1049.61 679.107 1107.19 651.43 1121.93 c 1
 534.96 1119.04 485 1026.2 485 936 c 0
 485 805.6 564.2 773 617 773 c 0
1086 -134 m 0
 1319.57 -134 1371 31.2666 1371 114 c 0
 1371 185.053 1322.21 243.972 1244.56 294.494 c 1
 1176.69 141.33 1072.66 -2.66602 913.196 -114.298 c 1
 969.405 -127.293 1027.12 -134 1086 -134 c 0
124 19 m 0
 124 -72.7998 225.737 -134 364 -134 c 0
 418.204 -134 471.681 -125.372 524.312 -107.543 c 1
 414.218 -32.7666 315.508 66.5322 227.48 188.564 c 1
 155.752 131.922 124 75.792 124 19 c 0
359.546 274.196 m 1
 451.306 149.676 544.594 54.9238 686.995 -25.8018 c 1
 835.665 72.8398 947.317 208.58 1024.39 383.502 c 1
 969.229 395.352 911.695 401 851 401 c 0
 727.963 401 530.979 369.032 359.546 274.196 c 1
1826 646 m 0
 1826 1303.24 1395.06 1617 954 1617 c 0
 510.6 1617 129 1341.8 129 929 c 0
 129 757.682 178.423 584.08 279.59 406.296 c 1
 485.18 511.56 711.061 544 860 544 c 0
 934.265 544 1006.25 539.025 1075.92 528.283 c 1
 1093.31 594.266 1102 661.697 1102 730 c 0
 1102 824.537 1101.16 1016.18 905.259 1108.86 c 1
 958.449 1026.17 958 924.722 958 891 c 0
 958 802.857 951.943 600.759 642.193 571.057 c 1
 457.394 571.057 333 726.537 333 943 c 0
 333 1146.99 473.341 1314 737 1314 c 0
 1007.23 1314 1337 1193.22 1337 735 c 0
 1337 643.514 1326.53 554.548 1306.44 467.513 c 1
 1527.95 380.133 1625 253.046 1625 112 c 0
 1625 -188.011 1353.66 -280 1087 -280 c 0
 966.962 -280 848.785 -256.563 732.161 -210.025 c 1
 619.263 -256.589 503.05 -280 385 -280 c 0
 174.087 -280 -21 -198.157 -21 35 c 0
 -21 150.839 49.8789 247.848 148.883 327.602 c 1
 40.3457 529.528 -21 760.654 -21 947 c 0
 -21 1545.03 422.26 1873 955 1873 c 0
 1653.02 1873 1976 1352.19 1976 708 c 0
 1976 209.553 1795.72 -196.55 1756.97 -267.928 c 2
 1746.06 -288.021 l 1
 1625.1 -235.715 l 1
 1639.45 -211.324 l 2
 1677.74 -146.236 1826 193.045 1826 646 c 0
EndSplineSet
EndChar

StartChar: u0B88
Encoding: 106 2952 106
Width: 1491
GlyphClass: 1
Flags: HW
AnchorPoint: "V" 596.5 1314 basechar 0
AnchorPoint: "N" 596.5 -1 basechar 0
LayerCount: 2
Back
Fore
SplineSet
1067 798 m 0
 1155.91 798 1217 728.724 1217 645 c 0
 1217 555 1151.38 495 1067 495 c 0
 976.861 495 917 561.503 917 645 c 0
 917 729.3 977 798 1067 798 c 0
842 1164 m 1
 842 -26 l 1
 577 -26 l 1
 577 1164 l 1
 126 1164 l 1
 126 -26 l 1
 -24 -26 l 1
 -24 1314 l 1
 1130.25 1314 l 1
 1128.75 1164 l 1
 842 1164 l 1
352 797 m 0
 440.909 797 502 727.724 502 644 c 0
 502 554 436.375 494 352 494 c 0
 261.861 494 202 560.503 202 644 c 0
 202 728.3 262 797 352 797 c 0
EndSplineSet
EndChar

StartChar: u0B89
Encoding: 107 2953 107
Width: 2322
GlyphClass: 1
Flags: HW
AnchorPoint: "V" 1087.5 1281 basechar 0
AnchorPoint: "N" 1087.5 0 basechar 0
LayerCount: 2
Back
Fore
SplineSet
302 116 m 2
 2106 116 l 2
 2118.55 115.565 2128.22 115.632 2142.38 112.474 c 0
 2179.21 104.26 2199 80.5098 2199 48 c 1
 2196.44 33.1221 2196.77 19.5693 2174 1.79297 c 0
 2153.78 -13.9912 2125.86 -21.7881 2113.15 -24.4639 c 2
 2110.6 -25 l 1
 227 -25 l 2
 42.5293 -25 -24 97.9258 -24 183 c 128
 -24 267.759 45.4678 388 227 388 c 2
 591 388 l 2
 766.133 388 858 586.461 858 739 c 0
 858 1053.83 702 1163 468 1163 c 0
 339.285 1163 226.45 1104.83 169.436 1030.39 c 1
 206.147 1053.84 254.999 1071 320 1071 c 0
 518.396 1071 615 895.147 615 744 c 0
 615 540.236 484.068 424 293 424 c 0
 102.8 424 -24 548.967 -24 873 c 0
 -24 1117.35 199.809 1315 508 1315 c 0
 879.084 1315 1106 1110.9 1106 753 c 0
 1106 401.204 927.34 229 591 229 c 2
 305 229 l 2
 216.105 229 208 186.685 208 172 c 0
 208 149.6 229.6 116 302 116 c 2
270 606 m 0
 363.58 606 384 708.275 384 756 c 0
 384 826.912 332.4 893 255 893 c 0
 202.261 893 160.209 865.97 126.057 808.424 c 1
 127.952 698.521 177.749 606 270 606 c 0
EndSplineSet
EndChar

StartChar: u0B8A
Encoding: 108 2954 108
Width: 3728
GlyphClass: 1
Flags: HW
AnchorPoint: "V" 1738.5 1281 basechar 0
AnchorPoint: "N" 1738.5 3 basechar 0
LayerCount: 2
Back
Fore
SplineSet
1995 1317 m 0
 2311.78 1317 2461.18 1237.12 2530 1163.51 c 1
 2530 1318 l 1
 3497.74 1318 l 1
 3493.28 1165 l 1
 3209 1165 l 1
 3209 148 l 1
 2944 148 l 1
 2944 1165 l 1
 2664 1165 l 1
 2664 148 l 1
 2400 148 l 1
 2400 901 l 2
 2400 1075.45 2234.17 1165 2019 1165 c 0
 1772.44 1165 1603.24 1044.33 1539.81 945.588 c 1
 1600.87 980.568 1681.92 1000 1765 1000 c 0
 1996.64 1000 2150 816.35 2150 589 c 0
 2150 229.455 1949 152 1815 152 c 0
 1486.04 152 1357 448.366 1357 738 c 0
 1357 1118.96 1650.07 1317 1995 1317 c 0
306 119 m 2
 3372 119 l 2
 3384.55 118.565 3394.22 118.632 3408.38 115.474 c 0
 3445.21 107.26 3465 83.5098 3465 51 c 1
 3462.37 36.0479 3462.57 22.3232 3439.51 4.65332 c 0
 3419 -11.0605 3390.96 -18.7686 3378.15 -21.4639 c 2
 3375.6 -22 l 1
 231 -22 l 2
 46.5293 -22 -20 100.926 -20 186 c 128
 -20 270.759 49.4678 391 231 391 c 2
 595 391 l 2
 770.133 391 862 589.461 862 742 c 0
 862 1056.83 706 1166 472 1166 c 0
 343.285 1166 230.45 1107.83 173.436 1033.39 c 1
 210.147 1056.84 258.999 1074 324 1074 c 0
 522.396 1074 619 898.147 619 747 c 0
 619 543.236 488.068 427 297 427 c 0
 106.8 427 -20 551.967 -20 876 c 0
 -20 1120.35 203.809 1318 512 1318 c 0
 883.084 1318 1110 1113.9 1110 756 c 0
 1110 404.204 931.34 232 595 232 c 2
 309 232 l 2
 220.105 232 212 189.685 212 175 c 0
 212 152.6 233.6 119 306 119 c 2
1507.02 693.403 m 1
 1508.44 588.029 1571.08 384 1714 384 c 0
 1813.14 384 1873.44 474.602 1873 592.912 c 0
 1872.51 724.854 1774.54 814 1686 814 c 128
 1567.5 814 1521.95 741.497 1507.02 693.403 c 1
276 608 m 0
 369.58 608 390 710.275 390 758 c 0
 390 828.912 338.4 895 261 895 c 0
 208.261 895 166.209 867.97 132.057 810.424 c 1
 133.952 700.521 183.749 608 276 608 c 0
EndSplineSet
EndChar

StartChar: u0B8E
Encoding: 109 2958 109
Width: 1835
GlyphClass: 1
Flags: HW
AnchorPoint: "V" 775.5 1318 basechar 0
AnchorPoint: "N" 775.5 45.093 basechar 0
LayerCount: 2
Back
Fore
SplineSet
-22 596 m 0
 -22 1033.32 221.286 1318 616 1318 c 2
 1573 1318 l 1
 1573 1165 l 1
 1286 1165 l 1
 1286 -25 l 1
 1022 -25 l 1
 1022 1165 l 1
 640 1165 l 2
 304.921 1165 172.324 948.117 140.188 801.92 c 1
 201.689 847.225 291.664 875 384 875 c 0
 623.675 875 783 696.108 783 445 c 0
 783 206.991 699.093 -22 434 -22 c 0
 69.2002 -22 -22 322.615 -22 596 c 0
128.011 544.895 m 1
 129.303 285.957 245.864 199 346 199 c 0
 459.709 199 517.575 309.948 518 439.089 c 0
 518.498 590.455 404.232 684 321 684 c 0
 205.47 684 147.677 604.523 128.011 544.895 c 1
EndSplineSet
EndChar

StartChar: u0B8F
Encoding: 110 2959 110
Width: 1835
GlyphClass: 1
Flags: HW
AnchorPoint: "V" 775.5 1318 basechar 0
AnchorPoint: "N" 775.5 -401 basechar 0
LayerCount: 2
Back
Fore
SplineSet
-22 596 m 0
 -22 1033.32 221.286 1318 616 1318 c 2
 1573 1318 l 1
 1573 1165 l 1
 1286 1165 l 1
 1286 -11.5811 l 1
 797.171 -426 l 1
 554.644 -426 l 1
 1022 10.8525 l 1
 1022 1165 l 1
 640 1165 l 2
 304.921 1165 172.324 948.117 140.188 801.92 c 1
 201.689 847.225 291.664 875 384 875 c 0
 623.675 875 783 696.108 783 445 c 0
 783 206.991 699.093 -22 434 -22 c 0
 69.2002 -22 -22 322.615 -22 596 c 0
128.011 544.895 m 1
 129.303 285.957 245.864 199 346 199 c 0
 459.709 199 517.575 309.948 518 439.089 c 0
 518.498 590.455 404.232 684 321 684 c 0
 205.47 684 147.677 604.523 128.011 544.895 c 1
EndSplineSet
EndChar

StartChar: u0B90
Encoding: 111 2960 111
Width: 1863
GlyphClass: 1
Flags: HW
AnchorPoint: "V" 791.5 1281 basechar 0
AnchorPoint: "N" 791.5 -494.981 basechar 0
LayerCount: 2
Back
Fore
SplineSet
298 422 m 0
 107.8 422 -19 546.967 -19 871 c 0
 -19 1136.2 207.213 1313 512 1313 c 0
 687.589 1313 813.425 1271.56 875.733 1180.55 c 1
 921.244 1258.19 1004.16 1313 1147 1313 c 0
 1436.88 1313 1602 1142.04 1602 841 c 0
 1602 731.539 1568.15 464.291 1386.14 363.144 c 0
 975.817 135.12 290 426.915 290 -72 c 0
 290 -184.188 331.8 -369 499 -369 c 0
 619.612 -369 725 -232.737 725 -151 c 2
 725 56 l 1
 975 56 l 1
 975 -145 l 2
 975 -230.286 1040.86 -377 1204 -377 c 0
 1351.2 -377 1388 -254.55 1388 -148 c 0
 1388 -45.2754 1356.46 42.5332 1317.62 90.208 c 2
 1297.1 115.39 l 1
 1471.32 194.201 l 1
 1483.27 177.628 l 2
 1543.74 93.8174 1573 -8.95215 1573 -126 c 0
 1573 -289.65 1491.45 -527 1187 -527 c 0
 1036.61 -527 935.238 -478.171 876.65 -392.205 c 1
 817.684 -458.286 693.657 -526 533 -526 c 0
 228.292 -526 39 -366.396 39 -73 c 0
 39 123.521 124.419 254.044 289.962 317.309 c 1
 626.962 449.882 1000.8 372.735 1210.76 478.331 c 0
 1306.08 526.273 1353 714.295 1353 860 c 0
 1353 987.906 1306.6 1163 1121 1163 c 0
 1004.2 1163 975 1021.27 975 974 c 2
 975 588 l 1
 725 588 l 1
 725 958 l 2
 725 1016.41 682.303 1161 473 1161 c 0
 344.285 1161 231.45 1102.83 174.436 1028.39 c 1
 211.147 1051.84 259.999 1069 325 1069 c 0
 523.396 1069 620 893.147 620 742 c 0
 620 538.236 489.068 422 298 422 c 0
273 598 m 0
 366.58 598 387 700.275 387 748 c 0
 387 818.912 335.4 885 258 885 c 0
 205.261 885 163.209 857.97 129.057 800.424 c 1
 130.952 690.521 180.749 598 273 598 c 0
EndSplineSet
EndChar

StartChar: u0B92
Encoding: 112 2962 112
Width: 2007
GlyphClass: 1
Flags: HW
AnchorPoint: "V" 818.5 1315.94 basechar 0
AnchorPoint: "N" 818.5 -713 basechar 0
LayerCount: 2
Back
Fore
SplineSet
1049.51 317.078 m 1
 1049.16 311.309 1049 305.96 1049 301 c 0
 1049 175.6 1110.83 92 1350 92 c 2
 1592 92 l 1
 1592 -70 l 1
 1408 -70 l 2
 1122.58 -70 1382.7 -738 719 -738 c 0
 383.532 -738 208 -556.41 208 -345 c 0
 208 -157.674 305.642 0 487 0 c 2
 505.477 0 l 1
 555.827 -164 l 1
 522 -164 l 2
 456.306 -164 359 -193.227 359 -344 c 0
 359 -441.6 457.15 -588 743 -588 c 0
 1003.06 -588 957.379 -364.972 1030.12 -131.606 c 128
 1045.05 -83.6914 1073.52 -41.8936 1113.11 -13.3096 c 1
 974.419 45.9102 927 183.23 927 312 c 0
 927 516.604 1032.2 727.05 1147.03 765.694 c 2
 1158.38 769.517 l 1
 1247.06 712.763 l 1
 1221.12 690.887 l 2
 1168.15 646.232 1153 573.825 1153 503 c 0
 1153 408.875 1188.6 335 1242 335 c 0
 1333.2 335 1394 403.6 1394 602 c 0
 1394 924.484 1076.08 1164 777 1164 c 0
 366.289 1164 219.898 979.071 163.469 846.236 c 1
 212.098 874.882 273.01 889 345 889 c 0
 567.467 889 711 739.259 711 534 c 0
 711 328.217 616.409 149 389 149 c 0
 141.8 149 -23 351.875 -23 624 c 0
 -23 900.8 102.323 1316 805 1316 c 0
 1437.21 1316 1660 934.443 1660 610 c 0
 1660 252.81 1461.57 134 1298 134 c 0
 1150.51 134 1079.4 207.069 1049.51 317.078 c 1
130.024 617.869 m 1
 131.688 478.06 217.703 353 325 353 c 0
 373.4 353 446 381.307 446 521 c 0
 446 673.354 362.176 725 298 725 c 0
 198.784 725 149.118 670.911 130.024 617.869 c 1
EndSplineSet
EndChar

StartChar: u0B93
Encoding: 113 2963 113
Width: 2007
GlyphClass: 1
Flags: HW
AnchorPoint: "V" 819.5 1316.95 basechar 0
AnchorPoint: "N" 819.5 -713 basechar 0
LayerCount: 2
Back
Fore
SplineSet
807 1317 m 0
 1446.59 1317 1660 929.259 1660 617 c 0
 1660 231.239 1444.11 134 1298 134 c 0
 1151.94 134 1080.78 205.655 1050.39 313.878 c 1
 1050.12 308.186 1050 302.901 1050 298 c 0
 1050 174.4 1113.02 92 1351 92 c 2
 1593 92 l 1
 1593 -70 l 1
 1409 -70 l 2
 1129.5 -70 1379.53 -738 720 -738 c 0
 413.4 -738 209 -580.8 209 -345 c 0
 209 -156.017 312.828 -6 520 -6 c 0
 766.526 -6 843 -154.959 843 -257 c 0
 843 -349.875 805.682 -422.296 738.541 -475.582 c 2
 726.065 -485.483 l 1
 578.796 -411.849 l 1
 603.322 -387.322 l 2
 636.76 -353.885 659 -313.929 659 -265 c 0
 659 -225 633.25 -165 524 -165 c 0
 458.306 -165 361 -194.227 361 -345 c 0
 361 -442.6 459.15 -589 745 -589 c 0
 1081.79 -589 929.552 -149.577 1114.63 -12.1084 c 1
 976.311 47.2227 929 184.378 929 313 c 0
 929 517.604 1034.2 728.05 1149.03 766.694 c 2
 1160.38 770.517 l 1
 1249.06 713.763 l 1
 1223.12 691.887 l 2
 1170.15 647.232 1155 574.825 1155 504 c 0
 1155 409.875 1190.6 336 1244 336 c 0
 1335.2 336 1396 404.6 1396 603 c 0
 1396 925.484 1078.08 1165 779 1165 c 0
 368.289 1165 221.898 980.071 165.469 847.236 c 1
 214.098 875.882 275.01 890 347 890 c 0
 569.467 890 713 740.259 713 535 c 0
 713 329.217 618.409 150 391 150 c 0
 143.8 150 -21 352.875 -21 625 c 0
 -21 901.8 104.323 1317 807 1317 c 0
132.024 618.869 m 1
 133.688 479.06 219.703 354 327 354 c 0
 375.4 354 448 382.307 448 522 c 0
 448 674.354 364.176 726 300 726 c 0
 200.784 726 151.118 671.911 132.024 618.869 c 1
EndSplineSet
EndChar

StartChar: u0B95
Encoding: 115 2965 115
Width: 1778
GlyphClass: 1
Flags: HW
AnchorPoint: "V" 731.5 1315 basechar 0
AnchorPoint: "N" 731.5 9.92431 basechar 0
LayerCount: 2
Back
Fore
SplineSet
-22 405 m 0
 -22 641.099 149.513 747.293 239 765.223 c 1
 239 1315 l 1
 1220 1315 l 1
 1220 1165 l 1
 933 1165 l 1
 933 771.899 l 1
 1297.74 768.913 1516 697.587 1516 347 c 0
 1516 54.7676 1304.15 -24 1139 -24 c 0
 1029.38 -24 881.814 -4.84668 823.847 108.229 c 1
 767.629 58.4492 640.935 -24 448 -24 c 0
 171.052 -24 -22 115.837 -22 405 c 0
668 772 m 1
 668 1165 l 1
 388 1165 l 1
 388 772 l 1
 668 772 l 1
933 304 m 2
 933 194.795 964.4 127 1090 127 c 0
 1146.41 127 1264.28 156.421 1267 343.182 c 1
 1267 586.849 1152.69 617.962 933 619.896 c 1
 933 304 l 2
317 620 m 2
 259.681 620 128 569.913 128 380 c 0
 128 228.2 200.422 127 415 127 c 0
 536.891 127 665.42 224.05 667.003 295.277 c 1
 667 620 l 1
 317 620 l 2
EndSplineSet
EndChar

StartChar: u0B95_u0BBF
Encoding: 116 -1 116
Width: 2093
GlyphClass: 1
Flags: HW
AnchorPoint: "V" 731.5 2090.26 basechar 0
AnchorPoint: "N" 731.5 9.92431 basechar 0
LayerCount: 2
Back
Fore
SplineSet
952 2105 m 0
 1415.56 2105 1830 1939.8 1830 1279 c 2
 1830 -25 l 1
 1695 -25 l 1
 1695 1296 l 2
 1695 1620.6 1368.8 1837 954 1837 c 0
 254.159 1837 130 1490.2 130 1259 c 0
 130 1107.59 170.647 961.321 240 867.38 c 1
 240 1317 l 1
 1221 1317 l 1
 1221 1167 l 1
 934 1167 l 1
 934 773.895 l 1
 1297.48 770.77 1518 696.613 1518 351 c 0
 1518 58.7676 1306.15 -20 1141 -20 c 0
 1031.38 -20 883.814 -0.84668 825.847 112.229 c 1
 769.629 62.4492 642.935 -20 450 -20 c 0
 173.052 -20 -20 119.837 -20 409 c 0
 -20 587.641 77.5186 690.902 163.085 737.601 c 1
 29.3711 865.777 -21 1046.13 -21 1246 c 0
 -21 1639.01 195.41 2105 952 2105 c 0
668 774 m 1
 668 1167 l 1
 388 1167 l 1
 388 774 l 1
 668 774 l 1
933 306 m 2
 933 196.795 964.4 129 1090 129 c 0
 1158.98 129 1267 180.691 1267 364 c 0
 1267 593.313 1134.98 620.151 933 621.899 c 1
 933 306 l 2
317 622 m 2
 259.681 622 128 571.913 128 382 c 0
 128 230.2 200.422 129 415 129 c 0
 536.891 129 665.42 226.05 667.003 297.277 c 1
 667 622 l 1
 317 622 l 2
EndSplineSet
Ligature2: "sub_ligature_pststaml_0-0 subtable" u0B95 u0BBF
LCarets2: 1 0
EndChar

StartChar: u0B95_u0BC0
Encoding: 117 -1 117
Width: 1778
GlyphClass: 1
Flags: HW
AnchorPoint: "V" 731.5 2157.76 basechar 0
AnchorPoint: "N" 731.5 9.92431 basechar 0
LayerCount: 2
Back
Fore
SplineSet
947 1723 m 0
 947 1627.29 1019.51 1563 1099 1563 c 0
 1192.88 1563 1263 1639.49 1263 1726 c 0
 1263 1811.13 1204.25 1900.75 1089.41 1901.99 c 1
 1004.28 1884.38 947 1812 947 1723 c 0
667 773 m 1
 667 1166 l 1
 387 1166 l 1
 387 773 l 1
 667 773 l 1
932 305 m 2
 932 195.795 963.4 128 1089 128 c 0
 1159.8 128 1266 166.775 1266 344 c 0
 1266 599.119 1137.89 619.729 932 620.935 c 1
 932 305 l 2
316 621 m 2
 258.681 621 127 570.913 127 381 c 0
 127 229.2 199.422 128 414 128 c 0
 535.891 128 664.42 225.05 666.003 296.277 c 1
 666 621 l 1
 316 621 l 2
-26 408 m 0
 -26 561.743 48.0391 677.552 157.915 735.771 c 1
 24.3281 863.937 -26 1044.21 -26 1244 c 4
 -26 1798.74 371.059 2173 918 2173 c 4
 1163.12 2173 1478 2089.8 1478 1757 c 0
 1478 1560.9 1334.12 1422 1123 1422 c 0
 894.211 1422 798 1587.48 798 1725 c 0
 798 1805.79 827.679 1893.69 882.874 1952.46 c 1
 868.335 1953.47 854.043 1954 840 1954 c 0
 383.505 1954 124 1565.76 124 1258 c 0
 124 1106.59 164.647 960.321 234 866.38 c 1
 234 1316 l 1
 1215 1316 l 1
 1215 1166 l 1
 928 1166 l 1
 928 772.895 l 1
 1291.48 769.77 1512 695.613 1512 350 c 0
 1512 57.7676 1300.15 -21 1135 -21 c 0
 1025.38 -21 877.814 -1.84668 819.847 111.229 c 1
 763.629 61.4492 636.935 -21 444 -21 c 0
 167.052 -21 -26 118.837 -26 408 c 0
EndSplineSet
Ligature2: "sub_ligature_pststaml_0-0 subtable" u0B95 u0BC0
LCarets2: 1 0
EndChar

StartChar: u0B95_u0BC1
Encoding: 118 -1 118
Width: 2251
GlyphClass: 2
Flags: HW
AnchorPoint: "V" 1125 1316 basechar 0
AnchorPoint: "N" 1125 -700 basechar 0
LayerCount: 2
Back
Fore
SplineSet
128 423 m 0
 128 -71.3193 413.179 -445 952 -445 c 0
 1569.6 -445 1724 -142.818 1724 295 c 0
 1724 491.31 1645.48 612.353 1390 619.65 c 1
 1390 304 l 2
 1390 171.344 1203.97 -23 905 -23 c 0
 627.645 -23 438 117.093 438 406 c 0
 438 636.869 606.588 747.623 697 766.172 c 1
 697 1316 l 1
 1679 1316 l 1
 1679 1166 l 1
 1392 1166 l 1
 1392 772.855 l 1
 1751.87 768.626 1990 670.336 1990 302 c 0
 1990 -127.301 1851.84 -338.461 1600.87 -474.003 c 0
 1494.34 -531.536 1310.09 -594 978 -594 c 0
 336.413 -594 -21 -224.224 -21 432 c 0
 -21 662.977 33.9326 1083.08 279.082 1308.41 c 2
 295.867 1323.83 l 1
 395.262 1233.91 l 1
 376.678 1215.32 l 2
 168.478 1007.12 128 650.474 128 423 c 0
1124 772 m 1
 1124 1165 l 1
 846 1165 l 1
 846 772 l 1
 1124 772 l 1
774 622 m 2
 747.456 622 587 598.846 587 383 c 0
 587 231.2 659.422 130 874 130 c 0
 988.121 130 1124 218.481 1124 297 c 2
 1124 622 l 1
 774 622 l 2
EndSplineSet
Ligature2: "sub_ligature_pststaml_6 subtable" u0B95 u0BC1
LCarets2: 1 0
EndChar

StartChar: u0B95_u0BC2.old
Encoding: 119 -1 119
Width: 2695
Flags: HW
AnchorPoint: "V" 731.5 1292 basechar 0
AnchorPoint: "N" 731.5 9.92431 basechar 0
LayerCount: 2
Back
Fore
SplineSet
5 407 m 0
 5 652 201 745 266 745 c 1
 266 1292 l 1
 1197 1292 l 1
 1197 1192 l 1
 910 1192 l 1
 910 749 l 1
 1262 749 l 2
 1287 749 1360 733 1376 659 c 1
 1421 732 1545 768 1749 768 c 0
 1921 768 2162 684 2162 437 c 0
 2162 279 2047 167 1949 102 c 1
 2408 102 l 1
 2408 2 l 1
 1654 2 l 1
 1654 102 l 1
 1829 199 1917 305 1917 422 c 0
 1917 557 1806 647 1675 647 c 0
 1522 647 1427 594 1408 520 c 1
 1408 1 l 1
 1193 1 l 1
 1193 646 l 1
 909 646 l 1
 909 305 l 2
 909 146 676 3 450 3 c 0
 188 3 5 131 5 407 c 0
694 749 m 1
 694 1192 l 1
 364 1192 l 1
 364 749 l 1
 694 749 l 1
319 649 m 2
 250 649 105 590 105 384 c 0
 105 199 209 106 417 106 c 0
 547 106 692 209 694 299 c 1
 694 649 l 1
 319 649 l 2
EndSplineSet
EndChar

StartChar: u0B95_u0BCD
Encoding: 120 -1 120
Width: 1778
GlyphClass: 2
Flags: HW
AnchorPoint: "N" 731.5 9.92431 basechar 0
LayerCount: 2
Back
Fore
SplineSet
730 1856 m 0
 835.294 1856 917.845 1774.37 918.999 1668.14 c 1
 918.999 1563.95 832.931 1480 731 1480 c 0
 628.791 1480 544 1564.97 544 1668 c 0
 544 1776.06 631.512 1856 730 1856 c 0
-24 405 m 0
 -24 641.099 147.513 747.293 237 765.223 c 1
 237 1315 l 1
 1218 1315 l 1
 1218 1165 l 1
 931 1165 l 1
 931 771.898 l 1
 1299.52 768.848 1514 695.425 1514 350.955 c 1
 1512.95 55.1777 1303.48 -24 1137 -24 c 0
 1027.38 -24 879.814 -4.84668 821.847 108.229 c 1
 765.629 58.4492 638.935 -24 446 -24 c 0
 169.052 -24 -24 115.837 -24 405 c 0
666 772 m 1
 666 1165 l 1
 386 1165 l 1
 386 772 l 1
 666 772 l 1
931 304 m 2
 931 194.795 962.4 127 1088 127 c 0
 1159.84 127 1265 166.322 1265 357 c 0
 1265 588.832 1138.47 618.009 931 619.894 c 1
 931 304 l 2
315 620 m 2
 257.681 620 126 569.913 126 380 c 0
 126 228.2 198.422 127 413 127 c 0
 534.891 127 663.42 224.05 665.003 295.277 c 1
 665 620 l 1
 315 620 l 2
EndSplineSet
Validated: 1
Ligature2: "pstspostbasesubstitution subtable" u0B95 u0BCD
LCarets2: 1 0
EndChar

StartChar: u0B99
Encoding: 121 2969 121
Width: 2007
GlyphClass: 1
Flags: HW
AnchorPoint: "V" 856.5 1312 basechar 0
AnchorPoint: "N" 856.5 0 basechar 0
LayerCount: 2
Back
Fore
SplineSet
1215 462 m 0
 1215 296.876 1162.64 180.848 1077.21 111 c 1
 1496 111 l 1
 1496 1315 l 1
 1746 1315 l 1
 1746 -25 l 1
 405 -25 l 1
 405 111 l 1
 758.177 111 l 1
 937.778 184.469 964 379.435 964 473 c 0
 964 645.97 850.74 688 791 688 c 0
 749.406 688 690.641 666.941 671 595.738 c 1
 671 345 l 1
 406 345 l 1
 406 1162 l 1
 128 1162 l 1
 128 -28 l 1
 -22 -28 l 1
 -22 1312 l 1
 960 1312 l 1
 960 1162 l 1
 673 1162 l 1
 673 822.598 l 1
 717.727 856.619 773.881 874 842 874 c 0
 1002.2 874 1215 749.424 1215 462 c 0
EndSplineSet
EndChar

StartChar: u0B99_u0BBF
Encoding: 122 -1 122
Width: 2279
GlyphClass: 2
Flags: HW
AnchorPoint: "V" 856.5 1314 basechar 0
AnchorPoint: "N" 856.5 0 basechar 0
LayerCount: 2
Back
Fore
SplineSet
1560 2060 m 0
 1926.4 2060 2018 1790.61 2018 1480 c 2
 2018 -25 l 1
 1882 -25 l 1
 1882 1447 l 2
 1882 1690.89 1796.97 1809 1557 1809 c 0
 1411.73 1809 1259 1723.51 1259 1517 c 0
 1259 1329.27 1360.08 1279.13 1451 1271.96 c 1
 1451 1317 l 1
 1701 1317 l 1
 1701 -23 l 1
 404 -23 l 1
 404 113 l 1
 757.177 113 l 1
 936.778 186.469 963 381.435 963 475 c 0
 963 647.97 849.74 690 790 690 c 0
 748.406 690 689.641 668.941 670 597.738 c 1
 670 347 l 1
 405 347 l 1
 405 1164 l 1
 127 1164 l 1
 127 -26 l 1
 -23 -26 l 1
 -23 1314 l 1
 959 1314 l 1
 959 1164 l 1
 672 1164 l 1
 672 824.598 l 1
 716.727 858.619 772.881 876 841 876 c 0
 1001.2 876 1214 751.424 1214 464 c 0
 1214 298.876 1161.64 182.848 1076.21 113 c 1
 1452 113 l 1
 1452 1120.74 l 1
 1289.99 1130.35 1095 1235.32 1095 1554 c 0
 1095 1868.6 1259.81 2060 1560 2060 c 0
EndSplineSet
Ligature2: "sub_ligature_pststaml_2 subtable" u0B99 u0BBF
LCarets2: 1 0
EndChar

StartChar: u0B99_u0BC0
Encoding: 123 -1 123
Width: 2279
GlyphClass: 2
Flags: HW
AnchorPoint: "V" 856.5 1312 basechar 0
AnchorPoint: "N" 856.5 0 basechar 0
LayerCount: 2
Back
Fore
SplineSet
1216 462 m 0
 1216 296.876 1163.64 180.848 1078.21 111 c 1
 1495 111 l 1
 1495 1111.33 l 1
 1341.17 1127.64 1195 1293.33 1195 1555 c 0
 1195 1990.81 1562.03 2103 1771 2103 c 0
 1914.42 2103 2042.9 2073.15 2155.9 2011.99 c 128
 2272.86 1948.68 2332 1839.86 2332 1687 c 0
 2332 1490.9 2188.12 1352 1977 1352 c 0
 1748.21 1352 1652 1517.48 1652 1655 c 0
 1652 1728.79 1679.38 1821.57 1735.95 1881.6 c 1
 1722.28 1882.51 1708.94 1883 1696 1883 c 0
 1489.17 1883 1358 1684.14 1358 1521 c 0
 1358 1331.53 1433.46 1251.16 1496 1234.42 c 1
 1496 1315 l 1
 1760 1315 l 1
 1760 -25 l 1
 406 -25 l 1
 406 111 l 1
 759.177 111 l 1
 938.778 184.469 965 379.435 965 473 c 0
 965 645.97 851.74 688 792 688 c 0
 750.406 688 691.641 666.941 672 595.738 c 1
 672 345 l 1
 407 345 l 1
 407 1162 l 1
 129 1162 l 1
 129 -28 l 1
 -21 -28 l 1
 -21 1312 l 1
 961 1312 l 1
 961 1162 l 1
 674 1162 l 1
 674 822.598 l 1
 718.727 856.619 774.881 874 843 874 c 0
 1003.2 874 1216 749.424 1216 462 c 0
1800 1654 m 0
 1800 1566.26 1864.95 1493 1952 1493 c 0
 2036.74 1493 2115.41 1556.46 2115 1652.9 c 0
 2114.51 1768.84 2032.66 1829.83 1943.58 1830.98 c 1
 1861.16 1812.74 1800 1746.39 1800 1654 c 0
EndSplineSet
Ligature2: "sub_ligature_pststaml_4 subtable" u0B99 u0BC0
LCarets2: 1 0
EndChar

StartChar: u0B99_u0BC1
Encoding: 124 -1 124
Width: 2007
GlyphClass: 2
Flags: HW
AnchorPoint: "V" 856.5 1312 basechar 0
AnchorPoint: "N" 856.5 0 basechar 0
LayerCount: 2
Back
Fore
SplineSet
1215 462 m 0
 1215 296.876 1162.64 180.848 1077.21 111 c 1
 1496 111 l 1
 1496 1315 l 1
 1746.04 1315 l 1
 1742.96 -412 l 1
 1495 -412 l 1
 1495 -25 l 1
 405 -25 l 1
 405 111 l 1
 758.177 111 l 1
 937.778 184.469 964 379.435 964 473 c 0
 964 645.97 850.74 688 791 688 c 0
 749.406 688 690.641 666.941 671 595.738 c 1
 671 345 l 1
 406 345 l 1
 406 1162 l 1
 128 1162 l 1
 128 -28 l 1
 -22 -28 l 1
 -22 1312 l 1
 960 1312 l 1
 960 1162 l 1
 673 1162 l 1
 673 822.598 l 1
 717.727 856.619 773.881 874 842 874 c 0
 1002.2 874 1215 749.424 1215 462 c 0
EndSplineSet
Ligature2: "sub_ligature_pststaml_6 subtable" u0B99 u0BC1
LCarets2: 1 0
EndChar

StartChar: u0B99_u0BC2
Encoding: 125 -1 125
Width: 2653
GlyphClass: 2
Flags: HW
AnchorPoint: "V" 1200 1281 basechar 0
AnchorPoint: "N" 1200 -850 basechar 0
LayerCount: 2
Back
Fore
SplineSet
505 -371 m 0
 505 -178.018 618.667 -67 825 -67 c 0
 1073.6 -67 1147 -233.498 1147 -368 c 0
 1147 -459.081 1103.77 -544.812 1036.78 -596.094 c 1
 1070.82 -611.264 1111.37 -616 1174 -616 c 0
 1439.33 -616 1728.26 -510.361 1848.91 -408.869 c 0
 1968.43 -308.318 2057 -145.73 2057 14 c 0
 2057 114.525 1955.58 210 1880 210 c 0
 1835.46 210 1769.11 195.717 1747 133.888 c 1
 1747 -341 l 1
 1497 -341 l 1
 1497 -25 l 1
 407 -25 l 1
 407 111 l 1
 760.177 111 l 1
 939.778 184.469 966 379.435 966 473 c 0
 966 645.97 852.74 688 793 688 c 0
 751.406 688 692.641 666.941 673 595.738 c 1
 673 345 l 1
 408 345 l 1
 408 1162 l 1
 130 1162 l 1
 130 -28 l 1
 -20 -28 l 1
 -20 1312 l 1
 962 1312 l 1
 962 1162 l 1
 675 1162 l 1
 675 822.598 l 1
 719.727 856.619 775.881 874 844 874 c 0
 1004.2 874 1217 749.424 1217 462 c 0
 1217 296.876 1164.64 180.848 1079.21 111 c 1
 1498 111 l 1
 1498 1315 l 1
 1748 1315 l 1
 1748 334.678 l 1
 1798.44 378.427 1869.17 402 1946 402 c 0
 2093.47 402 2346 267.85 2346 1 c 0
 2346 -120.506 2302.35 -355.192 2009.12 -555.63 c 0
 1875.78 -646.778 1606.68 -756 1167 -756 c 0
 602.183 -756 505 -527.975 505 -371 c 0
959 -363 m 0
 959 -268.07 893.729 -203 807 -203 c 0
 715.616 -203 644 -275.958 644 -363 c 0
 644 -468.578 715.1 -539.767 815.374 -540.984 c 1
 884.479 -525.36 959 -470.442 959 -363 c 0
EndSplineSet
Ligature2: "sub_ligature_pststaml_8 subtable" u0B99 u0BC2
LCarets2: 1 0
EndChar

StartChar: u0B99_u0BCD
Encoding: 126 -1 126
Width: 1950
GlyphClass: 2
Flags: HW
AnchorPoint: "N" 856.5 0 basechar 0
LayerCount: 2
Back
Fore
SplineSet
1215 462 m 0
 1215 296.876 1162.64 180.848 1077.21 111 c 1
 1496 111 l 1
 1496 1315 l 1
 1746 1315 l 1
 1746 -25 l 1
 405 -25 l 1
 405 111 l 1
 758.177 111 l 1
 937.778 184.469 964 379.435 964 473 c 0
 964 645.97 850.74 688 791 688 c 0
 749.406 688 690.641 666.941 671 595.738 c 1
 671 345 l 1
 406 345 l 1
 406 1162 l 1
 128 1162 l 1
 128 -28 l 1
 -22 -28 l 1
 -22 1312 l 1
 960 1312 l 1
 960 1162 l 1
 673 1162 l 1
 673 822.598 l 1
 717.727 856.619 773.881 874 842 874 c 0
 1002.2 874 1215 749.424 1215 462 c 0
855 1856 m 0
 959.36 1856 1042.84 1774.57 1044 1668.14 c 1
 1044 1563.95 957.931 1480 856 1480 c 0
 753.791 1480 669 1564.97 669 1668 c 0
 669 1776.06 756.512 1856 855 1856 c 0
EndSplineSet
Validated: 1
Ligature2: "pstspostbasesubstitution subtable" u0B99 u0BCD
LCarets2: 1 0
EndChar

StartChar: u0B9A
Encoding: 127 2970 127
Width: 1491
GlyphClass: 1
Flags: HW
AnchorPoint: "V" 730.5 1316 basechar 0
AnchorPoint: "N" 730.5 12.1328 basechar 0
LayerCount: 2
Back
Fore
SplineSet
-24 406 m 0
 -24 642.099 147.513 748.293 237 766.223 c 1
 237 1316 l 1
 1218 1316 l 1
 1218 1166 l 1
 931 1166 l 1
 931 773 l 1
 1218 773 l 1
 1218 620 l 1
 930 620 l 1
 930 304 l 2
 930 129.338 685.434 -23 446 -23 c 0
 169.052 -23 -24 116.837 -24 406 c 0
667 773 m 1
 667 1166 l 1
 387 1166 l 1
 387 773 l 1
 667 773 l 1
317 623 m 2
 259.681 623 128 572.913 128 383 c 0
 128 231.2 200.422 130 415 130 c 0
 536.891 130 665.42 227.05 667.003 298.277 c 1
 667 623 l 1
 317 623 l 2
EndSplineSet
EndChar

StartChar: u0B9A_u0BBF
Encoding: 128 -1 128
Width: 1821
GlyphClass: 1
Flags: HW
AnchorPoint: "V" 730.5 2103.99 basechar 0
AnchorPoint: "N" 730.5 12.1328 basechar 0
LayerCount: 2
Back
Fore
SplineSet
779 2105 m 0
 1298.21 2105 1546 1781.13 1546 1279 c 2
 1546 -25 l 1
 1409 -25 l 1
 1409 1296 l 2
 1409 1576.02 1165.57 1837 782 1837 c 0
 280.634 1837 129 1554.9 129 1258 c 0
 129 1106.59 169.647 960.321 239 866.38 c 1
 239 1316 l 1
 1220 1316 l 1
 1220 1166 l 1
 933 1166 l 1
 933 773 l 1
 1220 773 l 1
 1220 623 l 1
 933 623 l 1
 933 307 l 2
 933 132.338 688.434 -20 449 -20 c 0
 172.052 -20 -21 119.837 -21 409 c 0
 -21 587.641 76.5186 690.902 162.085 737.601 c 1
 28.3711 865.777 -22 1046.13 -22 1246 c 0
 -22 1593.06 140.892 2105 779 2105 c 0
668 774 m 1
 668 1167 l 1
 388 1167 l 1
 388 774 l 1
 668 774 l 1
318 624 m 2
 260.681 624 129 573.913 129 384 c 0
 129 232.2 201.422 131 416 131 c 0
 537.891 131 666.42 228.05 668.003 299.277 c 1
 668 624 l 1
 318 624 l 2
EndSplineSet
Ligature2: "sub_ligature_pststaml_0-0 subtable" u0B9A u0BBF
LCarets2: 1 0
EndChar

StartChar: u0B95_u0BB7
Encoding: 129 -1 129
Width: 4286
GlyphClass: 2
Flags: HW
HStem: -24 225<1422.6 1640.9> -24 155<228.92 564.72 2414.88 3288 3543 3816.58> 488.017 162.783<3543 3710.11> 534.399 156.895<3143.65 3290> 624 150<390 670 937 1170.17 1324.27 1656.82> 1167 150<390 670 937 1224 1608.36 2015.03 2985.59 3231.6>
VStem: -18 149<225.431 543.561> 243 147<774 1167> 670 267<225.258 621 774 1167> 1170.17 149.03<323.563 621 774 894.262> 1712 264<276.943 569.697> 2313 253<338.648 846.702> 2783 138<838.431 1098.07> 3288 250<-641 -24 131 488.017 691.294 1113.02> 3859 165<168.846 389.934>
AnchorPoint: "V" 2100 1284.61 basechar 0
AnchorPoint: "R" 3249 1188 exit 0
AnchorPoint: "N" 2100 -140 basechar 0
LayerCount: 2
Back
Fore
SplineSet
3160 1318 m 0x57fe
 3468.22 1318 3540 1156 3540 1048 c 2
 3540 650.8 l 1
 3789.45 603.284 4024 507.43 4024 300.937 c 1
 4022.95 92.2158 3900.5 -24 3693 -24 c 2
 3538 -24 l 1
 3538 -641 l 1
 3288 -641 l 1
 3288 -24 l 1
 2029.4 -24 l 1x67fe
 2071.17 18.5186 l 2
 2223.81 173.927 2313 360.207 2313 588 c 0
 2313 927 2121.22 1163 1833 1163 c 0
 1481.07 1163 1338.86 918.991 1324.27 770 c 1
 1596 770 l 2
 1868.22 770 1976 638.8 1976 442 c 0
 1976 198.001 1864.32 -24 1627 -24 c 0
 1357.56 -24 1176.38 154.853 1170.17 621 c 1
 936 621 l 1
 936 305 l 2
 936 130.338 691.434 -22 452 -22 c 0
 175.052 -22 -18 117.837 -18 407 c 0
 -18 643.099 153.513 749.293 243 767.223 c 1
 243 1317 l 1
 1224 1317 l 1
 1224 1167 l 1
 937 1167 l 1
 937 774 l 1
 1182.8 774 l 1x8ffe
 1213.33 945.319 1332.82 1318 1837 1318 c 0
 2414.36 1318 2566 919.018 2566 600 c 0
 2566 415.755 2509.28 261.009 2414.88 131 c 1
 3291 131 l 1
 3291 534.399 l 1
 3020.44 588.73 2783 703.16 2783 947 c 0
 2783 1122.85 2864.35 1318 3160 1318 c 0x57fe
3290 1013 m 2
 3290 1129.8 3181.21 1159 3095 1159 c 0
 2978.63 1159 2921 1074.2 2921 949 c 0
 2921 881.273 2956.85 826.862 3030.43 784.689 c 0
 3102.49 743.386 3188.94 712.106 3290 691.294 c 1x17fe
 3290 1013 l 2
3859 313 m 0
 3859 382.325 3776.6 443.501 3543 488.017 c 1x27fe
 3543 128 l 1
 3701 128 l 2
 3795.8 128 3859 172.9 3859 313 c 0
1538 201 m 0x87fe
 1677.2 201 1712 361.892 1712 438 c 0
 1712 547.8 1662.02 621 1505 621 c 2
 1319.2 621 l 1
 1320.72 522.232 1330.78 400.306 1349.41 350.771 c 0
 1392.7 235.683 1462.55 201 1538 201 c 0x87fe
670 774 m 1x0ffe
 670 1167 l 1
 390 1167 l 1
 390 774 l 1
 670 774 l 1x0ffe
320 624 m 2
 262.681 624 131 573.913 131 384 c 0
 131 232.2 203.422 131 418 131 c 0x4ffe
 539.891 131 668.42 228.05 670.003 299.277 c 1
 670 624 l 1
 320 624 l 2
EndSplineSet
Ligature2: "akhnAkhandinTamillookup9 subtable" u0B95 u0BCD u0BB7
LCarets2: 2 0 0
EndChar

StartChar: u0B95_u0BB7_u0BBF
Encoding: 130 -1 130
Width: 4601
GlyphClass: 2
Flags: HW
AnchorPoint: "V" 2100 1286.89 basechar 0
AnchorPoint: "N" 2100 -140 basechar 0
LayerCount: 2
Back
Fore
SplineSet
1838 1320 m 0
 2415.36 1320 2567 921.018 2567 602 c 0
 2567 417.755 2510.28 263.009 2415.88 133 c 1
 3292 133 l 1
 3292 536.399 l 1
 3021.44 590.73 2784 705.16 2784 949 c 0
 2784 1123.2 2863.83 1316.34 3152.73 1319.95 c 1
 3125.06 1383.19 3102 1480.66 3102 1586 c 0
 3102 1997.29 3422.69 2103 3725 2103 c 0
 4065.91 2103 4339 1980.6 4339 1491 c 2
 4339 -27 l 1
 4204 -27 l 1
 4204 1489 l 2
 4204 1714.86 4068.54 1860 3723 1860 c 0
 3382.58 1860 3263 1704.8 3263 1472 c 0
 3263 1401.7 3282.27 1344.34 3322.07 1295.17 c 1
 3484.68 1251.29 3538 1136.08 3538 1045 c 2
 3538 647.764 l 1
 3786.37 600.066 4025 505.306 4025 300 c 0
 4025 151.521 3952.12 -22 3694 -22 c 2
 3539 -22 l 1
 3539 -639 l 1
 3289 -639 l 1
 3289 -22 l 1
 2030.4 -22 l 1
 2072.17 20.5186 l 2
 2224.81 175.927 2314 362.207 2314 590 c 0
 2314 929 2122.22 1165 1834 1165 c 0
 1482.07 1165 1339.86 920.991 1325.27 772 c 1
 1597 772 l 2
 1869.22 772 1977 640.8 1977 444 c 0
 1977 200.001 1865.32 -22 1628 -22 c 0
 1358.56 -22 1177.38 156.853 1171.17 623 c 1
 937 623 l 1
 937 307 l 2
 937 132.338 692.434 -20 453 -20 c 0
 176.052 -20 -17 119.837 -17 409 c 0
 -17 645.099 154.513 751.293 244 769.223 c 1
 244 1319 l 1
 1225 1319 l 1
 1225 1169 l 1
 938 1169 l 1
 938 776 l 1
 1183.8 776 l 1
 1214.33 947.319 1333.82 1320 1838 1320 c 0
317 619 m 2
 259.681 619 128 568.913 128 379 c 0
 128 227.2 200.422 126 415 126 c 0
 536.891 126 665.42 223.05 667.003 294.277 c 1
 667 619 l 1
 317 619 l 2
667 769 m 1
 667 1162 l 1
 387 1162 l 1
 387 769 l 1
 667 769 l 1
1316.13 616 m 1
 1318.94 349.18 1368.36 196 1535 196 c 0
 1674.2 196 1709 356.892 1709 433 c 0
 1709 542.8 1653.59 616 1502 616 c 2
 1316.13 616 l 1
3856 308 m 0
 3856 377.325 3773.6 438.501 3540 483.017 c 1
 3540 123 l 1
 3698 123 l 2
 3792.8 123 3856 167.9 3856 308 c 0
3287 1008 m 2
 3287 1124.8 3178.21 1154 3092 1154 c 0
 2975.63 1154 2918 1069.2 2918 944 c 0
 2918 794.892 3120.1 721.406 3287 686.454 c 1
 3287 1008 l 2
EndSplineSet
Ligature2: "sub_ligature_pststaml_2 subtable" u0B95_u0BB7 u0BBF
Ligature2: "akhnligs subtable" u0B95_u0BB7 u0BBF
LCarets2: 1 0
EndChar

StartChar: u0B95_u0BB7_u0BC0
Encoding: 131 -1 131
Width: 4286
GlyphClass: 2
Flags: HW
AnchorPoint: "V" 2100 1284.61 basechar 0
AnchorPoint: "N" 2100 -140 basechar 0
LayerCount: 2
Back
Fore
SplineSet
3081 1593 m 0
 3081 1483.93 3136.14 1383.57 3208.59 1317.9 c 1
 3391.78 1314.3 3541 1207.64 3541 1049 c 2
 3541 651.801 l 1
 3798.76 602.768 4024 507.019 4024 298 c 0
 4024 149.521 3951.12 -24 3693 -24 c 2
 3538 -24 l 1
 3538 -641 l 1
 3288 -641 l 1
 3288 -24 l 1
 2029.4 -24 l 1
 2071.17 18.5186 l 2
 2223.81 173.927 2313 360.207 2313 588 c 0
 2313 927 2121.22 1163 1833 1163 c 0
 1481.07 1163 1338.86 918.991 1324.27 770 c 1
 1596 770 l 2
 1868.22 770 1976 638.8 1976 442 c 0
 1976 198.001 1864.32 -24 1627 -24 c 0
 1357.56 -24 1176.38 154.853 1170.17 621 c 1
 936 621 l 1
 936 305 l 2
 936 130.338 691.434 -22 452 -22 c 0
 175.052 -22 -18 117.837 -18 407 c 0
 -18 643.099 153.513 749.293 243 767.223 c 1
 243 1317 l 1
 1224 1317 l 1
 1224 1167 l 1
 937 1167 l 1
 937 774 l 1
 1182.8 774 l 1
 1213.33 945.319 1332.82 1318 1837 1318 c 0
 2414.36 1318 2566 919.018 2566 600 c 0
 2566 415.755 2509.28 261.009 2414.88 131 c 1
 3291 131 l 1
 3291 534.399 l 1
 3020.44 588.73 2783 703.16 2783 947 c 0
 2783 1151.18 2892.13 1286.73 3058.46 1311.81 c 1
 2988.32 1385.61 2917 1495.06 2917 1628 c 0
 2917 2020.23 3200.15 2177 3466 2177 c 0
 3578.76 2177 3717.06 2159.1 3850.99 2085.94 c 128
 3929.35 2043.13 4026 1955.96 4026 1761 c 0
 4026 1566.01 3883.32 1426 3673 1426 c 0
 3444.31 1426 3348 1589.5 3348 1729 c 0
 3348 1808.17 3378.01 1897.22 3432.06 1954.58 c 1
 3418.15 1955.51 3404.46 1956 3391 1956 c 0
 3173.63 1956 3081 1737.65 3081 1593 c 0
3494 1729 m 0
 3494 1641.26 3558.95 1568 3646 1568 c 0
 3730.74 1568 3809.42 1631.45 3809 1727.89 c 0
 3808.55 1829.54 3741.88 1905.79 3637.48 1906.99 c 1
 3555.51 1889.52 3494 1821.37 3494 1729 c 0
3292 1014 m 2
 3292 1130.8 3183.21 1160 3097 1160 c 0
 2980.63 1160 2923 1075.2 2923 950 c 0
 2923 800.892 3125.1 727.406 3292 692.454 c 1
 3292 1014 l 2
3861 314 m 0
 3861 383.325 3778.6 444.501 3545 489.017 c 1
 3545 129 l 1
 3703 129 l 2
 3797.8 129 3861 173.9 3861 314 c 0
1321.15 622 m 1
 1325.21 287.613 1411.74 202 1540 202 c 0
 1679.2 202 1714 365.678 1714 439 c 0
 1714 548.8 1664.02 622 1507 622 c 2
 1321.15 622 l 1
672 775 m 1
 672 1168 l 1
 392 1168 l 1
 392 775 l 1
 672 775 l 1
322 625 m 2
 264.681 625 133 574.913 133 385 c 0
 133 233.2 205.422 132 420 132 c 0
 541.891 132 670.42 229.05 672.003 300.277 c 1
 672 625 l 1
 322 625 l 2
EndSplineSet
Ligature2: "sub_ligature_pststaml_4 subtable" u0B9A u0BB7 u0BC0
Ligature2: "akhnligs subtable" u0B95_u0BB7 u0BC0
LCarets2: 2 0 0
EndChar

StartChar: u0B95_u0BB7_u0BCD
Encoding: 132 -1 132
Width: 4286
GlyphClass: 2
Flags: HW
AnchorPoint: "N" 2100 -140 basechar 0
LayerCount: 2
Back
Fore
SplineSet
3160 1318 m 0
 3468.22 1318 3540 1156 3540 1048 c 2
 3540 650.8 l 1
 3789.45 603.284 4024 507.43 4024 300.937 c 1
 4022.95 92.2158 3900.5 -24 3693 -24 c 2
 3538 -24 l 1
 3538 -641 l 1
 3288 -641 l 1
 3288 -24 l 1
 2029.4 -24 l 1
 2071.17 18.5186 l 2
 2223.81 173.927 2313 360.207 2313 588 c 0
 2313 927 2121.22 1163 1833 1163 c 0
 1481.07 1163 1338.86 918.991 1324.27 770 c 1
 1596 770 l 2
 1868.22 770 1976 638.8 1976 442 c 0
 1976 198.001 1864.32 -24 1627 -24 c 0
 1357.56 -24 1176.38 154.853 1170.17 621 c 1
 936 621 l 1
 936 305 l 2
 936 130.338 691.434 -22 452 -22 c 0
 175.052 -22 -18 117.837 -18 407 c 0
 -18 643.099 153.513 749.293 243 767.223 c 1
 243 1317 l 1
 1224 1317 l 1
 1224 1167 l 1
 937 1167 l 1
 937 774 l 1
 1182.8 774 l 1
 1213.33 945.319 1332.82 1318 1837 1318 c 0
 2414.36 1318 2566 919.018 2566 600 c 0
 2566 415.755 2509.28 261.009 2414.88 131 c 1
 3291 131 l 1
 3291 534.399 l 1
 3020.44 588.73 2783 703.16 2783 947 c 0
 2783 1122.85 2864.35 1318 3160 1318 c 0
3290 1013 m 2
 3290 1129.8 3181.21 1159 3095 1159 c 0
 2978.63 1159 2921 1074.2 2921 949 c 0
 2921 817.223 3074.55 742 3249.57 701.37 c 129
 3290 692.261 l 1
 3290 1013 l 2
3859 313 m 0
 3859 382.325 3776.6 443.501 3543 488.017 c 1
 3543 128 l 1
 3701 128 l 2
 3795.8 128 3859 172.9 3859 313 c 0
1538 201 m 0
 1677.2 201 1712 366.649 1712 438 c 0
 1712 547.8 1662.02 621 1505 621 c 2
 1319.2 621 l 1
 1320.72 522.232 1330.78 400.306 1349.41 350.771 c 0
 1392.7 235.683 1462.55 201 1538 201 c 0
670 774 m 1
 670 1167 l 1
 390 1167 l 1
 390 774 l 1
 670 774 l 1
320 624 m 2
 262.681 624 131 573.913 131 384 c 0
 131 232.2 203.422 131 418 131 c 0
 539.891 131 668.42 228.05 670.003 299.277 c 1
 670 624 l 1
 320 624 l 2
2333 1673 m 0
 2333 1774.62 2410 1861 2519 1861 c 0
 2627.11 1861 2707 1773.19 2707 1673 c 0
 2707 1568.81 2620.93 1485 2519 1485 c 128
 2418.45 1485 2333 1566.27 2333 1673 c 0
EndSplineSet
Validated: 1
Ligature2: "pstspostbasesubstitution subtable" u0B9A u0BB7 u0BCD
Ligature2: "pstspostbasesubstitution subtable" u0B95_u0BB7 u0BCD
Ligature2: "akhnligs subtable" u0B95_u0BB7 u0BCD
LCarets2: 2 0 0
EndChar

StartChar: u0B9A_u0BC0
Encoding: 133 -1 133
Width: 1477
GlyphClass: 1
Flags: HW
AnchorPoint: "V" 730.5 2159.42 basechar 0
AnchorPoint: "N" 730.5 12.1328 basechar 0
LayerCount: 2
Back
Fore
SplineSet
947 1723 m 0
 947 1627.29 1019.51 1563 1099 1563 c 0
 1192.88 1563 1263 1639.49 1263 1726 c 0
 1263 1811.13 1204.25 1900.75 1089.41 1901.99 c 1
 1004.28 1884.38 947 1812 947 1723 c 0
667 773 m 1
 667 1166 l 1
 387 1166 l 1
 387 773 l 1
 667 773 l 1
317 623 m 2
 259.681 623 128 572.913 128 383 c 0
 128 231.2 200.422 130 415 130 c 0
 536.891 130 665.42 227.05 667.003 298.277 c 1
 667 623 l 1
 317 623 l 2
-25 411 m 0
 -25 592.611 75.46 693.974 158.593 738.069 c 1
 25.2471 866.217 -25 1046.37 -25 1246 c 0
 -25 1800.74 372.059 2175 919 2175 c 0
 1031.76 2175 1170.06 2157.1 1303.99 2083.94 c 128
 1382.35 2041.13 1479 1953.96 1479 1759 c 0
 1479 1562.9 1335.12 1424 1124 1424 c 0
 895.211 1424 799 1589.48 799 1727 c 0
 799 1807.79 828.679 1895.69 883.874 1954.46 c 1
 869.335 1955.47 855.043 1956 841 1956 c 0
 384.505 1956 125 1567.76 125 1260 c 0
 125 1108.59 165.647 962.321 235 868.38 c 1
 235 1318 l 1
 1213 1318 l 1
 1213 1168 l 1
 929 1168 l 1
 929 775 l 1
 1213 775 l 1
 1213 625 l 1
 929 625 l 1
 929 309 l 2
 929 134.338 684.434 -18 445 -18 c 0
 168.052 -18 -25 121.837 -25 411 c 0
EndSplineSet
Ligature2: "sub_ligature_pststaml_0-0 subtable" u0B9A u0BC0
LCarets2: 1 0
EndChar

StartChar: u0B9A_u0BC1
Encoding: 134 -1 134
Width: 1950
GlyphClass: 2
Flags: HW
AnchorPoint: "V" 730.5 1318 basechar 0
AnchorPoint: "N" 730.5 12.1328 basechar 0
LayerCount: 2
Back
Fore
SplineSet
666 771 m 1
 666 1164 l 1
 386 1164 l 1
 386 771 l 1
 666 771 l 1
316 621 m 2
 258.681 621 127 570.913 127 381 c 0
 127 229.2 199.422 128 414 128 c 0
 535.891 128 664.42 225.05 666.003 296.277 c 1
 666 621 l 1
 316 621 l 2
-24 408 m 0
 -24 644.099 147.513 750.293 237 768.223 c 1
 237 1318 l 1
 1218 1318 l 1
 1218 1168 l 1
 931 1168 l 1
 931 775 l 1
 1688 775 l 1
 1688 625 l 1
 1431 625 l 1
 1431 -23 l 1
 1164 -23 l 1
 1164 622 l 1
 930 622 l 1
 930 306 l 2
 930 131.338 685.434 -21 446 -21 c 0
 169.052 -21 -24 118.837 -24 408 c 0
EndSplineSet
Ligature2: "sub_ligature_pststaml_6 subtable" u0B9A u0BC1
LCarets2: 1 0
EndChar

StartChar: u0B9A_u0BC2
Encoding: 135 -1 135
Width: 2221
GlyphClass: 2
Flags: HW
AnchorPoint: "V" 110 1281 basechar 0
AnchorPoint: "N" 110 -850 basechar 0
LayerCount: 2
Back
Fore
SplineSet
666 771 m 1
 666 1164 l 1
 386 1164 l 1
 386 771 l 1
 666 771 l 1
316 621 m 2
 258.681 621 127 570.913 127 381 c 0
 127 229.2 199.422 128 414 128 c 0
 535.891 128 664.42 225.05 666.003 296.277 c 1
 666 621 l 1
 316 621 l 2
920 -583 m 0
 1385.25 -583 1696 -276.15 1696 43 c 0
 1696 295.807 1575.4 370 1495 370 c 0
 1470.7 370 1450.16 363.937 1432.88 349.173 c 1
 1428.72 -23 l 1
 1164 -23 l 1
 1164 622 l 1
 930 622 l 1
 930 306 l 2
 930 131.338 685.434 -21 446 -21 c 0
 169.052 -21 -24 118.837 -24 408 c 0
 -24 644.099 147.513 750.293 237 768.223 c 1
 237 1318 l 1
 1218 1318 l 1
 1218 1168 l 1
 931 1168 l 1
 931 775 l 1
 1688 775 l 1
 1688 625 l 1
 1431 625 l 1
 1431 511.647 l 1
 1471.38 536.037 1525.5 549 1574 549 c 0
 1730.87 549 1960 422.72 1960 51 c 0
 1960 -420.6 1555.59 -735 1005 -735 c 0
 330.341 -735 204 -498.6 204 -341 c 0
 204 -178.4 357.436 -70 595 -70 c 0
 788.624 -70 927.093 -144.14 996.957 -208.63 c 2
 1011.55 -222.098 l 1
 958.349 -315.653 l 1
 935.509 -297.622 l 2
 866.018 -242.761 725.397 -192 580 -192 c 0
 480.22 -192 349 -220.2 349 -333 c 0
 349 -533 684.568 -583 920 -583 c 0
EndSplineSet
Ligature2: "sub_ligature_pststaml_8 subtable" u0B9A u0BC2
LCarets2: 1 0
EndChar

StartChar: u0B9A_u0BCD
Encoding: 136 -1 136
Width: 1491
GlyphClass: 2
Flags: HW
AnchorPoint: "N" 730.5 12.1328 basechar 0
LayerCount: 2
Back
Fore
SplineSet
-24 406 m 0
 -24 642.099 147.513 748.293 237 766.223 c 1
 237 1316 l 1
 1218 1316 l 1
 1218 1166 l 1
 931 1166 l 1
 931 773 l 1
 1218.24 773 l 1
 1216.76 620 l 1
 930 620 l 1
 930 304 l 2
 930 129.338 685.434 -23 446 -23 c 0
 169.052 -23 -24 116.837 -24 406 c 0
667 773 m 1
 667 1166 l 1
 387 1166 l 1
 387 773 l 1
 667 773 l 1
317 623 m 2
 259.681 623 128 572.913 128 383 c 0
 128 231.2 200.422 130 415 130 c 0
 536.891 130 665.42 227.05 667.003 298.277 c 1
 667 623 l 1
 317 623 l 2
543 1672 m 0
 543 1783.69 632.234 1860 730 1860 c 0
 838.111 1860 918 1772.19 918 1672 c 0
 918 1567.81 831.931 1484 730 1484 c 0
 627.791 1484 543 1568.97 543 1672 c 0
EndSplineSet
Validated: 1
Ligature2: "pstspostbasesubstitution subtable" u0B9A u0BCD
LCarets2: 1 0
EndChar

StartChar: u0B9C
Encoding: 137 2972 137
Width: 1863
GlyphClass: 1
Flags: HW
HStem: -502 160<329.697 648.996 1038.78 1320.72> -14 163<1097.46 1316.72> 419 176<178.134 350.214> 882 184<172.472 349.921> 1158 152<282.652 632.481 1022.63 1252>
VStem: -25 253<-236.008 61.9016> -22 148.057<650.534 851.099> 384 233<624.2 847.973> 722 250<585 1074.47> 1350 251<-314.073 -43.0099 572.771 1047.37>
AnchorPoint: "V" 854 1281 basechar 0
AnchorPoint: "R" 1265 1245 exit 0
AnchorPoint: "N" 854 -438.554 basechar 0
LayerCount: 2
Back
Fore
SplineSet
1187 -14 m 0xfdc0
 1018.8 -14 890.197 -502 502 -502 c 0
 207.581 -502 -25 -389.293 -25 -80 c 0xfdc0
 -25 186.963 276.409 335.704 688.229 364.938 c 0
 1109.99 394.877 1235.24 398.032 1304.82 570.354 c 0
 1334.22 643.19 1350 739.209 1350 857 c 0
 1350 984.906 1303.6 1160 1118 1160 c 0
 1001.2 1160 972 1018.27 972 971 c 2
 972 585 l 1
 722 585 l 1
 722 955 l 2
 722 1034.21 661.327 1158 470 1158 c 0
 341.285 1158 228.45 1099.83 171.436 1025.39 c 1
 208.147 1048.84 256.999 1066 322 1066 c 0
 520.396 1066 617 890.147 617 739 c 0
 617 535.236 486.068 419 295 419 c 0
 104.8 419 -22 543.967 -22 868 c 0xfbc0
 -22 993.691 27.6416 1099.75 126.696 1184.95 c 0
 239.312 1281.83 379.289 1310 509 1310 c 0
 684.589 1310 810.425 1268.56 872.733 1177.55 c 1
 918.244 1255.19 1001.16 1310 1144 1310 c 0
 1444.48 1310 1602 1126.78 1602 837 c 0
 1602 706.847 1568.29 430.929 1361.34 323.722 c 0
 1358.04 322.01 1313.25 294.968 1263.11 280.032 c 2
 1218.86 266.96 l 1
 1137.49 244.584 983.748 227 792 227 c 0
 298.898 227 228 42.834 228 -75 c 0
 228 -266.101 353.655 -342 469 -342 c 0
 642.307 -342 726.546 -252.053 801.684 -147.431 c 2
 859.623 -66.5166 l 1
 968.626 87.9922 1091.62 149 1257 149 c 0
 1465.15 149 1601 36.2559 1601 -161 c 0
 1601 -312.87 1516.29 -500 1235 -500 c 0
 1151.2 -500 1080.78 -485.598 1023.82 -453.834 c 2
 1005.66 -443.703 l 1
 1045.28 -326.409 l 1
 1068.91 -334.283 l 2
 1095 -342.983 1138.7 -349 1209 -349 c 0
 1325.08 -349 1350 -259.207 1350 -184 c 0
 1350 -50.292 1305.52 -14 1187 -14 c 0xfdc0
270 595 m 0
 363.58 595 384 697.275 384 745 c 0
 384 815.912 332.4 882 255 882 c 0
 202.261 882 160.209 854.97 126.057 797.424 c 1
 127.952 687.521 177.749 595 270 595 c 0
EndSplineSet
EndChar

StartChar: u0B9C_u0BBF
Encoding: 138 -1 138
Width: 2237
GlyphClass: 2
Flags: HW
AnchorPoint: "V" 854 1281 basechar 0
AnchorPoint: "N" 854 -438.554 basechar 0
LayerCount: 2
Back
Fore
SplineSet
272 597 m 0
 363.184 597 384 699.253 384 750 c 0
 384 822.774 332.598 887 257 887 c 0
 204.261 887 162.209 859.985 128.057 802.439 c 1
 129.929 694.312 178.551 597 272 597 c 0
295 425 m 0
 104.8 425 -22 549.967 -22 874 c 0
 -22 1129.73 193.014 1314 509 1314 c 0
 695.39 1314 814.436 1267.97 873.328 1182.08 c 1
 911.475 1243.15 971.67 1283.36 1052.14 1302.08 c 1
 1013.7 1378 995 1473.35 995 1588 c 0
 995 1815.25 1101.83 2105 1503 2105 c 0
 1721.13 2105 1824.1 2014.1 1892.6 1896.59 c 128
 1956.94 1786.22 1973 1625.34 1973 1495 c 2
 1973 -23 l 1
 1837 -23 l 1
 1837 1493 l 2
 1837 1579.79 1818.29 1674.85 1755.91 1759.13 c 128
 1704.68 1828.33 1619.97 1864 1499 1864 c 0
 1224.6 1864 1156 1676.24 1156 1477 c 0
 1156 1421.62 1166.6 1360.4 1203.8 1306.83 c 1
 1385.41 1301.95 1602 1192.12 1602 843 c 0
 1602 261.027 1210.54 233 792 233 c 0
 303.48 233 228 45.541 228 -73 c 0
 228 -262.66 351.996 -341 469 -341 c 0
 650.589 -341 735.391 -228.827 788.084 -158.889 c 130
 869.247 -52.6768 l 129
 935.636 31.627 1038.15 149 1255 149 c 0
 1462.71 149 1599 39.3975 1599 -158 c 0
 1599 -306.48 1517.72 -500 1233 -500 c 0
 1149.2 -500 1078.78 -485.598 1021.82 -453.834 c 2
 1003.66 -443.703 l 1
 1043.28 -326.409 l 1
 1066.91 -334.283 l 2
 1093 -342.983 1136.7 -349 1207 -349 c 0
 1322.55 -349 1348 -256.889 1348 -181 c 0
 1348 -51.6025 1307.79 -14 1185 -14 c 0
 1009.98 -14 898.193 -497 502 -497 c 128
 44.4521 -497 -25 -242.885 -25 -78 c 0
 -25 289.117 498.246 351.3 778.338 369.944 c 128
 1194.73 397.662 1259.05 446.72 1308.45 585.398 c 128
 1336.09 662.983 1350 755.102 1350 863 c 0
 1350 990.476 1303.93 1162 1118 1162 c 0
 1000.92 1162 972 1022.83 972 977 c 2
 972 591 l 1
 722 591 l 1
 722 961 l 2
 722 1040.21 661.327 1164 470 1164 c 0
 338.6 1164 223.747 1103.38 167.939 1026.72 c 1
 205.012 1050.47 254.88 1068 322 1068 c 0
 506.729 1068 617 913.781 617 745 c 0
 617 541.236 486.068 425 295 425 c 0
EndSplineSet
Ligature2: "sub_ligature_pststaml_2 subtable" u0B9C u0BBF
LCarets2: 1 0
EndChar

StartChar: u0B9C_u0BC0
Encoding: 139 -1 139
Width: 1964
GlyphClass: 2
Flags: HW
AnchorPoint: "V" 854 1281 basechar 0
AnchorPoint: "N" 854 -438.554 basechar 0
LayerCount: 2
Back
Fore
SplineSet
1048.56 1302.04 m 1
 975.89 1378.34 909 1493.62 909 1619 c 0
 909 2053.05 1241.89 2167 1458 2167 c 0
 1713.97 2167 2018 2060.95 2018 1751 c 0
 2018 1554.9 1874.12 1416 1663 1416 c 0
 1434.21 1416 1338 1581.48 1338 1719 c 0
 1338 1799.74 1367.64 1887.58 1422.77 1946.36 c 1
 1407.64 1947.43 1393.07 1948 1379 1948 c 0
 1203.85 1948 1070 1784.45 1070 1585 c 128
 1070 1474.44 1111.41 1391.54 1201.84 1308.8 c 1
 1482.95 1300.39 1602 1060.07 1602 837 c 0
 1602 706.847 1568.29 430.929 1361.34 323.722 c 0
 1358.04 322.01 1313.25 294.968 1263.11 280.032 c 130
 1218.86 266.96 l 129
 1137.49 244.584 983.748 227 792 227 c 0
 298.898 227 228 42.834 228 -75 c 0
 228 -266.101 353.655 -342 469 -342 c 0
 642.307 -342 726.546 -252.053 801.684 -147.431 c 130
 859.623 -66.5166 l 129
 968.626 87.9922 1091.62 149 1257 149 c 0
 1465.15 149 1601 36.2559 1601 -161 c 0
 1601 -312.87 1516.29 -500 1235 -500 c 0
 1151.2 -500 1080.78 -485.598 1023.82 -453.834 c 2
 1005.66 -443.703 l 1
 1045.28 -326.409 l 1
 1068.91 -334.283 l 2
 1095 -342.983 1138.7 -349 1209 -349 c 0
 1325.08 -349 1350 -259.207 1350 -184 c 0
 1350 -50.292 1305.52 -14 1187 -14 c 0
 1018.8 -14 890.197 -502 502 -502 c 0
 207.581 -502 -25 -389.293 -25 -80 c 0
 -25 186.963 276.409 335.704 688.229 364.938 c 128
 1109.99 394.877 1235.24 398.032 1304.82 570.354 c 128
 1334.22 643.19 1350 739.209 1350 857 c 0
 1350 984.906 1303.6 1160 1118 1160 c 0
 1001.2 1160 972 1018.27 972 971 c 2
 972 585 l 1
 722 585 l 1
 722 955 l 2
 722 1034.21 661.327 1158 470 1158 c 0
 341.285 1158 228.45 1099.83 171.436 1025.39 c 1
 208.147 1048.84 256.999 1066 322 1066 c 0
 520.396 1066 617 890.147 617 739 c 0
 617 535.236 486.068 419 295 419 c 0
 104.8 419 -22 543.967 -22 868 c 0
 -22 993.691 27.6416 1099.75 126.696 1184.95 c 128
 239.312 1281.83 379.289 1310 509 1310 c 0
 683.887 1310 809.43 1268.89 871.995 1178.64 c 1
 908.386 1242.11 969.504 1285.5 1048.56 1302.04 c 1
270 595 m 0
 363.58 595 384 697.275 384 745 c 0
 384 815.912 332.4 882 255 882 c 0
 202.261 882 160.209 854.97 126.057 797.424 c 1
 127.952 687.521 177.749 595 270 595 c 0
1480 1718 m 0
 1480 1622.29 1552.51 1558 1632 1558 c 0
 1725.88 1558 1796 1634.49 1796 1721 c 0
 1796 1806.13 1737.25 1895.75 1622.41 1896.99 c 1
 1537.28 1879.38 1480 1807 1480 1718 c 0
EndSplineSet
Ligature2: "sub_ligature_pststaml_4 subtable" u0B9C u0BC0
LCarets2: 1 0
EndChar

StartChar: u0B9C_u0BCD
Encoding: 140 -1 140
Width: 1863
GlyphClass: 2
Flags: HW
AnchorPoint: "N" 854 -438.554 basechar 0
LayerCount: 2
Back
Fore
SplineSet
272 597 m 0
 363.184 597 384 699.253 384 750 c 0
 384 822.774 332.598 887 257 887 c 0
 204.261 887 162.209 859.985 128.057 802.439 c 1
 129.929 694.312 178.551 597 272 597 c 0
509 1314 m 0
 695.77 1314 814.906 1267.79 873.673 1181.55 c 1
 951.199 1302.18 1102.96 1317 1167 1317 c 0
 1389.38 1317 1602 1153.36 1602 837 c 0
 1602 264.573 1215.86 233 792 233 c 0
 303.48 233 228 45.541 228 -73 c 0
 228 -262.66 351.996 -341 469 -341 c 0
 650.589 -341 735.391 -228.827 788.084 -158.889 c 130
 869.247 -52.6768 l 129
 935.636 31.627 1038.15 149 1255 149 c 0
 1462.71 149 1599 39.3975 1599 -158 c 0
 1599 -306.48 1517.72 -500 1233 -500 c 0
 1149.2 -500 1078.78 -485.598 1021.82 -453.834 c 2
 1003.66 -443.703 l 1
 1043.28 -326.409 l 1
 1066.91 -334.283 l 2
 1093 -342.983 1136.7 -349 1207 -349 c 0
 1322.55 -349 1348 -256.889 1348 -181 c 0
 1348 -51.6025 1307.79 -14 1185 -14 c 0
 1009.98 -14 898.193 -497 502 -497 c 128
 44.4521 -497 -25 -242.885 -25 -78 c 0
 -25 289.117 498.246 351.3 778.338 369.944 c 128
 1194.73 397.662 1259.05 446.72 1308.45 585.398 c 128
 1336.09 662.983 1350 755.102 1350 863 c 0
 1350 990.476 1303.93 1162 1118 1162 c 0
 1000.92 1162 972 1022.83 972 977 c 2
 972 591 l 1
 722 591 l 1
 722 961 l 2
 722 1040.21 661.327 1164 470 1164 c 0
 338.6 1164 223.747 1103.38 167.939 1026.72 c 1
 205.012 1050.47 254.88 1068 322 1068 c 0
 506.729 1068 617 913.781 617 745 c 0
 617 541.236 486.068 425 295 425 c 0
 104.8 425 -22 549.967 -22 874 c 0
 -22 1129.73 193.014 1314 509 1314 c 0
666 1664 m 0
 666 1768.19 752.069 1852 854 1852 c 128
 958.188 1852 1042 1765.93 1042 1664 c 0
 1042 1566.03 958.777 1476 854 1476 c 0
 756.032 1476 666 1559.22 666 1664 c 0
EndSplineSet
Validated: 1
Ligature2: "pstspostbasesubstitution subtable" u0B9C u0BCD
LCarets2: 1 0
EndChar

StartChar: u0B9E
Encoding: 141 2974 141
Width: 2538
GlyphClass: 1
Flags: HW
AnchorPoint: "V" 1299 1315 basechar 0
AnchorPoint: "N" 1299 -573 basechar 0
LayerCount: 2
Back
Fore
SplineSet
1825 799 m 0
 2133.16 799 2276 552.743 2276 273 c 0
 2276 -361.281 1703.37 -598 1120 -598 c 0
 463.889 -598 -21 -263.858 -21 429 c 0
 -21 659.977 33.9326 1080.08 279.082 1305.41 c 2
 295.867 1320.83 l 1
 395.262 1230.91 l 1
 376.678 1212.32 l 2
 168.478 1004.12 128 647.474 128 420 c 0
 128 -102.182 517.007 -448 1096 -448 c 0
 1840.56 -448 2009 -4 2009 292 c 0
 2009 411.279 1965.42 610 1778 610 c 0
 1705.53 610 1657.96 586.367 1631 539.584 c 1
 1631 -26 l 1
 1367 -26 l 1
 1367 1164 l 1
 985 1164 l 2
 668.662 1164 516.829 967.222 483.944 800.576 c 1
 544.86 846.28 633.097 872 727 872 c 0
 966.359 872 1128 696.248 1128 442 c 0
 1128 203.991 1044.09 -25 779 -25 c 0
 414.2 -25 323 319.615 323 593 c 0
 323 1029.91 568.219 1315 960 1315 c 2
 1920 1315 l 1
 1920 1165 l 1
 1633 1165 l 1
 1633 740.315 l 1
 1683.56 779.565 1755.69 799 1825 799 c 0
472.011 544.979 m 1
 473.288 286.004 589.858 199 690 199 c 0
 802.738 199 860 308.278 860 430 c 0
 860 581.564 753.002 684 663 684 c 128
 545.04 684 491.383 605.926 472.011 544.979 c 1
EndSplineSet
EndChar

StartChar: u0B9E_u0BBF
Encoding: 142 -1 142
Width: 2809
GlyphClass: 2
Flags: HW
AnchorPoint: "V" 1299 1316 basechar 0
AnchorPoint: "N" 1299 -573 basechar 0
LayerCount: 2
Back
Fore
SplineSet
959 1316 m 2
 1449.75 1316 l 1
 1414.11 1399.04 1396 1489.98 1396 1588 c 0
 1396 1892.44 1565.11 2103 1991 2103 c 0
 2448.9 2103 2547 1859.64 2547 1491 c 2
 2547 -25 l 1
 2412 -25 l 1
 2412 1491 l 2
 2412 1787.8 2246.89 1862 1988 1862 c 0
 1668.36 1862 1557 1706.8 1557 1474 c 0
 1557 1412.14 1572.81 1360.41 1604.51 1316 c 1
 1918 1316 l 1
 1918 1166 l 1
 1631 1166 l 1
 1631 784.363 l 1
 1667.99 816.051 1727.16 848 1825 848 c 0
 1986.6 848 2229 687.576 2229 225 c 0
 2229 -104.18 2015.72 -595 1088 -595 c 0
 459.563 -595 -24 -184.404 -24 431 c 0
 -24 661.977 30.9326 1082.08 276.082 1307.41 c 2
 292.867 1322.83 l 1
 392.262 1232.91 l 1
 373.678 1214.32 l 2
 165.478 1006.12 125 649.474 125 422 c 0
 125 -98.7998 588.55 -446 1094 -446 c 0
 1803.49 -446 1978 -29.876 1978 248 c 0
 1978 551.794 1840 652 1748 652 c 0
 1696.66 652 1658.89 631.913 1630 593.864 c 1
 1630 -25 l 1
 1366 -25 l 1
 1366 1165 l 1
 984 1165 l 2
 667.662 1165 515.829 968.222 482.944 801.576 c 1
 543.86 847.28 632.097 873 726 873 c 0
 965.359 873 1127 697.248 1127 443 c 0
 1127 204.991 1043.09 -24 778 -24 c 0
 413.2 -24 322 320.615 322 594 c 0
 322 1030.91 567.219 1316 959 1316 c 2
472.011 540.979 m 1
 473.288 282.004 589.858 195 690 195 c 0
 799.162 195 860.097 299.952 860.097 425.199 c 0
 860.097 428.127 860.005 430.787 860.003 433.727 c 0
 859.94 551.365 771.783 680 663 680 c 128
 545.04 680 491.383 601.926 472.011 540.979 c 1
EndSplineSet
Ligature2: "sub_ligature_pststaml_2 subtable" u0B9E u0BBF
LCarets2: 1 0
EndChar

StartChar: u0B9E_u0BC0
Encoding: 143 -1 143
Width: 2538
GlyphClass: 2
Flags: HW
AnchorPoint: "V" 1299 1963.23 basechar 0
AnchorPoint: "N" 1299 -573 basechar 0
LayerCount: 2
Back
Fore
SplineSet
473.011 542.979 m 1
 474.288 284.004 590.858 197 691 197 c 0
 793 197 861 292.456 861 429 c 0
 861 583.535 752.122 682 664 682 c 0
 546.04 682 492.383 603.926 473.011 542.979 c 1
1780 1722 m 0
 1780 1626.29 1852.51 1562 1932 1562 c 0
 2025.88 1562 2096 1638.49 2096 1725 c 0
 2096 1810.13 2037.25 1899.75 1922.41 1900.99 c 1
 1837.28 1883.38 1780 1811 1780 1722 c 0
1717.31 1953.45 m 1
 1702.7 1954.46 1688.62 1955 1675 1955 c 0
 1499.85 1955 1366 1791.45 1366 1592 c 0
 1366 1459.07 1440.47 1360.38 1486.49 1318 c 1
 1920 1318 l 1
 1920 1166 l 1
 1633 1166 l 1
 1633 741.315 l 1
 1683.56 780.565 1755.69 800 1825 800 c 0
 2120.59 800 2275 547.023 2275 301 c 0
 2275 -350.804 1734.32 -595 1119 -595 c 0
 462.889 -595 -22 -260.858 -22 432 c 0
 -22 662.977 32.9326 1083.08 278.082 1308.41 c 2
 294.867 1323.83 l 1
 394.262 1233.91 l 1
 375.678 1215.32 l 2
 167.478 1007.12 127 650.474 127 423 c 0
 127 -99.1816 516.007 -445 1095 -445 c 0
 1839.56 -445 2008 -1 2008 295 c 0
 2008 420.215 1961.8 613 1777 613 c 0
 1704.53 613 1656.96 589.367 1630 542.584 c 1
 1630 -23 l 1
 1366 -23 l 1
 1366 1167 l 1
 984 1167 l 2
 667.662 1167 515.829 970.222 482.944 803.576 c 1
 543.86 849.28 632.097 875 726 875 c 0
 965.359 875 1127 699.248 1127 445 c 0
 1127 206.991 1043.09 -22 778 -22 c 0
 413.2 -22 322 322.615 322 596 c 0
 322 1032.91 567.219 1318 959 1318 c 2
 1333.23 1318 l 1
 1270.58 1386.76 1204 1496 1204 1627 c 0
 1204 2061 1536.99 2175 1747 2175 c 0
 2004.04 2175 2313 2092 2313 1760 c 0
 2313 1564.05 2170.74 1424 1958 1424 c 0
 1729.21 1424 1633 1589.48 1633 1727 c 0
 1633 1804.23 1663.03 1895.2 1717.31 1953.45 c 1
EndSplineSet
Ligature2: "sub_ligature_pststaml_4 subtable" u0B9E u0BC0
LCarets2: 1 0
EndChar

StartChar: u0B9E_u0BC1
Encoding: 144 -1 144
Width: 3082
GlyphClass: 2
Flags: HW
AnchorPoint: "V" 1400 1315 basechar 0
AnchorPoint: "N" 1400 -850 basechar 0
LayerCount: 2
Back
Fore
SplineSet
1828 799 m 0
 2123.59 799 2278 546.023 2278 300 c 0
 2278 167.726 2253.87 37.8828 2205.81 -89 c 1
 2555 -89 l 1
 2555 1316 l 1
 2820 1316 l 1
 2820 -240 l 1
 2133.19 -240 l 1
 2007.91 -446.308 1719.84 -740 1119 -740 c 0
 338.688 -740 -1.17676 -350.442 -18.8428 -193.802 c 2
 -19 -192.405 l 1
 -19 -191 l 2
 -19 -127.362 20.9756 -90 98 -90 c 2
 1925.26 -90 l 1
 1983.23 33.4229 2012 159.807 2012 292 c 0
 2012 417.215 1965.8 610 1781 610 c 0
 1708.53 610 1660.96 586.367 1634 539.584 c 1
 1634 -26 l 1
 1370 -26 l 1
 1370 1164 l 1
 988 1164 l 2
 671.662 1164 519.829 967.222 486.944 800.576 c 1
 547.86 846.28 636.097 872 730 872 c 0
 969.359 872 1131 696.248 1131 442 c 0
 1131 203.991 1047.09 -25 782 -25 c 0
 417.2 -25 326 319.615 326 593 c 0
 326 1029.91 571.219 1315 963 1315 c 2
 1923 1315 l 1
 1923 1165 l 1
 1636 1165 l 1
 1636 740.315 l 1
 1686.56 779.565 1758.69 799 1828 799 c 0
165.653 -246.819 m 1
 165.642 -258.845 165.734 -246.219 167.029 -249.91 c 0
 190.225 -316.025 470.012 -587.864 1098 -590 c 0
 1272.68 -590.594 1423.15 -554.753 1549.83 -484.162 c 0
 1674.72 -414.564 1766.04 -328.82 1833.78 -241 c 1
 201 -241 l 2
 185 -241 170.736 -243.007 165.653 -246.819 c 1
473.011 542.979 m 1
 474.288 284.004 590.858 197 691 197 c 0
 793 197 861 292.456 861 429 c 0
 861 583.535 752.122 682 664 682 c 0
 546.04 682 492.383 603.926 473.011 542.979 c 1
EndSplineSet
Ligature2: "sub_ligature_pststaml_6 subtable" u0B9E u0BC1
LCarets2: 1 0
EndChar

StartChar: u0B9E_u0BC2
Encoding: 145 -1 145
Width: 3799
GlyphClass: 2
Flags: HW
AnchorPoint: "V" 1400 1318 basechar 0
AnchorPoint: "N" 1400 -850 basechar 0
LayerCount: 2
Back
Fore
SplineSet
2273 303 m 0
 2273 165.377 2250.05 36.3994 2203.29 -84 c 1
 2552 -84 l 1
 2552 1321 l 1
 3534 1321 l 1
 3534 1171 l 1
 3247 1171 l 1
 3247 -234 l 1
 2983 -234 l 1
 2983 1171 l 1
 2703 1171 l 1
 2703 -234 l 1
 2128.25 -234 l 1
 2004.15 -439.845 1716 -733 1117 -733 c 0
 336.688 -733 -3.17676 -343.442 -20.8428 -186.802 c 2
 -21 -185.405 l 1
 -21 -184 l 2
 -21 -120.362 19.0029 -83 96.0273 -83 c 2
 1920.27 -86.9658 l 1
 1978.24 36.4463 2007 162.818 2007 295 c 0
 2007 421.207 1960.8 613 1776 613 c 0
 1703.53 613 1655.96 589.367 1629 542.584 c 1
 1629 -23 l 1
 1365 -23 l 1
 1365 1167 l 1
 983 1167 l 2
 666.662 1167 514.829 970.222 481.944 803.576 c 1
 542.86 849.28 631.097 875 725 875 c 0
 964.359 875 1126 699.248 1126 445 c 0
 1126 206.991 1042.09 -22 777 -22 c 0
 412.2 -22 321 322.615 321 596 c 0
 321 1032.91 566.219 1318 958 1318 c 2
 1918 1318 l 1
 1918 1168 l 1
 1631 1168 l 1
 1631 743.315 l 1
 1681.56 782.565 1753.69 802 1823 802 c 0
 2118.59 802 2273 549.023 2273 303 c 0
149.653 -246.819 m 1
 149.638 -259.248 149.642 -246.323 151.323 -250.782 c 0
 177.431 -320.024 465.863 -585.786 1094 -588 c 0
 1219.57 -588.442 1573.27 -574.86 1833.38 -241 c 1
 185 -241 l 2
 169 -241 154.736 -243.007 149.653 -246.819 c 1
473.011 542.979 m 1
 474.288 284.004 590.858 197 691 197 c 0
 793 197 861 292.456 861 429 c 0
 861 583.535 752.122 682 664 682 c 0
 546.04 682 492.383 603.926 473.011 542.979 c 1
EndSplineSet
Ligature2: "sub_ligature_pststaml_8 subtable" u0B9E u0BC2
LCarets2: 1 0
EndChar

StartChar: u0B9E_u0BCD
Encoding: 146 -1 146
Width: 2494
GlyphClass: 2
Flags: HW
AnchorPoint: "N" 1299 -573 basechar 0
LayerCount: 2
Back
Fore
SplineSet
1825 799 m 0
 2120.51 799 2276 548.162 2276 298 c 0
 2276 -313.499 1794.92 -598 1120 -598 c 0
 463.889 -598 -21 -263.858 -21 429 c 0
 -21 659.977 33.9326 1080.08 279.082 1305.41 c 2
 295.867 1320.83 l 1
 395.262 1230.91 l 1
 376.678 1212.32 l 2
 168.478 1004.12 128 647.474 128 420 c 0
 128 -102.182 517.007 -448 1096 -448 c 0
 1840.56 -448 2009 -4 2009 292 c 0
 2009 417.215 1962.8 610 1778 610 c 0
 1705.53 610 1657.96 586.367 1631 539.584 c 1
 1631 -26 l 1
 1367 -26 l 1
 1367 1164 l 1
 985 1164 l 2
 668.662 1164 516.829 967.222 483.944 800.576 c 1
 544.86 846.28 633.097 872 727 872 c 0
 966.359 872 1128 696.248 1128 442 c 0
 1128 203.991 1044.09 -25 779 -25 c 0
 414.2 -25 323 319.615 323 593 c 0
 323 1029.91 568.219 1315 960 1315 c 2
 1920 1315 l 1
 1920 1165 l 1
 1633 1165 l 1
 1633 740.315 l 1
 1683.56 779.565 1755.69 799 1825 799 c 0
472.011 544.979 m 1
 473.288 286.004 589.858 199 690 199 c 0
 792 199 860 294.456 860 431 c 0
 860 585.535 751.122 684 663 684 c 0
 545.04 684 491.383 605.926 472.011 544.979 c 1
1111 1671 m 0
 1111 1775.19 1197.07 1859 1299 1859 c 128
 1403.19 1859 1487 1772.93 1487 1671 c 0
 1487 1573.03 1403.78 1483 1299 1483 c 0
 1201.03 1483 1111 1566.22 1111 1671 c 0
EndSplineSet
Validated: 1
Ligature2: "pstspostbasesubstitution subtable" u0B9E u0BCD
LCarets2: 1 0
EndChar

StartChar: u0B9F
Encoding: 147 2975 147
Width: 2065
GlyphClass: 1
Flags: HW
AnchorPoint: "V" 913 1281 basechar 0
AnchorPoint: "N" 913 0 basechar 0
LayerCount: 2
Back
Fore
SplineSet
1802 -25 m 1
 -25 -25 l 1
 -25 1315 l 1
 226 1315 l 1
 226 125 l 1
 1802 125 l 1
 1802 -25 l 1
EndSplineSet
EndChar

StartChar: u0B9F_u0BBF
Encoding: 148 -1 148
Width: 1835
GlyphClass: 2
Flags: HW
AnchorPoint: "V" 913 1281 basechar 0
AnchorPoint: "N" 500 -150 basechar 0
LayerCount: 2
Back
Fore
SplineSet
960 1311 m 0
 1217.67 1311 1285 1096.16 1285 969 c 2
 1285 108 l 1
 1573 108 l 1
 1573 -25 l 1
 1286 -25 l 1
 1286 -642 l 1
 1036 -642 l 1
 1036 -25 l 1
 -25 -25 l 1
 -25 1315 l 1
 226 1315 l 1
 226 111 l 1
 807.728 111 l 1
 635.656 263.309 497 525.655 497 802 c 0
 497 1110.28 683.653 1311 960 1311 c 0
1035 983 m 2
 1035 1076.41 955.059 1097 926 1097 c 0
 773 1097 671 959.375 671 737 c 0
 671 461.302 864.036 222.423 1035 124.208 c 1
 1035 983 l 2
EndSplineSet
Ligature2: "sub_ligature_pststaml_2 subtable" u0B9F u0BBF
LCarets2: 1 0
EndChar

StartChar: u0B9F_u0BC0
Encoding: 149 -1 149
Width: 1720
GlyphClass: 2
Flags: HW
AnchorPoint: "V" 913 1281 basechar 0
AnchorPoint: "N" 913 0 basechar 0
LayerCount: 2
Back
Fore
SplineSet
515 400 m 0
 515 234.981 621.331 136.551 655.875 111 c 1
 1458 111 l 1
 1458 -25 l 1
 -25 -25 l 1
 -25 1315 l 1
 226 1315 l 1
 226 111 l 1
 497.811 111 l 1
 431.35 175.965 354 288.619 354 436 c 0
 354 870.406 694.433 983 901 983 c 0
 1013.76 983 1152.06 965.102 1285.99 891.939 c 128
 1364.35 849.131 1461 761.964 1461 567 c 0
 1461 339.156 1277.09 234 1109 234 c 0
 860.138 234 784 418.206 784 535 c 0
 784 609.275 813.752 703.184 868.162 762.611 c 1
 849.967 764.208 835.811 765 826 765 c 0
 627.923 765 515 565.656 515 400 c 0
928 533 m 128
 928 441.284 999.298 373 1080 373 c 0
 1162.75 373 1242.37 434.205 1245 535.326 c 1
 1245 622.523 1186.56 709.74 1071.49 710.986 c 1
 989.517 693.517 928 625.367 928 533 c 128
EndSplineSet
Ligature2: "sub_ligature_pststaml_4 subtable" u0B9F u0BC0
LCarets2: 1 0
EndChar

StartChar: u0B9F_u0BC1
Encoding: 150 -1 150
Width: 2164
GlyphClass: 2
Flags: HW
AnchorPoint: "V" 913 1913.97 basechar 0
AnchorPoint: "N" 913 -625 basechar 0
LayerCount: 2
Back
Fore
SplineSet
921 1914 m 0
 1442.82 1914 1697.7 1627.84 1798.51 1354.51 c 1
 1841.37 1233.72 1882 1038.14 1882 704 c 0
 1882 441.598 1859.89 205.924 1816.49 -5.03809 c 2
 1812.38 -25 l 1
 1674.69 -25 l 1
 1682.8 6.27441 l 2
 1724.12 165.658 1745 352.617 1745 567 c 0
 1745 1201.05 1579.2 1634 916 1634 c 0
 352.98 1634 130 1152.17 130 634 c 0
 130 -245.342 517.799 -385 775 -385 c 0
 1142.67 -385 1293 -21.415 1293 291 c 0
 1293 397.146 1244 609 1048 609 c 0
 966.91 609 914.499 585.768 887 538.556 c 1
 887 -27 l 1
 622 -27 l 1
 622 1313 l 1
 887 1313 l 1
 887 734.245 l 1
 940.361 773.47 1019.85 796 1093 796 c 0
 1405.34 796 1558 521.344 1558 296 c 0
 1558 -225.979 1297.1 -538 797 -538 c 0
 508.069 -538 296.928 -427.171 166.536 -208.817 c 128
 37.2666 7.65723 -26 298.159 -26 660 c 0
 -26 1296.72 219.987 1914 921 1914 c 0
EndSplineSet
Ligature2: "sub_ligature_pststaml_6 subtable" u0B9F u0BC1
LCarets2: 1 0
EndChar

StartChar: u0B9F_u0BC2
Encoding: 151 -1 151
Width: 2150
GlyphClass: 2
Flags: HW
AnchorPoint: "V" 913 1914.12 basechar 0
AnchorPoint: "N" 913 -625 basechar 0
LayerCount: 2
Back
Fore
SplineSet
961 1915 m 0
 1390.44 1915 1718 1511.24 1718 1134 c 2
 1718 1132.59 l 1
 1717.84 1131.19 l 2
 1697.48 951.167 1613.49 795.1 1377.06 775.045 c 1
 1071.17 775.045 1001 975.222 1001 1100 c 0
 1001 1242.61 1088.84 1425 1329 1425 c 0
 1346.59 1425 1362.12 1424.57 1375.67 1423.74 c 1
 1320.92 1591.66 1121.61 1693 927 1693 c 0
 341.392 1693 128 1158.84 128 635 c 0
 128 -244.342 515.799 -384 773 -384 c 0
 1140.67 -384 1291 -20.415 1291 292 c 0
 1291 398.146 1242 610 1046 610 c 0
 964.91 610 912.499 586.768 885 539.556 c 1
 885 -26 l 1
 620 -26 l 1
 620 1314 l 1
 885 1314 l 1
 885 735.245 l 1
 938.361 774.47 1017.85 797 1091 797 c 0
 1403.34 797 1556 522.344 1556 297 c 0
 1556 -138.401 1298.39 -537 795 -537 c 0
 506.069 -537 294.928 -426.171 164.536 -207.817 c 128
 35.2666 8.65723 -28 299.159 -28 661 c 0
 -28 1331.72 240.659 1915 961 1915 c 0
1153 1100 m 0
 1153 1034.41 1181.04 950 1299 950 c 0
 1395.97 950 1466 1004.63 1466 1110 c 0
 1466 1223.66 1410 1265 1326 1265 c 0
 1215.37 1265 1153 1192.39 1153 1100 c 0
EndSplineSet
Ligature2: "sub_ligature_pststaml_8 subtable" u0B9F u0BC2
LCarets2: 1 0
EndChar

StartChar: u0B9F_u0BCD
Encoding: 152 -1 152
Width: 2065
GlyphClass: 2
Flags: HW
AnchorPoint: "N" 913 0 basechar 0
LayerCount: 2
Back
Fore
SplineSet
1803.25 -25 m 1
 -25 -25 l 1
 -25 1315 l 1
 226 1315 l 1
 226 125 l 1
 1801.75 125 l 1
 1803.25 -25 l 1
912 1856 m 0
 1021.04 1856 1100 1767.99 1100 1668 c 0
 1100 1565.17 1016.14 1480 913 1480 c 0
 810.791 1480 726 1564.97 726 1668 c 0
 726 1776.06 813.512 1856 912 1856 c 0
EndSplineSet
Validated: 1
Ligature2: "pstspostbasesubstitution subtable" u0B9F u0BCD
EndChar

StartChar: u0BA3
Encoding: 153 2979 153
Width: 3728
GlyphClass: 1
Flags: HW
AnchorPoint: "V" 1787.5 1315.26 basechar 0
AnchorPoint: "N" 1787.5 119.776 basechar 0
LayerCount: 2
Back
Fore
SplineSet
126.011 541.895 m 1
 127.303 282.957 243.864 196 344 196 c 0
 457.709 196 515.575 306.948 516 436.089 c 0
 516.498 587.455 402.232 681 319 681 c 0
 203.47 681 145.677 601.523 126.011 541.895 c 1
2032 549 m 0
 2032 392.426 2071 129 2227 129 c 0
 2375.92 129 2420 279.977 2420 581 c 0
 2420 740.034 2359.6 896.96 2237.85 1001.7 c 1
 2102.73 888.438 2032 726.971 2032 549 c 0
1084 548 m 0
 1084 391.426 1123 128 1279 128 c 0
 1429.86 128 1473 271.044 1473 581 c 0
 1473 738.986 1412.74 895.085 1290.6 1003.48 c 1
 1163.08 896.808 1084 750.301 1084 548 c 0
1883 551 m 0
 1883 849.408 2026.04 1027.74 2095.45 1098.62 c 1
 2001.77 1142.79 1889.17 1165 1756 1165 c 0
 1654.79 1165 1563.71 1148.53 1482.16 1116.48 c 1
 1644.03 990.883 1737 802.701 1737 581 c 0
 1737 108.555 1577.4 -23 1338 -23 c 0
 1096.2 -23 935 135.636 935 549 c 0
 935 750.096 1001.36 951.187 1151.79 1098.92 c 1
 1058.24 1142.88 945.858 1165 813 1165 c 0
 468.705 1165 237.189 967.421 160.201 814.818 c 1
 220.469 852.444 301.775 875 385 875 c 0
 624.675 875 784 696.108 784 445 c 0
 784 228.066 707.42 -21 407 -21 c 0
 150.2 -21 -21 229.646 -21 596 c 0
 -21 1067.33 382.618 1316 790 1316 c 0
 996.176 1316 1171.16 1284.33 1316.25 1218.86 c 1
 1442.2 1283.99 1581.95 1316 1735 1316 c 0
 1938.22 1316 2114 1283.38 2260.88 1216.1 c 1
 2381.7 1283.24 2522.47 1316 2680 1316 c 2
 3465 1316 l 1
 3465 1166 l 1
 3178 1166 l 1
 3178 -24 l 1
 2913 -24 l 1
 2913 1166 l 1
 2705 1166 l 2
 2608.6 1166 2516.88 1149.42 2429.31 1116.8 c 1
 2597.33 986.578 2686 788.815 2686 583 c 0
 2686 110.555 2526.4 -21 2287 -21 c 0
 2125.4 -21 1883 51.7373 1883 551 c 0
EndSplineSet
EndChar

StartChar: u0BA3_u0BBE.old
Encoding: 155 -1 155
Width: 4029
GlyphClass: 1
Flags: HW
AnchorPoint: "V" 1787.5 1281 basechar 0
AnchorPoint: "N" 1787.5 119.776 basechar 0
LayerCount: 2
Back
Fore
SplineSet
473.011 542.979 m 1
 474.288 284.004 590.858 197 691 197 c 0
 800.162 197 861.097 301.952 861.097 427.199 c 0
 861.097 430.127 861.005 432.787 861.003 435.727 c 0
 860.94 553.365 772.783 682 664 682 c 128
 546.04 682 492.383 603.926 473.011 542.979 c 1
2379 549 m 0
 2379 393.276 2417.8 129 2573 129 c 0
 2687.44 129 2768 200.295 2768 581 c 0
 2768 661.617 2751.9 739.823 2719.08 818.021 c 1
 2686.48 890.276 2642.27 952.002 2584.2 1004.65 c 1
 2475.58 904.446 2379 750.275 2379 549 c 0
1433 550 m 0
 1433 394.276 1471.8 130 1627 130 c 0
 1741.44 130 1822 201.295 1822 582 c 0
 1822 741.92 1760.78 897.944 1638.86 1002.7 c 1
 1503.74 889.433 1433 727.968 1433 550 c 0
2629 -23 m 0
 2387.2 -23 2226 135.75 2226 548 c 0
 2226 769.816 2299.52 953.885 2444.4 1099.64 c 1
 2350.59 1143.78 2237.07 1166 2103 1166 c 0
 2001.96 1166 1911.02 1149.58 1830.27 1117.67 c 1
 1990.3 994.415 2086 804.233 2086 582 c 0
 2086 110.548 1925.6 -22 1685 -22 c 0
 1524.2 -22 1283 53.2988 1283 550 c 0
 1283 751.096 1349.36 952.187 1499.79 1099.92 c 1
 1406.24 1143.88 1293.86 1166 1161 1166 c 0
 823.555 1166 584.597 974.885 505.891 816.25 c 1
 565.345 853.388 644.9 874 729 874 c 0
 968.359 874 1130 698.248 1130 444 c 0
 1130 229.342 1053.63 -23 753 -23 c 0
 496.2 -23 325 227.646 325 594 c 0
 325 1069.35 731.654 1316 1136 1316 c 0
 1342.18 1316 1517.16 1284.33 1662.25 1218.86 c 1
 1788.2 1283.99 1927.95 1316 2081 1316 c 0
 2282.3 1316 2457.02 1284.32 2603.8 1218.99 c 1
 2739.75 1293.89 2876.26 1316 2997 1316 c 0
 3482.27 1316 3767 964.723 3767 543 c 0
 3767 -229.492 3104.43 -738 1905 -738 c 0
 1578.21 -738 1270.14 -702.809 982.877 -630.238 c 128
 694.483 -557.381 454.263 -431.419 264.817 -252.159 c 128
 61.873 -60.126 -22 184.468 -22 461 c 0
 -22 824.659 92.6211 1138.61 280.163 1309.48 c 2
 296.941 1324.77 l 1
 396.262 1234.91 l 1
 377.678 1216.32 l 2
 212.997 1051.64 128 798.215 128 452 c 0
 128 283.964 167.2 109.851 287.711 -44.6221 c 128
 395.061 -182.225 535.516 -289.508 711.32 -369.229 c 0
 1033.25 -515.212 1426.59 -589 1893 -589 c 0
 2849.02 -589 3500 -123.4 3500 575 c 0
 3500 912.158 3302 1164 3005 1164 c 0
 2923.79 1164 2844.83 1148.68 2768.9 1118.46 c 1
 2942.91 982.829 3030 785.778 3030 581 c 0
 3030 109.548 2869.6 -23 2629 -23 c 0
EndSplineSet
EndChar

StartChar: u0BA3_u0BBF
Encoding: 156 -1 156
Width: 4043
GlyphClass: 2
Flags: HW
AnchorPoint: "V" 1787.5 1315.26 basechar 0
AnchorPoint: "N" 1787.5 119.776 basechar 0
LayerCount: 2
Back
Fore
SplineSet
126.011 541.895 m 1
 127.303 282.957 243.864 196 344 196 c 0
 457.709 196 515.575 306.948 516 436.089 c 0
 516.498 587.455 402.232 681 319 681 c 0
 203.47 681 145.677 601.523 126.011 541.895 c 1
2032 549 m 0
 2032 392.426 2071 129 2227 129 c 0
 2375.92 129 2420 279.977 2420 581 c 0
 2420 740.034 2359.6 896.96 2237.85 1001.7 c 1
 2102.73 888.438 2032 726.971 2032 549 c 0
1084 548 m 0
 1084 391.426 1123 128 1279 128 c 0
 1429.86 128 1473 271.044 1473 581 c 0
 1473 738.986 1412.74 895.085 1290.6 1003.48 c 1
 1163.08 896.808 1084 750.301 1084 548 c 0
1881 552 m 0
 1881 851.258 2020.67 1025.84 2094.76 1098.94 c 1
 2001.22 1142.9 1888.84 1165 1756 1165 c 0
 1654.79 1165 1563.71 1148.53 1482.16 1116.48 c 1
 1644.03 990.883 1737 802.701 1737 581 c 0
 1737 108.555 1577.4 -23 1338 -23 c 0
 1096.2 -23 935 135.636 935 549 c 0
 935 750.096 1001.36 951.187 1151.79 1098.92 c 1
 1058.24 1142.88 945.858 1165 813 1165 c 0
 468.705 1165 237.189 967.421 160.201 814.818 c 1
 220.469 852.444 301.775 875 385 875 c 0
 624.675 875 784 696.108 784 445 c 0
 784 228.066 707.42 -21 407 -21 c 0
 150.2 -21 -21 229.646 -21 596 c 0
 -21 1067.33 382.618 1316 790 1316 c 0
 996.176 1316 1171.16 1284.33 1316.25 1218.86 c 1
 1442.2 1283.99 1581.95 1316 1735 1316 c 0
 1938.22 1316 2114 1283.38 2260.88 1216.1 c 1
 2381.7 1283.24 2522.47 1316 2680 1316 c 2
 2995.12 1316 l 1
 2960.2 1393.39 2942 1470.04 2942 1545 c 0
 2942 1782.11 3028.82 2059 3365 2059 c 0
 3694.6 2059 3777 1823.7 3777 1480 c 2
 3777 -24 l 1
 3642 -24 l 1
 3642 1448 l 2
 3642 1727.43 3554.82 1810 3361 1810 c 0
 3221.64 1810 3091 1721.02 3091 1518 c 0
 3091 1429.85 3122.53 1351.07 3148.55 1317 c 1
 3463 1317 l 1
 3463 1167 l 1
 3176 1167 l 1
 3176 -23 l 1
 2911 -23 l 1
 2911 1167 l 1
 2703 1167 l 2
 2606.6 1167 2514.88 1150.42 2427.31 1117.8 c 1
 2595.33 987.578 2684 789.815 2684 584 c 0
 2684 111.555 2524.4 -20 2285 -20 c 0
 2123.4 -20 1881 52.7373 1881 552 c 0
EndSplineSet
Ligature2: "sub_ligature_pststaml_2 subtable" u0BA3 u0BBF
LCarets2: 1 0
EndChar

StartChar: u0BA3_u0BC0
Encoding: 157 -1 157
Width: 3813
GlyphClass: 2
Flags: HW
AnchorPoint: "V" 1787.5 1316.26 basechar 0
AnchorPoint: "N" 1787.5 119.776 basechar 0
LayerCount: 2
Back
Fore
SplineSet
126.011 541.895 m 1
 127.303 282.957 243.864 196 344 196 c 0
 457.709 196 515.575 306.948 516 436.089 c 0
 516.498 587.455 402.232 681 319 681 c 0
 203.47 681 145.677 601.523 126.011 541.895 c 1
3324 1722 m 0
 3324 1634.26 3388.95 1561 3476 1561 c 0
 3570.91 1561 3640.56 1637.23 3641 1724.12 c 0
 3641.43 1809.23 3582.27 1898.71 3467.49 1899.99 c 1
 3385.51 1882.52 3324 1814.37 3324 1722 c 0
2032 550 m 0
 2032 393.426 2071 130 2227 130 c 0
 2375.92 130 2420 280.977 2420 582 c 0
 2420 741.034 2359.6 897.96 2237.85 1002.7 c 1
 2102.73 889.438 2032 727.971 2032 550 c 0
1084 549 m 0
 1084 392.426 1123 129 1279 129 c 0
 1429.86 129 1473 272.044 1473 582 c 0
 1473 739.986 1412.74 896.085 1290.6 1004.48 c 1
 1163.08 897.808 1084 751.301 1084 549 c 0
1882 552 m 0
 1882 851.728 2023.95 1027.98 2095.2 1099.73 c 1
 2001.57 1143.82 1889.05 1166 1756 1166 c 0
 1654.79 1166 1563.71 1149.53 1482.16 1117.48 c 1
 1644.03 991.883 1737 803.701 1737 582 c 0
 1737 109.555 1577.4 -22 1338 -22 c 0
 1096.2 -22 935 136.636 935 550 c 0
 935 751.096 1001.36 952.187 1151.79 1099.92 c 1
 1058.24 1143.88 945.858 1166 813 1166 c 0
 468.705 1166 237.189 968.421 160.201 815.818 c 1
 220.469 853.444 301.775 876 385 876 c 0
 624.675 876 784 697.108 784 446 c 0
 784 229.066 707.42 -20 407 -20 c 0
 150.2 -20 -21 230.646 -21 597 c 0
 -21 1068.33 382.618 1317 790 1317 c 0
 996.176 1317 1171.16 1285.33 1316.25 1219.86 c 1
 1442.2 1284.99 1581.95 1317 1735 1317 c 0
 1938.22 1317 2114 1284.38 2260.88 1217.1 c 1
 2381.7 1284.24 2522.47 1317 2680 1317 c 2
 2878.37 1317 l 1
 2815.15 1386.52 2751 1494.41 2751 1625 c 0
 2751 2019.26 3035.29 2173 3298 2173 c 0
 3410.76 2173 3549.06 2155.1 3682.99 2081.94 c 128
 3761.35 2039.13 3858 1951.96 3858 1757 c 0
 3858 1562.01 3715.32 1422 3505 1422 c 0
 3276.31 1422 3180 1585.5 3180 1725 c 0
 3180 1799.59 3209.7 1893.33 3263.88 1952.53 c 1
 3249.68 1953.49 3235.72 1954 3222 1954 c 0
 3046.85 1954 2913 1790.45 2913 1591 c 0
 2913 1458.07 2987.47 1359.38 3033.49 1317 c 1
 3464 1317 l 1
 3464 1167 l 1
 3177 1167 l 1
 3177 -23 l 1
 2912 -23 l 1
 2912 1167 l 1
 2704 1167 l 2
 2607.6 1167 2515.88 1150.42 2428.31 1117.8 c 1
 2596.33 987.578 2685 789.815 2685 584 c 0
 2685 111.555 2525.4 -20 2286 -20 c 0
 2124.4 -20 1882 52.7373 1882 552 c 0
EndSplineSet
Ligature2: "sub_ligature_pststaml_4 subtable" u0BA3 u0BC0
LCarets2: 1 0
EndChar

StartChar: u0BA3_u0BC1
Encoding: 158 -1 158
Width: 4229
GlyphClass: 2
Flags: HW
AnchorPoint: "V" 1787.5 1314.15 basechar 0
AnchorPoint: "N" 1787.5 -850 basechar 0
LayerCount: 2
Back
Fore
SplineSet
3416 542 m 0
 3416 353.611 3386.83 125.817 3268.35 -89 c 1
 3697 -89 l 1
 3697 1316 l 1
 3961 1316 l 1
 3961 -240 l 1
 3165.72 -240 l 1
 2824.54 -645.235 2221.74 -740 1688 -740 c 0
 404.228 -740 -6.99512 -358.808 -22.9424 -193.198 c 1
 -22.9424 -129.561 16.9668 -91.0542 93.9912 -91 c 2
 2921.98 -89.0088 l 1
 3085.45 117.301 3151 344.201 3151 574 c 0
 3151 903.588 2952.6 1164 2655 1164 c 0
 2573.79 1164 2494.83 1148.68 2418.9 1118.46 c 1
 2592.91 982.829 2680 785.778 2680 581 c 0
 2680 108.555 2520.4 -23 2281 -23 c 0
 2119.4 -23 1877 49.7373 1877 549 c 0
 1877 786.09 1968.74 971.502 2093.51 1098.59 c 1
 1999.82 1142.78 1887.2 1165 1754 1165 c 0
 1652.79 1165 1561.71 1148.53 1480.16 1116.48 c 1
 1642.03 990.883 1735 802.701 1735 581 c 0
 1735 108.555 1575.4 -23 1336 -23 c 0
 1094.2 -23 933 135.636 933 549 c 0
 933 750.096 999.359 951.187 1149.79 1098.92 c 1
 1056.24 1142.88 943.858 1165 811 1165 c 0
 480.445 1165 232.676 971.416 154.387 812.682 c 1
 214.831 850.992 296.938 874 381 874 c 0
 620.675 874 780 695.108 780 444 c 0
 780 227.066 703.42 -22 403 -22 c 0
 146.2 -22 -25 228.646 -25 595 c 0
 -25 1066.33 378.618 1315 786 1315 c 0
 992.176 1315 1167.16 1283.33 1312.25 1217.86 c 1
 1438.2 1282.99 1577.95 1315 1731 1315 c 0
 1932.3 1315 2107.02 1283.32 2253.8 1217.99 c 1
 2371.9 1283.01 2503.81 1315 2648 1315 c 0
 3151.01 1315 3416 939.529 3416 542 c 0
1081 548 m 0
 1081 391.426 1120 128 1276 128 c 0
 1426.86 128 1470 271.044 1470 581 c 0
 1470 738.986 1409.74 895.085 1287.6 1003.48 c 1
 1160.08 896.808 1081 750.301 1081 548 c 0
2030 549 m 0
 2030 392.426 2069 129 2225 129 c 0
 2373.92 129 2418 279.977 2418 581 c 0
 2418 737.6 2357.11 894.543 2235.04 1005.75 c 1
 2098.34 882.014 2030 730.376 2030 549 c 0
126.011 541.895 m 1
 127.303 282.957 243.864 196 344 196 c 0
 457.709 196 515.575 306.948 516 436.089 c 0
 516.498 587.455 402.232 681 319 681 c 0
 203.47 681 145.677 601.523 126.011 541.895 c 1
176.212 -247.431 m 1
 190.29 -295.668 564.242 -588.525 1665 -590 c 0
 2049.85 -590.516 2455.84 -510.249 2781.01 -242 c 1
 211 -242 l 2
 195.553 -242 181.724 -243.871 176.212 -247.431 c 1
EndSplineSet
Ligature2: "sub_ligature_pststaml_6 subtable" u0BA3 u0BC1
LCarets2: 1 0
EndChar

StartChar: u0BA3_u0BC2
Encoding: 159 -1 159
Width: 4946
GlyphClass: 2
Flags: HW
AnchorPoint: "V" 1787.5 1314.15 basechar 0
AnchorPoint: "N" 1787.5 -850 basechar 0
LayerCount: 2
Back
Fore
SplineSet
3416 542 m 0
 3416 353.611 3386.83 125.817 3268.35 -89 c 1
 3697 -89 l 1
 3697 1316 l 1
 4678 1316 l 1
 4678 1166 l 1
 4391 1166 l 1
 4391 -239 l 1
 4127 -239 l 1
 4127 1166 l 1
 3847 1166 l 1
 3847 -239 l 1
 3166.72 -239 l 1
 2825.54 -644.235 2222.74 -739 1689 -739 c 0
 405.228 -739 -5.99512 -357.808 -21.9424 -192.198 c 1
 -21.9424 -128.561 17.9707 -90.0271 94.9951 -90 c 2
 2921.99 -89.0039 l 1
 3085.45 117.305 3151 344.203 3151 574 c 0
 3151 903.588 2952.6 1164 2655 1164 c 0
 2573.79 1164 2494.83 1148.68 2418.9 1118.46 c 1
 2592.91 982.829 2680 785.778 2680 581 c 0
 2680 108.555 2520.4 -23 2281 -23 c 0
 2119.4 -23 1877 49.7373 1877 549 c 0
 1877 786.09 1968.74 971.502 2093.51 1098.59 c 1
 1999.82 1142.78 1887.2 1165 1754 1165 c 0
 1652.79 1165 1561.71 1148.53 1480.16 1116.48 c 1
 1642.03 990.883 1735 802.701 1735 581 c 0
 1735 108.555 1575.4 -23 1336 -23 c 0
 1094.2 -23 933 135.636 933 549 c 0
 933 750.096 999.359 951.187 1149.79 1098.92 c 1
 1056.24 1142.88 943.858 1165 811 1165 c 0
 480.445 1165 232.676 971.416 154.387 812.682 c 1
 214.831 850.992 296.938 874 381 874 c 0
 620.675 874 780 695.108 780 444 c 0
 780 227.066 703.42 -22 403 -22 c 0
 146.2 -22 -25 228.646 -25 595 c 0
 -25 1066.33 378.618 1315 786 1315 c 0
 992.176 1315 1167.16 1283.33 1312.25 1217.86 c 1
 1438.2 1282.99 1577.95 1315 1731 1315 c 0
 1932.3 1315 2107.02 1283.32 2253.8 1217.99 c 1
 2371.9 1283.01 2503.81 1315 2648 1315 c 0
 3151.01 1315 3416 939.529 3416 542 c 0
1081 548 m 0
 1081 391.426 1120 128 1276 128 c 0
 1426.86 128 1470 271.044 1470 581 c 0
 1470 738.986 1409.74 895.085 1287.6 1003.48 c 1
 1160.08 896.808 1081 750.301 1081 548 c 0
2030 549 m 0
 2030 392.426 2069 129 2225 129 c 0
 2373.92 129 2418 279.977 2418 581 c 0
 2418 737.6 2357.11 894.543 2235.04 1005.75 c 1
 2098.34 882.014 2030 730.376 2030 549 c 0
126.011 541.895 m 1
 127.303 282.957 243.864 196 344 196 c 0
 457.709 196 515.575 306.948 516 436.089 c 0
 516.498 587.455 402.232 681 319 681 c 0
 203.47 681 145.677 601.523 126.011 541.895 c 1
176.212 -247.431 m 1
 190.29 -295.668 564.242 -588.525 1665 -590 c 0
 2049.85 -590.516 2455.84 -510.249 2781.01 -242 c 1
 211 -242 l 2
 195.553 -242 181.724 -243.871 176.212 -247.431 c 1
EndSplineSet
Ligature2: "sub_ligature_pststaml_8 subtable" u0BA3 u0BC2
LCarets2: 1 0
EndChar

StartChar: u0BA3_u0BCD
Encoding: 162 -1 162
Width: 3728
GlyphClass: 2
Flags: HW
AnchorPoint: "N" 1787.5 119.776 basechar 0
LayerCount: 2
Back
Fore
SplineSet
126.011 541.895 m 1
 127.303 282.957 243.864 196 344 196 c 0
 457.709 196 515.575 306.948 516 436.089 c 0
 516.498 587.455 402.232 681 319 681 c 0
 203.47 681 145.677 601.523 126.011 541.895 c 1
2032 549 m 0
 2032 392.426 2071 129 2227 129 c 0
 2375.92 129 2420 279.977 2420 581 c 0
 2420 740.034 2359.6 896.96 2237.85 1001.7 c 1
 2102.73 888.438 2032 726.971 2032 549 c 0
1084 548 m 0
 1084 391.426 1123 128 1279 128 c 0
 1429.86 128 1473 271.044 1473 581 c 0
 1473 738.986 1412.74 895.085 1290.6 1003.48 c 1
 1163.08 896.808 1084 750.301 1084 548 c 0
1883 551 m 0
 1883 849.408 2026.04 1027.74 2095.45 1098.62 c 1
 2001.77 1142.79 1889.17 1165 1756 1165 c 0
 1654.79 1165 1563.71 1148.53 1482.16 1116.48 c 1
 1644.03 990.883 1737 802.701 1737 581 c 0
 1737 108.555 1577.4 -23 1338 -23 c 0
 1096.2 -23 935 135.636 935 549 c 0
 935 750.096 1001.36 951.187 1151.79 1098.92 c 1
 1058.24 1142.88 945.858 1165 813 1165 c 0
 468.705 1165 237.189 967.421 160.201 814.818 c 1
 220.469 852.444 301.775 875 385 875 c 0
 624.675 875 784 696.108 784 445 c 0
 784 228.066 707.42 -21 407 -21 c 0
 150.2 -21 -21 229.646 -21 596 c 0
 -21 1067.33 382.618 1316 790 1316 c 0
 996.176 1316 1171.16 1284.33 1316.25 1218.86 c 1
 1442.2 1283.99 1581.95 1316 1735 1316 c 0
 1938.22 1316 2114 1283.38 2260.88 1216.1 c 1
 2381.7 1283.24 2522.47 1316 2680 1316 c 2
 3465 1316 l 1
 3465 1166 l 1
 3178 1166 l 1
 3178 -24 l 1
 2913 -24 l 1
 2913 1166 l 1
 2705 1166 l 2
 2608.6 1166 2516.88 1149.42 2429.31 1116.8 c 1
 2597.33 986.578 2686 788.815 2686 583 c 0
 2686 110.555 2526.4 -21 2287 -21 c 0
 2125.4 -21 1883 51.7373 1883 551 c 0
1786 1859 m 0
 1890.36 1859 1973.84 1777.57 1975 1671.14 c 1
 1975 1566.95 1888.93 1483 1787 1483 c 0
 1684.79 1483 1600 1567.97 1600 1671 c 0
 1600 1779.06 1687.51 1859 1786 1859 c 0
EndSplineSet
Validated: 1
Ligature2: "pstspostbasesubstitution subtable" u0BA3 u0BCD
LCarets2: 1 0
EndChar

StartChar: u0BA4
Encoding: 163 2980 163
Width: 1863
GlyphClass: 1
Flags: HW
AnchorPoint: "V" 735.5 1316 basechar 0
AnchorPoint: "N" 735.5 -321.494 basechar 0
LayerCount: 2
Back
Fore
SplineSet
264.874 -538.502 m 128
 255.454 -632.646 289.299 -733 125 -733 c 0
 53.9248 -733 -16 -638.189 -16 -509 c 0
 -16 -197.637 297.623 -165 699 -165 c 0
 1111.51 -165 1208.89 -67.4395 1272.12 5.38965 c 128
 1314.73 54.4668 1355 134.755 1355 221 c 0
 1355 496.738 1303.23 612.437 1022 618.728 c 1
 1022 303 l 2
 1022 158.932 812.5 -23 537 -23 c 0
 259.748 -23 69 116.027 69 406 c 0
 69 635.907 236.678 747.445 327 766.147 c 1
 327 1316 l 1
 1309 1316 l 1
 1309 1166 l 1
 1022 1166 l 1
 1022 772.284 l 1
 1364.04 760.181 1602 657.641 1602 245 c 0
 1602 -52.4092 1352.46 -314.854 881.854 -330.985 c 128
 554.316 -342.213 285.004 -337.327 264.874 -538.502 c 128
757 774 m 1
 757 1167 l 1
 478 1167 l 1
 478 774 l 1
 757 774 l 1
407 624 m 2
 380.079 624 218 601.416 218 384 c 0
 218 232.2 290.622 131 506 131 c 0
 611.581 131 757 211.994 757 299 c 2
 757 624 l 1
 407 624 l 2
EndSplineSet
EndChar

StartChar: u0BA4_u0BBF
Encoding: 164 -1 164
Width: 2179
GlyphClass: 1
Flags: HW
AnchorPoint: "V" 735.5 2082.24 basechar 0
AnchorPoint: "N" 735.5 -321.494 basechar 0
LayerCount: 2
Back
Fore
SplineSet
1043 2112 m 0
 1746.2 2112 1922 1713.97 1922 1283.95 c 1
 1916.9 -25 l 1
 1781 -25 l 1
 1781 1296 l 2
 1781 1622.4 1454 1840 1040 1840 c 0
 356.003 1840 213 1490.11 213 1259 c 0
 213 1114.79 255.004 965.322 324 869.558 c 1
 324 1318 l 1
 1306 1318 l 1
 1306 1168 l 1
 1019 1168 l 1
 1019 774.801 l 1
 1340.64 769.604 1604 661.2 1604 258 c 0
 1604 -19.1279 1399.32 -272.378 986.637 -315.86 c 0
 901.82 -324.797 815.958 -330 728 -330 c 0
 312.419 -330 264 -444.625 264 -593 c 0
 264 -679.471 234.69 -730 122 -730 c 0
 38.6543 -730 -14 -616.467 -14 -506 c 0
 -14 -377.866 42.6777 -320.14 76.2441 -292.592 c 0
 196.914 -193.559 284.995 -158 701 -158 c 0
 1113.51 -158 1210.89 -60.4395 1274.12 12.3896 c 128
 1316.73 61.4668 1357 141.755 1357 228 c 0
 1357 375.753 1338.79 462.597 1311.5 507.253 c 1
 1270.5 578.581 1178.55 621.572 1024 625.675 c 1
 1024 310 l 2
 1024 165.932 814.5 -16 539 -16 c 0
 261.748 -16 71 123.027 71 413 c 0
 71 573.932 152.171 684.745 253.716 741.202 c 1
 130.947 859.508 71 1030.24 71 1251 c 0
 71 1641.06 276.474 2112 1043 2112 c 0
757 779 m 1
 757 1172 l 1
 478 1172 l 1
 478 779 l 1
 757 779 l 1
407 629 m 2
 380.079 629 218 606.416 218 389 c 0
 218 237.2 290.622 136 506 136 c 0
 608.631 136 753.714 214.685 757.009 304.458 c 1
 757 629 l 1
 407 629 l 2
EndSplineSet
Ligature2: "sub_ligature_pststaml_0-0 subtable" u0BA4 u0BBF
EndChar

StartChar: u0BA4_u0BC0
Encoding: 165 -1 165
Width: 1863
GlyphClass: 1
Flags: HW
AnchorPoint: "V" 735.5 2140.79 basechar 0
AnchorPoint: "N" 735.5 -321.494 basechar 0
LayerCount: 2
Back
Fore
SplineSet
1033 1724 m 0
 1033 1642.89 1093.45 1565 1185 1565 c 0
 1272.59 1565 1348.01 1632.55 1348.01 1724.14 c 0
 1348.01 1724.5 1348 1725.58 1348 1725.94 c 0
 1348 1819.96 1284.87 1900.78 1176.48 1901.99 c 1
 1094.5 1884.52 1033 1816.37 1033 1724 c 0
753 774 m 1
 753 1167 l 1
 474 1167 l 1
 474 774 l 1
 753 774 l 1
403 624 m 2
 376.079 624 214 601.416 214 384 c 0
 214 232.2 286.622 131 502 131 c 0
 604.631 131 749.714 209.685 753.009 299.458 c 1
 753 624 l 1
 403 624 l 2
538 -18 m 0
 260.748 -18 70 121.027 70 411 c 0
 70 500.008 92.2002 575.997 137.089 635.118 c 128
 170.395 678.984 206.892 712.433 245.826 735.078 c 1
 122.983 853.388 63 1024.18 63 1245 c 0
 63 1799.83 463.342 2174 1005 2174 c 0
 1117.76 2174 1256.06 2156.1 1389.99 2082.94 c 128
 1468.35 2040.13 1565 1952.96 1565 1758 c 0
 1565 1563.01 1422.32 1423 1212 1423 c 0
 983.309 1423 887 1586.5 887 1726 c 0
 887 1805.12 916.974 1894.11 970.964 1951.48 c 1
 956.475 1952.47 942.511 1953 929 1953 c 0
 478.338 1953 212 1570.51 212 1257 c 0
 212 1112.79 254.004 963.322 323 867.558 c 1
 323 1316 l 1
 1305 1316 l 1
 1305 1166 l 1
 1018 1166 l 1
 1018 772.801 l 1
 1339.64 767.604 1603 659.2 1603 256 c 0
 1603 -21.1279 1398.32 -274.378 985.637 -317.86 c 0
 900.82 -326.797 814.958 -332 727 -332 c 0
 311.419 -332 263 -446.625 263 -595 c 0
 263 -681.471 233.69 -732 121 -732 c 0
 37.6543 -732 -15 -618.467 -15 -508 c 0
 -15 -379.866 41.6777 -322.14 75.2441 -294.592 c 0
 195.914 -195.559 283.995 -160 700 -160 c 0
 1112.51 -160 1209.89 -62.4395 1273.12 10.3896 c 128
 1315.73 59.4668 1356 139.755 1356 226 c 0
 1356 373.753 1337.79 460.597 1310.5 505.253 c 1
 1269.5 576.581 1177.55 619.572 1023 623.675 c 1
 1023 308 l 2
 1023 163.932 813.5 -18 538 -18 c 0
EndSplineSet
Ligature2: "sub_ligature_pststaml_0-0 subtable" u0BA4 u0BC0
EndChar

StartChar: u0BA4_u0BC1
Encoding: 166 -1 166
Width: 2451
GlyphClass: 2
Flags: HW
AnchorPoint: "V" 775 1321 basechar 0
AnchorPoint: "N" 775 -740 basechar 0
LayerCount: 2
Back
Fore
SplineSet
354 770.886 m 1
 354 1321 l 1
 1335 1321 l 1
 1335 1171 l 1
 1048 1171 l 1
 1048 777.857 l 1
 1410.6 773.659 1646 675.4 1646 307 c 0
 1646 173.391 1622.04 43.6982 1573.41 -80 c 1
 1926 -80 l 1
 1926 1325 l 1
 2190 1325 l 1
 2190 -230.854 l 1
 1493.01 -234.919 l 1
 1403.79 -377.222 1196.87 -620 772 -620 c 0
 227.869 -620 -22 -286.221 -22 -181 c 0
 -22 -142.6 -3.40039 -85 95 -85 c 2
 1291.03 -85 l 1
 1350.31 45.2559 1380 172.725 1380 297 c 0
 1380 495.575 1303.14 616.417 1046 623.655 c 1
 1046 308 l 2
 1046 162.129 836.118 -18 563 -18 c 0
 286.052 -18 93 121.837 93 411 c 0
 93 648.938 268.93 752.326 354 770.886 c 1
430 621 m 2
 403.456 621 243 597.846 243 382 c 0
 243 230.2 315.422 129 530 129 c 0
 656.594 129 781 229.2 781 296 c 2
 781 621 l 1
 430 621 l 2
781 771 m 1
 781 1164 l 1
 501 1164 l 1
 501 771 l 1
 781 771 l 1
163.077 -243.52 m 1
 167.125 -267.519 315.292 -468.972 749 -472 c 1
 931.307 -472 1081.44 -393.603 1200.26 -238 c 1
 198 -238 l 2
 182.424 -238 168.494 -239.902 163.077 -243.52 c 1
EndSplineSet
Ligature2: "sub_ligature_pststaml_6 subtable" u0BA4 u0BC1
EndChar

StartChar: u0BA4_u0BC2
Encoding: 167 -1 167
Width: 3168
GlyphClass: 2
Flags: HW
AnchorPoint: "V" 775 1321 basechar 0
AnchorPoint: "N" 775 -740 basechar 0
LayerCount: 2
Back
Fore
SplineSet
774 -614 m 0
 229.869 -614 -20 -280.221 -20 -175 c 0
 -20 -136.6 -1.33789 -79 97.0625 -79 c 2
 1287.06 -84.9199 l 1
 1346.32 45.3086 1376 172.75 1376 297 c 0
 1376 495.575 1299.14 616.417 1042 623.655 c 1
 1042 308 l 2
 1042 162.129 832.118 -18 559 -18 c 0
 282.052 -18 89 121.837 89 411 c 0
 89 648.938 264.93 752.326 350 770.886 c 1
 350 1321 l 1
 1331 1321 l 1
 1331 1171 l 1
 1044 1171 l 1
 1044 777.857 l 1
 1406.6 773.659 1642 675.4 1642 307 c 0
 1642 195.306 1626.32 61.4844 1569.8 -79 c 1
 1922 -79 l 1
 1922 1326 l 1
 2903 1326 l 1
 2903 1176 l 1
 2618 1176 l 1
 2618 -229 l 1
 2353 -229 l 1
 2353 1176 l 1
 2074 1176 l 1
 2074 -229 l 1
 1495.04 -229 l 1
 1274.18 -585.533 935.197 -614 774 -614 c 0
430 621 m 2
 403.456 621 243 597.846 243 382 c 0
 243 230.2 315.422 129 530 129 c 0
 656.594 129 781 229.2 781 296 c 2
 781 621 l 1
 430 621 l 2
781 771 m 1
 781 1164 l 1
 501 1164 l 1
 501 771 l 1
 781 771 l 1
163.077 -243.52 m 1
 167.125 -267.519 315.292 -468.972 749 -472 c 1
 927.33 -472 1077.41 -393.694 1199.43 -238 c 1
 198 -238 l 2
 182.424 -238 168.494 -239.902 163.077 -243.52 c 1
EndSplineSet
Ligature2: "sub_ligature_pststaml_8 subtable" u0BA4 u0BC2
EndChar

StartChar: u0BA4_u0BCD
Encoding: 168 -1 168
Width: 1920
GlyphClass: 2
Flags: HW
AnchorPoint: "N" 735.5 -321.494 basechar 0
LayerCount: 2
Back
Fore
SplineSet
327 766.147 m 1
 327 1316 l 1
 1309 1316 l 1
 1309 1166 l 1
 1022 1166 l 1
 1022 772.798 l 1
 1336.17 767.655 1602.29 662.769 1602.29 273.297 c 0
 1602.29 265.747 1602 258.426 1602 250.676 c 0
 1601.8 -26.4521 1397.32 -279.378 984.637 -322.86 c 0
 899.82 -331.797 813.958 -337 726 -337 c 0
 310.419 -337 262 -451.625 262 -600 c 0
 262 -686.471 232.69 -737 120 -737 c 0
 36.6543 -737 -16 -623.467 -16 -513 c 0
 -16 -384.866 40.6777 -327.14 74.2441 -299.592 c 0
 194.914 -200.559 282.995 -165 699 -165 c 0
 1111.51 -165 1208.89 -67.4395 1272.12 5.38965 c 128
 1314.73 54.4668 1355 134.755 1355 221 c 0
 1355 368.753 1336.79 455.597 1309.5 500.253 c 1
 1268.5 571.581 1176.55 614.572 1022 618.675 c 1
 1022 303 l 2
 1022 158.932 812.5 -23 537 -23 c 0
 259.748 -23 69 116.027 69 406 c 0
 69 635.907 236.678 747.445 327 766.147 c 1
757 774 m 1
 757 1167 l 1
 478 1167 l 1
 478 774 l 1
 757 774 l 1
407 624 m 2
 380.079 624 218 601.416 218 384 c 0
 218 232.2 290.622 131 506 131 c 0
 608.631 131 753.714 209.685 757.009 299.458 c 1
 757 624 l 1
 407 624 l 2
548 1671 m 0
 548 1782.69 637.234 1859 735 1859 c 0
 843.111 1859 923 1771.19 923 1671 c 0
 923 1566.81 836.931 1483 735 1483 c 0
 632.791 1483 548 1567.97 548 1671 c 0
EndSplineSet
Validated: 33
Ligature2: "pstspostbasesubstitution subtable" u0BA4 u0BCD
EndChar

StartChar: u0BA8
Encoding: 169 2984 169
Width: 1720
GlyphClass: 1
Flags: HW
AnchorPoint: "V" 744 1317 basechar 0
AnchorPoint: "N" 744 -319.131 basechar 0
LayerCount: 2
Back
Fore
SplineSet
1012 801 m 0
 1301.66 801 1458 564.05 1458 320 c 0
 1458 42.2236 1381.89 -162.579 1056.1 -274.652 c 0
 926.742 -319.15 790.617 -341 648 -341 c 0
 554.882 -341 284.17 -350.853 264.869 -538.553 c 128
 255.191 -632.67 289.299 -733 125 -733 c 0
 41.6543 -733 -11 -619.467 -11 -509 c 0
 -11 -359.917 60.3428 -286.997 181.101 -228.501 c 128
 303.339 -169.288 462.872 -166 528 -166 c 0
 989.117 -166 1199 -73.7871 1199 295 c 0
 1199 415.191 1152.4 613 966 613 c 0
 893.531 613 845.965 589.367 819 542.584 c 1
 819 -23 l 1
 555 -23 l 1
 555 1167 l 1
 275 1167 l 1
 275 -23 l 1
 126 -23 l 1
 126 1317 l 1
 1106 1317 l 1
 1106 1167 l 1
 820 1167 l 1
 820 742.315 l 1
 870.558 781.565 942.686 801 1012 801 c 0
EndSplineSet
EndChar

StartChar: u0BA8_u0BBF
Encoding: 170 -1 170
Width: 2035
GlyphClass: 2
Flags: HW
AnchorPoint: "V" 744 1961.55 basechar 0
AnchorPoint: "N" 744 -319.131 basechar 0
LayerCount: 2
Back
Fore
SplineSet
-13 -509 m 0
 -13 -387.194 31.1895 -310.426 169.709 -232.23 c 0
 299.128 -159.172 504.238 -161.015 538.394 -161.015 c 1
 785.394 -149.015 l 1
 820.668 -149.015 887.392 -134.294 979.265 -104.228 c 0
 1035.97 -85.6709 1087.79 -46.3779 1132.43 18.2148 c 128
 1162.54 61.7676 1199 141.765 1199 294 c 0
 1199 374.04 1179.98 447.704 1142.08 514.975 c 1
 1117.93 560.178 1071.57 612 966 612 c 0
 893.531 612 845.965 588.367 819 541.584 c 1
 819 -24 l 1
 555 -24 l 1
 555 1166 l 1
 275 1166 l 1
 275 -24 l 1
 126 -24 l 1
 126 1316 l 1
 652.459 1316 l 1
 616.967 1397.69 599 1488.62 599 1588 c 0
 599 1773.42 668.8 2104 1206 2104 c 0
 1664.4 2104 1779 1855.81 1779 1491.97 c 2
 1774.93 -25 l 1
 1639 -25 l 1
 1639 1491 l 2
 1639 1786.2 1454.4 1860 1202 1860 c 0
 982.072 1860 758 1782.6 758 1473 c 0
 758 1437.26 763.271 1379.8 806.026 1316 c 1
 1104 1316 l 1
 1104 1166 l 1
 818 1166 l 1
 818 741.315 l 1
 868.558 780.565 940.686 800 1010 800 c 0
 1315.71 800 1461 539.206 1461 301 c 0
 1461 -67.0703 1270.41 -235.717 910.206 -312.452 c 0
 861.479 -322.833 811.772 -328 763 -328 c 0
 681.213 -328 601.896 -339.093 516.997 -345.92 c 0
 445.92 -351.636 387.728 -379.386 343.223 -409.559 c 1
 280.509 -453.827 265 -496.548 265 -596 c 0
 265 -682.471 235.69 -733 123 -733 c 0
 39.6543 -733 -13 -619.467 -13 -509 c 0
EndSplineSet
Ligature2: "sub_ligature_pststaml_2 subtable" u0BA8 u0BBF
EndChar

StartChar: u0BA8_u0BC0
Encoding: 171 -1 171
Width: 1720
GlyphClass: 2
Flags: HW
AnchorPoint: "V" 744 2143 basechar 0
AnchorPoint: "N" 744 -319.131 basechar 0
LayerCount: 2
Back
Fore
SplineSet
962 1723 m 0
 962 1635.26 1026.95 1562 1114 1562 c 0
 1199.64 1562 1277.01 1626.8 1277.01 1724.08 c 0
 1277.01 1724.45 1277 1725.57 1277 1725.94 c 0
 1277 1819.99 1213.81 1900.84 1105.34 1901.99 c 1
 1022.05 1885.29 962 1813.61 962 1723 c 0
553 1591 m 0
 553 1473.66 609.004 1377.54 673.687 1317 c 1
 1104.5 1317 l 1
 1101.51 1165 l 1
 816 1165 l 1
 816 740.315 l 1
 866.558 779.565 938.686 799 1008 799 c 0
 1313.71 799 1459 538.206 1459 300 c 0
 1459 -68.0703 1268.41 -236.717 908.206 -313.452 c 0
 859.479 -323.833 809.772 -329 761 -329 c 0
 679.213 -329 599.896 -340.093 514.997 -346.92 c 0
 443.92 -352.636 385.728 -380.386 341.223 -410.559 c 1
 278.509 -454.827 263 -497.548 263 -597 c 0
 263 -683.471 233.69 -734 121 -734 c 0
 37.6543 -734 -15 -620.467 -15 -510 c 0
 -15 -388.194 29.1895 -311.426 167.709 -233.23 c 0
 297.128 -160.172 502.238 -162.015 536.394 -162.015 c 1
 783.394 -150.015 l 1
 818.668 -150.015 885.392 -135.294 977.265 -105.228 c 0
 1033.97 -86.6709 1085.79 -47.3779 1130.43 17.2148 c 128
 1160.54 60.7676 1197 140.765 1197 293 c 0
 1197 373.04 1177.98 446.704 1140.08 513.975 c 1
 1115.93 559.178 1069.57 611 964 611 c 0
 891.531 611 843.965 587.367 817 540.584 c 1
 817 -25 l 1
 553 -25 l 1
 553 1165 l 1
 273 1165 l 1
 273 -25 l 1
 124 -25 l 1
 124 1315 l 1
 520.116 1315 l 1
 458.67 1383.38 391 1493.01 391 1624 c 0
 391 2016.23 674.153 2173 940 2173 c 0
 1052.76 2173 1191.06 2155.1 1324.99 2081.94 c 128
 1403.35 2039.13 1500 1951.96 1500 1757 c 0
 1500 1560.9 1356.12 1422 1145 1422 c 0
 916.211 1422 820 1587.48 820 1725 c 0
 820 1799.24 849.725 1893.09 904.089 1952.53 c 1
 890.02 1953.49 876.293 1954 863 1954 c 0
 645.628 1954 553 1735.65 553 1591 c 0
EndSplineSet
Ligature2: "sub_ligature_pststaml_4 subtable" u0BA8 u0BC0
EndChar

StartChar: u0BA8_u0BC1
Encoding: 172 -1 172
Width: 2494
GlyphClass: 2
Flags: HW
AnchorPoint: "V" 790 1318 basechar 0
AnchorPoint: "N" 790 -740 basechar 0
LayerCount: 2
Back
Fore
SplineSet
1239 802 m 0
 1538.66 802 1690 547.199 1690 303 c 0
 1690 188.452 1670.61 56.5068 1612.21 -84 c 1
 1970 -84 l 1
 1970 1321 l 1
 2234 1321 l 1
 2234 -234.928 l 1
 1528.58 -236.961 l 1
 1480.59 -309.484 1422.54 -374.376 1353 -430.202 c 1
 1312.8 -464.975 1125.83 -620 789 -620 c 0
 268.078 -620 -19 -309.312 -19 -181 c 0
 -19 -142.6 -0.400391 -85 98 -85 c 2
 1326.49 -85 l 1
 1391.6 48.2881 1424 174.829 1424 296 c 0
 1424 448.8 1358.26 614 1193 614 c 0
 1120.53 614 1072.96 590.367 1046 543.584 c 1
 1046 -22 l 1
 782 -22 l 1
 782 1168 l 1
 502 1168 l 1
 502 -22 l 1
 352 -22 l 1
 352 1318 l 1
 1334 1318 l 1
 1334 1168 l 1
 1047 1168 l 1
 1047 743.315 l 1
 1097.56 782.565 1169.69 802 1239 802 c 0
163.653 -245.819 m 1
 163.63 -256.246 163.517 -245.291 165.448 -250.166 c 0
 186.835 -304.151 377.269 -471.401 764 -474 c 1
 949.064 -474 1103.56 -395.95 1228.74 -240 c 1
 199 -240 l 2
 183 -240 168.736 -242.007 163.653 -245.819 c 1
EndSplineSet
Ligature2: "sub_ligature_pststaml_6 subtable" u0BA8 u0BC1
EndChar

StartChar: u0BA8_u0BC2
Encoding: 173 -1 173
Width: 3211
GlyphClass: 2
Flags: HW
AnchorPoint: "V" 790 1316 basechar 0
AnchorPoint: "N" 790 -740 basechar 0
LayerCount: 2
Back
Fore
SplineSet
787 -620 m 0
 266.078 -620 -21 -309.312 -21 -181 c 0
 -21 -142.6 -2.37988 -85 96.0205 -85 c 2
 1321.51 -86.9746 l 1
 1386.6 46.3047 1419 172.837 1419 294 c 0
 1419 446.8 1353.26 612 1188 612 c 0
 1115.53 612 1067.96 588.367 1041 541.584 c 1
 1041 -24 l 1
 777 -24 l 1
 777 1166 l 1
 497 1166 l 1
 497 -24 l 1
 347 -24 l 1
 347 1316 l 1
 1329 1316 l 1
 1329 1166 l 1
 1042 1166 l 1
 1042 741.315 l 1
 1092.56 780.565 1164.69 800 1234 800 c 0
 1533.66 800 1685 545.199 1685 301 c 0
 1685 186.452 1665.61 54.5068 1607.21 -86 c 1
 1965 -86 l 1
 1965 1319 l 1
 2946 1319 l 1
 2946 1169 l 1
 2659 1169 l 1
 2659 -236 l 1
 2395 -236 l 1
 2395 1169 l 1
 2115 1169 l 1
 2115 -236 l 1
 1528.66 -236 l 1
 1439.72 -372.185 1223.71 -620 787 -620 c 0
163.653 -245.819 m 1
 163.63 -256.246 163.517 -245.291 165.448 -250.166 c 0
 186.835 -304.151 377.269 -471.401 764 -474 c 1
 949.064 -474 1103.56 -395.95 1228.74 -240 c 1
 199 -240 l 2
 183 -240 168.736 -242.007 163.653 -245.819 c 1
EndSplineSet
Ligature2: "sub_ligature_pststaml_8 subtable" u0BA8 u0BC2
EndChar

StartChar: u0BA8_u0BCD
Encoding: 174 -1 174
Width: 1663
GlyphClass: 2
Flags: HW
AnchorPoint: "N" 744 -319.131 basechar 0
LayerCount: 2
Back
Fore
SplineSet
1458.25 314.343 m 0
 1458.25 308.635 1458 303.316 1457.99 297.62 c 0
 1457.82 -53.5234 1284.04 -195.507 1056.11 -274.648 c 1
 926.539 -318.519 790.617 -341 648 -341 c 0
 454.054 -341 262 -388.702 262 -579 c 0
 262 -699.42 233.08 -734 123 -734 c 0
 39.6543 -734 -13 -620.467 -13 -510 c 0
 -13 -360.917 58.3428 -287.997 179.101 -229.501 c 128
 301.339 -170.288 460.872 -167 526 -167 c 0
 613.054 -167 695.923 -162.051 774.595 -151.233 c 2
 776.289 -151 l 1
 778 -151 l 2
 817.89 -151 899.553 -128.868 977.442 -104.17 c 0
 1034.31 -86.1357 1085.79 -46.3779 1130.43 18.2148 c 128
 1160.54 61.7676 1197 141.765 1197 294 c 0
 1197 374.04 1177.98 447.704 1140.08 514.975 c 1
 1115.93 560.178 1069.57 612 964 612 c 0
 891.531 612 843.965 588.367 817 541.584 c 1
 817 -24 l 1
 553 -24 l 1
 553 1166 l 1
 273 1166 l 1
 273 -24 l 1
 124 -24 l 1
 124 1316 l 1
 1104 1316 l 1
 1104 1166 l 1
 818 1166 l 1
 818 741.315 l 1
 868.558 780.565 940.686 800 1010 800 c 0
 1307.61 800 1458.25 551.899 1458.25 314.343 c 0
743 1859 m 0
 851.111 1859 931 1771.19 931 1671 c 0
 931 1568.17 847.137 1483 744 1483 c 0
 641.791 1483 557 1567.97 557 1671 c 0
 557 1779.06 644.512 1859 743 1859 c 0
EndSplineSet
Validated: 33
Ligature2: "pstspostbasesubstitution subtable" u0BA8 u0BCD
EndChar

StartChar: u0BA9
Encoding: 175 2985 175
Width: 2781
GlyphClass: 1
Flags: HW
AnchorPoint: "V" 1298 1281 basechar 0
AnchorPoint: "N" 1298 1 basechar 0
LayerCount: 2
Back
Fore
SplineSet
126.011 541.895 m 1
 127.303 282.957 243.864 196 344 196 c 0
 457.709 196 515.575 306.948 516 436.089 c 0
 516.498 587.455 402.232 681 319 681 c 0
 203.47 681 145.677 601.523 126.011 541.895 c 1
1084 546 m 0
 1084 389.426 1123 126 1279 126 c 0
 1429.86 126 1473 269.044 1473 579 c 0
 1473 736.986 1412.74 893.085 1290.6 1001.48 c 1
 1163.08 894.808 1084 748.301 1084 546 c 0
1338 -24 m 0
 1096.2 -24 935 134.636 935 548 c 0
 935 847.832 1076.78 1024 1149.18 1096.74 c 1
 1055.55 1140.83 943.043 1163 810 1163 c 0
 465.705 1163 234.189 965.421 157.201 812.818 c 1
 217.469 850.444 298.775 873 382 873 c 0
 621.675 873 781 694.108 781 443 c 0
 781 226.066 704.42 -23 404 -23 c 0
 147.2 -23 -24 227.646 -24 594 c 0
 -24 1065.33 379.618 1314 787 1314 c 0
 993.176 1314 1168.16 1282.33 1313.25 1216.86 c 1
 1439.2 1281.99 1578.95 1314 1732 1314 c 2
 2517 1314 l 1
 2517 1164 l 1
 2230 1164 l 1
 2230 -26 l 1
 1966 -26 l 1
 1966 1164 l 1
 1756 1164 l 2
 1654.79 1164 1563.71 1147.53 1482.16 1115.48 c 1
 1644.03 989.883 1737 801.701 1737 580 c 0
 1737 107.555 1577.4 -24 1338 -24 c 0
EndSplineSet
EndChar

StartChar: u0BA9_u0BBE.old
Encoding: 177 -1 177
Width: 3082
GlyphClass: 1
Flags: HW
AnchorPoint: "V" 3100 1281 basechar 0
AnchorPoint: "N" 3100 -140 basechar 0
LayerCount: 2
Back
Fore
SplineSet
473.011 542.979 m 1
 474.288 284.004 590.858 197 691 197 c 0
 800.162 197 861.097 301.952 861.097 427.199 c 0
 861.097 430.127 861.005 432.787 861.003 435.727 c 0
 860.94 553.365 772.783 682 664 682 c 128
 546.04 682 492.383 603.926 473.011 542.979 c 1
1432 548 m 0
 1432 392.276 1470.8 128 1626 128 c 0
 1740.44 128 1821 199.295 1821 580 c 0
 1821 734.044 1760.54 892.173 1638.66 1004.84 c 1
 1529.35 908.439 1432 757.116 1432 548 c 0
1277 548 m 0
 1277 753.283 1345.08 952.925 1496.26 1097.17 c 1
 1402.82 1140.97 1290.61 1163 1158 1163 c 0
 813.706 1163 584.938 964.933 505.751 815.014 c 1
 564.884 851.039 643.241 871 726 871 c 0
 965.359 871 1127 695.248 1127 441 c 0
 1127 226.342 1050.63 -26 750 -26 c 0
 493.2 -26 322 224.646 322 591 c 0
 322 1066.35 728.654 1313 1133 1313 c 0
 1336.27 1313 1512.06 1281.33 1658.95 1215.94 c 1
 1800.42 1291.96 1943.49 1313 2066 1313 c 0
 2541.29 1313 2816 947.141 2816 542 c 0
 2816 272.408 2773.76 41.8467 2688.79 -146.287 c 0
 2422.5 -735.86 1658.43 -740 1413 -740 c 0
 963.622 -740 608.654 -595.151 361.982 -386.193 c 1
 103.683 -173.836 -26 107.277 -26 458 c 0
 -26 821.659 88.6211 1135.61 276.163 1306.48 c 2
 292.941 1321.77 l 1
 392.262 1231.91 l 1
 373.678 1213.32 l 2
 208.997 1048.64 124 795.215 124 449 c 0
 124 187.195 231.879 -223.7 748.147 -453.152 c 0
 957.004 -545.978 1174.41 -592 1401 -592 c 0
 2174.7 -592 2550 -201.31 2550 574 c 0
 2550 902.805 2359.2 1163 2073 1163 c 0
 1984.54 1163 1900.69 1147.51 1822.23 1117.16 c 1
 1985.44 989.274 2080 797.277 2080 580 c 0
 2080 108.548 1919.6 -24 1679 -24 c 0
 1518.2 -24 1277 51.2988 1277 548 c 0
EndSplineSet
EndChar

StartChar: u0BA9_u0BBF
Encoding: 178 -1 178
Width: 3096
GlyphClass: 2
Flags: HW
AnchorPoint: "V" 1298 1281 basechar 0
AnchorPoint: "N" 1298 1 basechar 0
LayerCount: 2
Back
Fore
SplineSet
126.011 541.895 m 1
 127.303 282.957 243.864 196 344 196 c 0
 457.709 196 515.575 306.948 516 436.089 c 0
 516.498 587.455 402.232 681 319 681 c 0
 203.47 681 145.677 601.523 126.011 541.895 c 1
1084 546 m 0
 1084 389.426 1123 126 1279 126 c 0
 1429.86 126 1473 269.044 1473 579 c 0
 1473 736.986 1412.74 893.085 1290.6 1001.48 c 1
 1163.08 894.808 1084 748.301 1084 546 c 0
1336 -23 m 0
 1094.2 -23 933 135.636 933 549 c 0
 933 848.737 1073.95 1023.44 1148.73 1096.95 c 1
 1055.2 1140.9 942.833 1163 810 1163 c 0
 465.705 1163 234.189 965.421 157.201 812.818 c 1
 217.469 850.444 298.775 873 382 873 c 0
 621.675 873 781 694.108 781 443 c 0
 781 226.066 704.42 -23 404 -23 c 0
 147.2 -23 -24 227.646 -24 594 c 0
 -24 1065.33 379.618 1314 787 1314 c 0
 993.176 1314 1168.16 1282.33 1313.25 1216.86 c 1
 1439.2 1281.99 1578.95 1314 1732 1314 c 2
 2047.43 1314 l 1
 2012.33 1392.81 1994 1469.4 1994 1543 c 0
 1994 1780.11 2080.82 2057 2417 2057 c 0
 2664.2 2057 2829 1933.31 2829 1478 c 2
 2829 -26 l 1
 2694 -26 l 1
 2694 1446 l 2
 2694 1725.43 2606.82 1808 2413 1808 c 0
 2273.64 1808 2143 1719.02 2143 1516 c 0
 2143 1427.85 2174.53 1349.07 2200.55 1315 c 1
 2515 1315 l 1
 2515 1165 l 1
 2228 1165 l 1
 2228 -25 l 1
 1964 -25 l 1
 1964 1165 l 1
 1754 1165 l 2
 1652.79 1165 1561.71 1148.53 1480.16 1116.48 c 1
 1642.03 990.883 1735 802.701 1735 581 c 0
 1735 108.555 1575.4 -23 1336 -23 c 0
EndSplineSet
Ligature2: "sub_ligature_pststaml_2 subtable" u0BA9 u0BBF
EndChar

StartChar: u0BA9_u0BC0
Encoding: 179 -1 179
Width: 2867
GlyphClass: 2
Flags: HW
AnchorPoint: "V" 1298 1281 basechar 0
AnchorPoint: "N" 1298 1 basechar 0
LayerCount: 2
Back
Fore
SplineSet
126.011 541.895 m 1
 127.303 282.957 243.864 196 344 196 c 0
 457.709 196 515.575 306.948 516 436.089 c 0
 516.498 587.455 402.232 681 319 681 c 0
 203.47 681 145.677 601.523 126.011 541.895 c 1
2378 1721 m 0
 2378 1625.29 2450.51 1561 2530 1561 c 0
 2623.88 1561 2694 1637.49 2694 1724 c 0
 2694 1809.13 2635.25 1898.75 2520.41 1899.99 c 1
 2435.28 1882.38 2378 1810 2378 1721 c 0
1084 547 m 0
 1084 390.426 1123 127 1279 127 c 0
 1429.86 127 1473 270.044 1473 580 c 0
 1473 737.986 1412.74 894.085 1290.6 1002.48 c 1
 1163.08 895.808 1084 749.301 1084 547 c 0
1337 -23 m 0
 1095.2 -23 934 135.636 934 549 c 0
 934 849.586 1076.54 1025.83 1148.96 1097.86 c 1
 1055.38 1141.87 942.939 1164 810 1164 c 0
 465.705 1164 234.189 966.421 157.201 813.818 c 1
 217.469 851.444 298.775 874 382 874 c 0
 621.675 874 781 695.108 781 444 c 0
 781 227.066 704.42 -22 404 -22 c 0
 147.2 -22 -24 228.646 -24 595 c 0
 -24 1066.33 379.618 1315 787 1315 c 0
 993.176 1315 1168.16 1283.33 1313.25 1217.86 c 1
 1439.2 1282.99 1578.95 1315 1732 1315 c 2
 1931.23 1315 l 1
 1868.58 1383.76 1802 1493 1802 1624 c 0
 1802 2058.05 2134.89 2172 2351 2172 c 0
 2463.76 2172 2602.06 2154.1 2735.99 2080.94 c 128
 2814.35 2038.13 2911 1950.96 2911 1756 c 0
 2911 1559.9 2767.12 1421 2556 1421 c 0
 2327.21 1421 2231 1586.48 2231 1724 c 0
 2231 1804.79 2260.68 1892.69 2315.87 1951.46 c 1
 2301.33 1952.47 2287.04 1953 2273 1953 c 0
 2097.85 1953 1964 1789.45 1964 1590 c 0
 1964 1481.41 2013.12 1384.55 2085.86 1315 c 1
 2516 1315 l 1
 2516 1165 l 1
 2229 1165 l 1
 2229 -25 l 1
 1965 -25 l 1
 1965 1165 l 1
 1755 1165 l 2
 1653.79 1165 1562.71 1148.53 1481.16 1116.48 c 1
 1643.03 990.883 1736 802.701 1736 581 c 0
 1736 108.555 1576.4 -23 1337 -23 c 0
EndSplineSet
Ligature2: "sub_ligature_pststaml_4 subtable" u0BA9 u0BC0
EndChar

StartChar: u0BA9_u0BC1
Encoding: 180 -1 180
Width: 3455
GlyphClass: 2
Flags: HW
AnchorPoint: "V" 1298 1287.65 basechar 0
AnchorPoint: "N" 1298 -840 basechar 0
LayerCount: 2
Back
Fore
SplineSet
1138 547 m 0
 1138 786.978 1228.44 971.273 1351.87 1100.27 c 1
 1257.14 1144.67 1143.47 1167 1010 1167 c 0
 678.905 1167 442.271 975.801 359.134 817.037 c 1
 420.064 854.176 500.957 877 582 877 c 0
 821.675 877 981 698.108 981 447 c 0
 981 190.017 878.436 -20 604 -20 c 0
 347.8 -20 177 232.138 177 597 c 0
 177 1069.47 576.716 1317 988 1317 c 0
 1189.5 1317 1365.29 1285.25 1513.98 1219.84 c 1
 1636.91 1284.95 1772.71 1317 1920 1317 c 0
 2494.92 1317 2644 888.51 2644 544 c 0
 2644 295.343 2560.5 82.9209 2458.83 -87 c 1
 2925 -87 l 1
 2925 1318 l 1
 3189 1318 l 1
 3189 -238 l 1
 2355.1 -238 l 1
 2132.34 -517.079 1773.2 -738 1246 -738 c 0
 478.844 -738 -6.14648 -371.164 -22.9463 -191.162 c 1
 -22.9463 -127.524 16.9756 -89 94 -89 c 2
 2161.87 -89 l 1
 2309.37 127.243 2384 372.718 2384 572 c 0
 2384 1036.91 2132.1 1162 1934 1162 c 0
 1836.92 1162 1754.22 1143.98 1683.87 1116.34 c 1
 1852.62 983.533 1940 784.32 1940 578 c 0
 1940 103.549 1780.4 -25 1541 -25 c 0
 1379.8 -25 1138 49.0996 1138 547 c 0
170.653 -247.819 m 0
 170.8 -248.81 171.626 -250.571 172.645 -252.995 c 0
 206.741 -334.128 609.965 -586.674 1222 -589 c 1
 1580.55 -589 1852.54 -434.118 2037.16 -242 c 1
 206 -242 l 2
 190 -242 175.736 -244.007 170.653 -247.819 c 0
1287 546 m 0
 1287 389.426 1326 126 1482 126 c 0
 1595.06 126 1677 207.235 1677 578 c 0
 1677 728.177 1616.24 891.055 1493.76 1002.97 c 1
 1382.28 904.667 1287 747.77 1287 546 c 0
328.013 540.62 m 1
 329.389 281.904 445.901 195 546 195 c 0
 655.467 195 718.011 303.686 718.011 432.955 c 0
 718.011 433.555 718 435.355 718 435.955 c 0
 717.998 551.012 633.462 681 520 681 c 0
 405.267 681 350.275 604.08 328.013 540.62 c 1
EndSplineSet
Ligature2: "sub_ligature_pststaml_6 subtable" u0BA9 u0BC1
EndChar

StartChar: u0BA9_u0BC2
Encoding: 181 -1 181
Width: 4172
GlyphClass: 2
Flags: HW
AnchorPoint: "V" 1298 1285.44 basechar 0
AnchorPoint: "N" 1298 -840 basechar 0
LayerCount: 2
Back
Fore
SplineSet
1244 -739 m 0
 476.844 -739 -8.14648 -372.164 -24.9463 -192.162 c 1
 -24.9463 -128.524 14.9581 -90.1112 91.9824 -90 c 2
 2156.83 -87.0186 l 1
 2204.81 -16.5859 2245.4 55.2803 2278.02 129.833 c 1
 2346.06 292.547 2379 440.138 2379 574 c 0
 2379 1038.91 2127.1 1164 1929 1164 c 0
 1831.92 1164 1749.22 1145.98 1678.87 1118.34 c 1
 1847.62 985.533 1935 786.32 1935 580 c 0
 1935 105.549 1775.4 -23 1536 -23 c 0
 1374.8 -23 1133 51.0996 1133 549 c 0
 1133 789.97 1222.62 974.162 1349.7 1098.84 c 1
 1255.21 1142.88 1141.92 1165 1009 1165 c 0
 677.905 1165 441.271 973.801 358.134 815.037 c 1
 419.064 852.176 499.957 875 581 875 c 0
 820.675 875 980 696.108 980 445 c 0
 980 188.017 877.436 -22 603 -22 c 0
 346.8 -22 176 230.138 176 595 c 0
 176 1067.47 575.716 1315 987 1315 c 0
 1188.5 1315 1364.29 1283.25 1512.98 1217.84 c 1
 1635.91 1282.95 1771.71 1315 1919 1315 c 0
 2493.92 1315 2643 886.51 2643 542 c 0
 2643 293.343 2559.5 80.9209 2457.83 -89 c 1
 2924 -89 l 1
 2924 1316 l 1
 3904 1316 l 1
 3904 1166 l 1
 3617 1166 l 1
 3617 -239 l 1
 3353 -239 l 1
 3353 1166 l 1
 3073 1166 l 1
 3073 -239 l 1
 2353.1 -239 l 1
 2130.34 -518.079 1771.2 -739 1244 -739 c 0
170.653 -247.819 m 0
 170.8 -248.81 171.626 -250.571 172.645 -252.995 c 0
 206.741 -334.128 609.965 -586.674 1222 -589 c 1
 1580.55 -589 1852.54 -434.118 2037.16 -242 c 1
 206 -242 l 2
 190 -242 175.736 -244.007 170.653 -247.819 c 0
1287 546 m 0
 1287 389.426 1326 126 1482 126 c 0
 1595.06 126 1677 207.235 1677 578 c 0
 1677 728.177 1616.24 891.055 1493.76 1002.97 c 1
 1382.28 904.667 1287 747.77 1287 546 c 0
328.013 540.62 m 1
 329.389 281.904 445.901 195 546 195 c 0
 655.467 195 718.011 303.686 718.011 432.955 c 0
 718.011 433.555 718 435.355 718 435.955 c 0
 717.998 551.012 633.462 681 520 681 c 0
 405.267 681 350.275 604.08 328.013 540.62 c 1
EndSplineSet
Ligature2: "sub_ligature_pststaml_8 subtable" u0BA9 u0BC2
EndChar

StartChar: u0BA9_u0BCD
Encoding: 184 -1 184
Width: 2781
GlyphClass: 2
Flags: HW
AnchorPoint: "N" 1298 1 basechar 0
LayerCount: 2
Back
Fore
SplineSet
126.011 541.895 m 1
 127.303 282.957 243.864 196 344 196 c 0
 457.709 196 515.575 306.948 516 436.089 c 0
 516.498 587.455 402.232 681 319 681 c 0
 203.47 681 145.677 601.523 126.011 541.895 c 1
1084 546 m 0
 1084 389.426 1123 126 1279 126 c 0
 1429.86 126 1473 269.044 1473 579 c 0
 1473 736.986 1412.74 893.085 1290.6 1001.48 c 1
 1163.08 894.808 1084 748.301 1084 546 c 0
1338 -24 m 0
 1096.2 -24 935 134.636 935 548 c 0
 935 847.832 1076.78 1024 1149.18 1096.74 c 1
 1055.55 1140.83 943.043 1163 810 1163 c 0
 465.705 1163 234.189 965.421 157.201 812.818 c 1
 217.469 850.444 298.775 873 382 873 c 0
 621.675 873 781 694.108 781 443 c 0
 781 226.066 704.42 -23 404 -23 c 0
 147.2 -23 -24 227.646 -24 594 c 0
 -24 1065.33 379.618 1314 787 1314 c 0
 993.176 1314 1168.16 1282.33 1313.25 1216.86 c 1
 1439.2 1281.99 1578.95 1314 1732 1314 c 2
 2517 1314 l 1
 2517 1164 l 1
 2230 1164 l 1
 2230 -26 l 1
 1966 -26 l 1
 1966 1164 l 1
 1756 1164 l 2
 1654.79 1164 1563.71 1147.53 1482.16 1115.48 c 1
 1644.03 989.883 1737 801.701 1737 580 c 0
 1737 107.555 1577.4 -24 1338 -24 c 0
1110 1669 m 0
 1110 1773.19 1196.07 1857 1298 1857 c 128
 1402.19 1857 1486 1770.93 1486 1669 c 0
 1486 1571.03 1402.78 1481 1298 1481 c 0
 1200.03 1481 1110 1564.22 1110 1669 c 0
EndSplineSet
Validated: 1
Ligature2: "pstspostbasesubstitution subtable" u0BA9 u0BCD
LCarets2: 1 0
EndChar

StartChar: u0BAA
Encoding: 185 2986 185
Width: 1706
GlyphClass: 1
Flags: HW
AnchorPoint: "V" 725.5 1281 basechar 0
AnchorPoint: "N" 725.5 0 basechar 0
LayerCount: 2
Back
Fore
SplineSet
1444 -25 m 1
 -25 -25 l 1
 -25 1315 l 1
 240 1315 l 1
 240 111 l 1
 1178 111 l 1
 1178 1315 l 1
 1444 1315 l 1
 1444 -25 l 1
EndSplineSet
EndChar

StartChar: u0BAA_u0BBF
Encoding: 186 -1 186
Width: 2021
GlyphClass: 2
Flags: HW
AnchorPoint: "V" 725.5 1281 basechar 0
AnchorPoint: "N" 725.5 0 basechar 0
LayerCount: 2
Back
Fore
SplineSet
820 1553 m 0
 820 1867.7 985.84 2059 1286 2059 c 0
 1568.6 2059 1757 1896.84 1757 1479.02 c 2
 1759.03 -25 l 1
 1624 -25 l 1
 1624 1447 l 2
 1624 1651.49 1556.2 1809 1285 1809 c 0
 1137.4 1809 986 1721.53 986 1517 c 0
 986 1327.61 1092.44 1278.45 1178 1271.06 c 1
 1178 1316 l 1
 1443 1316 l 1
 1443 -24 l 1
 -26 -24 l 1
 -26 1316 l 1
 239 1316 l 1
 239 112 l 1
 1177 112 l 1
 1177 1119.76 l 1
 1018.03 1129.46 820 1233.5 820 1553 c 0
EndSplineSet
Ligature2: "sub_ligature_pststaml_2 subtable" u0BAA u0BBF
EndChar

StartChar: u0BAA_u0BC0
Encoding: 187 -1 187
Width: 1964
GlyphClass: 2
Flags: HW
AnchorPoint: "V" 725.5 1281 basechar 0
AnchorPoint: "N" 725.5 0 basechar 0
LayerCount: 2
Back
Fore
SplineSet
1042 1521 m 0
 1042 1334.41 1117.46 1251.09 1180 1233.59 c 1
 1180 1314 l 1
 1445 1314 l 1
 1445 -26 l 1
 -24 -26 l 1
 -24 1314 l 1
 241 1314 l 1
 241 110 l 1
 1179 110 l 1
 1179 1109.28 l 1
 1100.16 1117.43 1034.36 1163.84 978.857 1229.92 c 128
 911.151 1310.52 878 1420.03 878 1553 c 0
 878 1989.06 1250.44 2101 1456 2101 c 0
 1598.44 2101 1726.9 2071.15 1839.9 2009.99 c 128
 1956.52 1946.86 2016.93 1840.15 2018 1689.09 c 1
 2018 1492.99 1874.12 1354 1663 1354 c 0
 1434.21 1354 1338 1519.48 1338 1657 c 0
 1338 1736.12 1367.97 1825.11 1421.96 1882.48 c 1
 1407.47 1883.47 1393.51 1884 1380 1884 c 0
 1156.82 1884 1042 1656.31 1042 1521 c 0
1481 1651 m 0
 1481 1563.26 1545.95 1490 1633 1490 c 0
 1726.88 1490 1797 1566.49 1797 1653 c 0
 1797 1738.91 1737.56 1826.71 1623.51 1827.99 c 1
 1542.41 1810.52 1481 1743.31 1481 1651 c 0
EndSplineSet
Ligature2: "sub_ligature_pststaml_4 subtable" u0BAA u0BC0
EndChar

StartChar: u0BAA_u0BC1
Encoding: 188 -1 188
Width: 1706
GlyphClass: 2
Flags: HW
AnchorPoint: "V" 725 1281 basechar 0
AnchorPoint: "N" 550 -150 basechar 0
LayerCount: 2
Back
Fore
SplineSet
1444.01 -412 m 1
 1179 -412 l 1
 1179 -25 l 1
 -25 -25 l 1
 -25 1315 l 1
 240 1315 l 1
 240 111 l 1
 1178 111 l 1
 1178 1315 l 1
 1442.99 1315 l 1
 1444.01 -412 l 1
EndSplineSet
LCarets2: 1 0
Ligature2: "sub_ligature_pststaml_6 subtable" u0BAA u0BC1
EndChar

StartChar: u0BAA_u0BC2
Encoding: 189 -1 189
Width: 2322
GlyphClass: 2
Flags: HW
AnchorPoint: "V" 725 1309 basechar 0
AnchorPoint: "N" 699 -770 basechar 0
LayerCount: 2
Back
Fore
SplineSet
690 -393 m 0
 690 -298.07 624.729 -233 538 -233 c 0
 453.708 -233 375 -298.713 375 -394 c 0
 375 -489.362 439.408 -568.664 546.293 -569.983 c 1
 615.154 -554.001 690 -498.207 690 -393 c 0
1411 137.888 m 1
 1411 -341 l 1
 1160 -341 l 1
 1160 -25 l 1
 -25 -25 l 1
 -25 1315 l 1
 226 1315 l 1
 226 111 l 1
 1164 111 l 1
 1164 1315 l 1
 1415.07 1315 l 1
 1412.2 338.853 l 1
 1462.63 382.488 1533.28 406 1610 406 c 0
 1757.47 406 2010 271.85 2010 5 c 0
 2010 -116.506 1966.37 -351.251 1673.11 -551.638 c 0
 1488.13 -678.033 1148.15 -769 816 -769 c 0
 345.435 -769 235 -547.6 235 -400 c 0
 235 -250.198 306.32 -94 556 -94 c 0
 804.769 -94 881 -264.964 881 -398 c 0
 881 -487.666 837.924 -568.109 777.249 -617.577 c 1
 793.48 -620.507 810.341 -622.516 828.629 -622.006 c 0
 1097.8 -614.511 1387.43 -509.841 1512.96 -404.826 c 0
 1632.76 -304.602 1721 -141.73 1721 18 c 0
 1721 118.525 1619.58 214 1544 214 c 0
 1499.46 214 1433.11 199.717 1411 137.888 c 1
EndSplineSet
Ligature2: "sub_ligature_pststaml_8 subtable" u0BAA u0BC2
LCarets2: 1 0
EndChar

StartChar: u0BAA_u0BCD
Encoding: 190 -1 190
Width: 1706
GlyphClass: 2
Flags: HW
AnchorPoint: "N" 725.5 0 basechar 0
LayerCount: 2
Back
Fore
SplineSet
1444.02 -25 m 1
 -25 -25 l 1
 -25 1315 l 1
 240 1315 l 1
 240 111 l 1
 1178 111 l 1
 1178 1315 l 1
 1442.98 1315 l 1
 1444.02 -25 l 1
724 1856 m 0
 829.294 1856 911.845 1774.37 912.999 1668.14 c 1
 912.999 1563.95 826.931 1480 725 1480 c 0
 622.791 1480 538 1564.97 538 1668 c 0
 538 1776.06 625.512 1856 724 1856 c 0
EndSplineSet
Validated: 1
Ligature2: "pstspostbasesubstitution subtable" u0BAA u0BCD
EndChar

StartChar: u0BAE
Encoding: 191 2990 191
Width: 1734
GlyphClass: 1
Flags: HW
AnchorPoint: "V" 650.5 1281 basechar 0
AnchorPoint: "N" 650.5 0 basechar 0
LayerCount: 2
Back
Fore
SplineSet
932 1313 m 0
 1312.67 1313 1472 968.927 1472 643 c 0
 1472 243.156 1308.8 -25 1064 -25 c 2
 -25 -25 l 1
 -25 1315 l 1
 240 1315 l 1
 240 125 l 1
 518 125 l 1
 518 836 l 2
 518 1094.38 600.8 1313 932 1313 c 0
960 1140 m 0
 889.2 1140 783 1084.68 783 833 c 2
 783 125 l 1
 1042 125 l 2
 1153 125 1319 257.352 1319 625 c 0
 1319 906.985 1195.9 1140 960 1140 c 0
EndSplineSet
EndChar

StartChar: u0BAE_u0BBF
Encoding: 192 -1 192
Width: 2051
GlyphClass: 2
Flags: HW
AnchorPoint: "V" 650.5 1281 basechar 0
AnchorPoint: "N" 650.5 0 basechar 0
LayerCount: 2
Back
Fore
SplineSet
831.583 1310.19 m 1
 795.099 1388.62 777 1482.16 777 1590 c 0
 777 1889.38 948.453 2106 1299 2106 c 0
 1591.2 2106 1786 1935.31 1786 1494.03 c 2
 1789.05 -25 l 1
 1653 -25 l 1
 1653 1491 l 2
 1653 1640.29 1586.47 1862 1301 1862 c 0
 1014.6 1862 943 1668.4 943 1475 c 0
 943 1423.89 953.711 1367.75 987.939 1317.77 c 1
 1190.07 1310.75 1473 1138.8 1473 630 c 0
 1473 423.866 1432.68 263.422 1350.2 150.273 c 128
 1272.94 44.292 1179.08 -20 1065 -20 c 2
 -24 -20 l 1
 -24 1320 l 1
 241 1320 l 1
 241 130 l 1
 519 130 l 1
 519 841 l 2
 519 1199.15 690.668 1287.07 831.583 1310.19 c 1
962 1141 m 0
 891.2 1141 785 1085.68 785 834 c 2
 785 126 l 1
 1044 126 l 2
 1155 126 1321 258.352 1321 626 c 0
 1321 907.985 1197.9 1141 962 1141 c 0
EndSplineSet
Ligature2: "sub_ligature_pststaml_2 subtable" u0BAE u0BBF
EndChar

StartChar: u0BAE_u0BC0
Encoding: 193 -1 193
Width: 1950
GlyphClass: 2
Flags: HW
AnchorPoint: "V" 650.5 1281 basechar 0
AnchorPoint: "N" 650.5 0 basechar 0
LayerCount: 2
Back
Fore
SplineSet
964 1140 m 0
 893.2 1140 787 1084.68 787 833 c 2
 787 125 l 1
 1046 125 l 2
 1157 125 1323 257.352 1323 625 c 0
 1323 906.985 1199.9 1140 964 1140 c 0
1224.88 1947.53 m 1
 1210.68 1948.49 1196.72 1949 1183 1949 c 0
 1007.94 1949 874 1784.42 874 1586 c 0
 874 1452.16 949.494 1353.03 995.434 1311.14 c 1
 1421.89 1268.83 1467.08 797.45 1472 624.355 c 1
 1472 356.618 1404.33 218.521 1350.2 144.273 c 128
 1268.38 32.0312 1172.52 -26 1064 -26 c 2
 -25 -26 l 1
 -25 1314 l 1
 240 1314 l 1
 240 124 l 1
 518 124 l 1
 518 835 l 2
 518 1086.88 607.421 1281.63 842.62 1308.75 c 1
 779.668 1377.05 712 1486.14 712 1620 c 0
 712 2014.26 996.287 2168 1259 2168 c 0
 1371.76 2168 1510.06 2150.1 1643.99 2076.94 c 128
 1722.35 2034.13 1819 1946.96 1819 1752 c 0
 1819 1557.01 1676.32 1417 1466 1417 c 0
 1237.31 1417 1141 1580.5 1141 1720 c 0
 1141 1794.59 1170.7 1888.33 1224.88 1947.53 c 1
1284 1721 m 0
 1284 1633.26 1348.95 1560 1436 1560 c 0
 1529.39 1560 1601 1633.68 1601 1723 c 0
 1601 1808.11 1542.27 1897.71 1427.49 1898.99 c 1
 1345.51 1881.52 1284 1813.37 1284 1721 c 0
EndSplineSet
Ligature2: "sub_ligature_pststaml_4 subtable" u0BAE u0BC0
EndChar

StartChar: u0BAE_u0BC1
Encoding: 194 -1 194
Width: 2336
GlyphClass: 2
Flags: HW
AnchorPoint: "V" 860 1281 basechar 0
AnchorPoint: "N" 860 -770 basechar 0
LayerCount: 2
Back
Fore
SplineSet
1537 1315 m 0
 1929.3 1315 2076 978.626 2076 625 c 0
 2076 438.198 2037.99 208.268 1885.85 69.5312 c 128
 1837.81 25.7246 1765.85 -24 1668 -24 c 2
 1390 -24 l 1
 1390 -179 l 2
 1390 -437.152 1300.06 -655 866 -655 c 0
 335.6 -655 -18 -172.492 -18 433 c 0
 -18 663.977 36.9326 1084.08 282.082 1309.41 c 2
 298.867 1324.83 l 1
 398.125 1235.03 l 1
 379.802 1216.45 l 2
 172.467 1006.18 131 654.807 131 425 c 0
 131 -116.965 466.267 -501 840 -501 c 0
 1066.07 -501 1123 -434.609 1123 -178 c 2
 1123 -23 l 1
 579 -23 l 1
 579 1317 l 1
 844 1317 l 1
 844 127 l 1
 1123 127 l 1
 1123 838 l 2
 1123 1096.38 1205.8 1315 1537 1315 c 0
1566 1140 m 0
 1495.2 1140 1389 1084.68 1389 833 c 2
 1389 125 l 1
 1648 125 l 2
 1759 125 1925 257.352 1925 625 c 0
 1925 906.985 1801.9 1140 1566 1140 c 0
EndSplineSet
Ligature2: "sub_ligature_pststaml_6 subtable" u0BAE u0BC1
EndChar

StartChar: u0BAE_u0BC2
Encoding: 195 -1 195
Width: 2623
GlyphClass: 2
Flags: HW
AnchorPoint: "V" 1030 1312 basechar 0
AnchorPoint: "N" 1030 -770 basechar 0
LayerCount: 2
Back
Fore
SplineSet
1853 1141 m 0
 1782.2 1141 1676 1085.68 1676 834 c 2
 1676 126 l 1
 1935 126 l 2
 2059.23 126 2212 282.345 2212 625 c 0
 2212 940.63 2068.4 1141 1853 1141 c 0
418 825 m 0
 508.835 825 578 884.639 578 977 c 0
 578 1079.52 522.693 1168 416 1168 c 0
 284.479 1168 226.108 1053.86 225.016 963.58 c 1
 243.23 882.141 326.788 825 418 825 c 0
153.1 794.646 m 1
 136.703 707.08 124.715 576.225 124.715 451.752 c 0
 124.715 440.879 124.995 429.876 124.998 419.222 c 0
 125.184 -188.841 656.543 -506 1007 -506 c 0
 1342.69 -506 1405 -376.8 1405 -183 c 2
 1405 -28 l 1
 861 -28 l 1
 861 1312 l 1
 1126 1312 l 1
 1126 122 l 1
 1405 122 l 1
 1405 833 l 2
 1405 1091.38 1487.8 1310 1819 1310 c 0
 2206.7 1310 2355 967.972 2355 622 c 0
 2355 434.845 2317.19 204.449 2164.85 65.5312 c 128
 2116.66 21.585 2044.64 -27 1947 -27 c 2
 1669 -27 l 1
 1669 -182 l 2
 1669 -564.4 1365.2 -660 1029 -660 c 0
 518.532 -660 -28 -256.538 -28 427 c 0
 -28 1179.5 239 1312 417 1312 c 0
 611.056 1312 725 1195.75 725 989 c 0
 725 734.717 547.011 664 420 664 c 0
 316.266 664 208.625 711.463 153.1 794.646 c 1
EndSplineSet
Ligature2: "sub_ligature_pststaml_8 subtable" u0BAE u0BC2
EndChar

StartChar: u0BAE_u0BCD
Encoding: 196 -1 196
Width: 1835
GlyphClass: 2
Flags: HW
AnchorPoint: "N" 650.5 0 basechar 0
LayerCount: 2
Back
Fore
SplineSet
932 1313 m 0
 1324.71 1313 1465.84 969.895 1472 625.223 c 1
 1472 357.485 1404.33 219.521 1350.2 145.273 c 128
 1268.38 33.0312 1172.52 -25 1064 -25 c 2
 -25 -25 l 1
 -25 1315 l 1
 240 1315 l 1
 240 125 l 1
 518 125 l 1
 518 836 l 2
 518 1094.38 600.8 1313 932 1313 c 0
960 1140 m 0
 889.2 1140 783 1084.68 783 833 c 2
 783 125 l 1
 1042 125 l 2
 1153 125 1319 257.352 1319 625 c 0
 1319 906.985 1195.9 1140 960 1140 c 0
649 1855 m 0
 754.294 1855 836.845 1773.37 837.999 1667.14 c 1
 837.999 1562.95 751.931 1479 650 1479 c 0
 547.791 1479 463 1563.97 463 1667 c 0
 463 1775.06 550.512 1855 649 1855 c 0
EndSplineSet
Validated: 1
Ligature2: "pstspostbasesubstitution subtable" u0BAE u0BCD
EndChar

StartChar: u0BAF
Encoding: 197 2991 197
Width: 1805
GlyphClass: 1
Flags: HW
AnchorPoint: "V" 683.5 1281 basechar 0
AnchorPoint: "N" 683.5 0 basechar 0
LayerCount: 2
Back
Fore
SplineSet
292 -25 m 0
 103.6 -25 -22 133.025 -22 321 c 2
 -22 1314 l 1
 243 1314 l 1
 243 315 l 2
 243 161.201 293.4 111 369 111 c 0
 460.2 111 521 165.05 521 329 c 2
 521 1314 l 1
 671 1314 l 1
 671 110 l 1
 1280 110 l 1
 1280 1314 l 1
 1545 1314 l 1
 1545 -25 l 1
 520 -25 l 1
 520 28.5078 l 1
 471.042 -2.0791 391.364 -25 292 -25 c 0
EndSplineSet
EndChar

StartChar: u0BAF_u0BBF
Encoding: 198 -1 198
Width: 2108
GlyphClass: 2
Flags: HW
AnchorPoint: "V" 683.5 1281 basechar 0
AnchorPoint: "N" 683.5 0 basechar 0
LayerCount: 2
Back
Fore
SplineSet
1388 2058 m 0
 1754.4 2058 1846 1788.61 1846 1478 c 2
 1846 -25 l 1
 1710 -25 l 1
 1710 1447 l 2
 1710 1690.89 1624.97 1809 1385 1809 c 0
 1222.17 1809 1088 1707.79 1088 1517 c 0
 1088 1327.61 1194.44 1278.45 1280 1271.06 c 1
 1280 1316 l 1
 1545 1316 l 1
 1545 -24 l 1
 520 -24 l 1
 520 29.5078 l 1
 471.042 -1.0791 391.364 -24 292 -24 c 0
 103.6 -24 -22 134.025 -22 322 c 2
 -22 1315 l 1
 243 1315 l 1
 243 316 l 2
 243 162.201 293.4 112 369 112 c 0
 460.2 112 521 166.05 521 330 c 2
 521 1315 l 1
 671 1315 l 1
 671 111 l 1
 1280 111 l 1
 1280 1118.74 l 1
 1120.4 1128.14 923 1229.77 923 1552 c 0
 923 1866.6 1087.81 2058 1388 2058 c 0
EndSplineSet
Ligature2: "sub_ligature_pststaml_2 subtable" u0BAF u0BBF
EndChar

StartChar: u0BAF_u0BC0
Encoding: 199 -1 199
Width: 2065
GlyphClass: 2
Flags: HW
AnchorPoint: "V" 683.5 1281 basechar 0
AnchorPoint: "N" 683.5 0 basechar 0
LayerCount: 2
Back
Fore
SplineSet
292 -26 m 0
 103.6 -26 -22 132.025 -22 320 c 2
 -22 1313 l 1
 243 1313 l 1
 243 314 l 2
 243 160.201 293.4 110 369 110 c 0
 460.2 110 521 164.05 521 328 c 2
 521 1313 l 1
 671 1313 l 1
 671 109 l 1
 1279.98 109 l 1
 1279.02 1111.35 l 1
 1127.97 1127.62 978 1290.14 978 1555 c 0
 978 1991.92 1348.21 2104 1555 2104 c 0
 1667.76 2104 1806.06 2086.1 1939.99 2012.94 c 128
 2018.35 1970.13 2115 1882.96 2115 1688 c 0
 2115 1493.01 1972.32 1353 1762 1353 c 0
 1533.31 1353 1437 1516.5 1437 1656 c 0
 1437 1735.17 1467.01 1824.22 1521.06 1881.58 c 1
 1507.15 1882.51 1493.46 1883 1480 1883 c 0
 1273.17 1883 1142 1684.14 1142 1521 c 0
 1142 1333.18 1217.46 1250.79 1280 1233.53 c 1
 1280 1314 l 1
 1545 1314 l 1
 1545 -26 l 1
 520 -26 l 1
 520 27.5078 l 1
 471.042 -3.0791 391.364 -26 292 -26 c 0
1583 1651 m 128
 1583 1563.26 1647.95 1490 1735 1490 c 0
 1832.8 1490 1898 1565.79 1898 1654 c 0
 1898 1745.27 1840.55 1826.87 1726.39 1827.99 c 1
 1644.99 1811.3 1583 1740.08 1583 1651 c 128
EndSplineSet
Ligature2: "sub_ligature_pststaml_4 subtable" u0BAF u0BC0
EndChar

StartChar: u0BAF_u0BC1
Encoding: 200 -1 200
Width: 1805
GlyphClass: 2
Flags: HW
AnchorPoint: "V" 683.5 1281 basechar 0
AnchorPoint: "N" 683.5 0 basechar 0
LayerCount: 2
Back
Fore
SplineSet
292 -25 m 0
 103.6 -25 -22 133.025 -22 321 c 2
 -22 1314 l 1
 243 1314 l 1
 243 315 l 2
 243 161.201 293.4 111 369 111 c 0
 460.2 111 521 165.05 521 329 c 2
 521 1314 l 1
 671 1314 l 1
 671 110 l 1
 1280 110 l 1
 1280 1314 l 1
 1545 1314 l 1
 1545 -412 l 1
 1280 -412 l 1
 1280 -25 l 1
 520 -25 l 1
 520 28.5078 l 1
 471.042 -2.0791 391.364 -25 292 -25 c 0
EndSplineSet
Ligature2: "sub_ligature_pststaml_6 subtable" u0BAF u0BC1
EndChar

StartChar: u0BAF_u0BC2
Encoding: 201 -1 201
Width: 2451
GlyphClass: 2
Flags: HW
AnchorPoint: "V" 800 1321 basechar 0
AnchorPoint: "N" 804 -760 basechar 0
LayerCount: 2
Back
Fore
SplineSet
750 -363 m 0
 750 -268.07 684.729 -203 598 -203 c 0
 506.616 -203 435 -275.958 435 -363 c 0
 435 -468.578 506.1 -539.767 606.374 -540.984 c 1
 675.479 -525.36 750 -470.442 750 -363 c 0
1538.04 133.989 m 1
 1542.22 -339 l 1
 1277 -339 l 1
 1277 -23 l 1
 517 -23 l 1
 517 30.5078 l 1
 468.042 -0.0791016 388.364 -23 289 -23 c 0
 100.6 -23 -25 135.025 -25 323 c 2
 -25 1316 l 1
 240 1316 l 1
 240 317 l 2
 240 163.201 290.4 113 366 113 c 0
 457.2 113 518 167.05 518 331 c 2
 518 1316 l 1
 668 1316 l 1
 668 112 l 1
 1277 112 l 1
 1277 1315 l 1
 1544.12 1315 l 1
 1539.34 334.969 l 1
 1589.76 378.53 1660.34 402 1737 402 c 0
 1884.47 402 2137 267.85 2137 1 c 0
 2137 -120.506 2093.35 -355.192 1800.12 -555.63 c 0
 1666.78 -646.778 1397.68 -756 958 -756 c 0
 393.183 -756 296 -527.975 296 -371 c 0
 296 -178.018 409.667 -67 616 -67 c 0
 864.599 -67 938 -233.498 938 -368 c 0
 938 -459.081 894.767 -544.812 827.777 -596.094 c 1
 861.822 -611.264 902.373 -616 965 -616 c 0
 1230.33 -616 1519.26 -510.361 1639.91 -408.869 c 0
 1759.43 -308.318 1848 -145.73 1848 14 c 0
 1848 114.525 1746.58 210 1671 210 c 0
 1626.48 210 1560.18 195.732 1538.04 133.989 c 1
EndSplineSet
Ligature2: "sub_ligature_pststaml_8 subtable" u0BAF u0BC2
LCarets2: 1 0
EndChar

StartChar: u0BAF_u0BCD
Encoding: 202 -1 202
Width: 1805
GlyphClass: 2
Flags: HW
AnchorPoint: "N" 683.5 0 basechar 0
LayerCount: 2
Back
Fore
SplineSet
292 -25 m 0
 103.6 -25 -22 133.025 -22 321 c 2
 -22 1314 l 1
 243 1314 l 1
 243 315 l 2
 243 161.201 293.4 111 369 111 c 0
 460.2 111 521 165.05 521 329 c 2
 521 1314 l 1
 671 1314 l 1
 671 110 l 1
 1280 110 l 1
 1280 1314 l 1
 1545 1314 l 1
 1545 -25 l 1
 520 -25 l 1
 520 28.5078 l 1
 471.042 -2.0791 391.364 -25 292 -25 c 0
682 1855 m 0
 787.294 1855 869.845 1773.37 870.999 1667.14 c 1
 870.999 1562.95 784.931 1479 683 1479 c 0
 580.791 1479 496 1563.97 496 1667 c 0
 496 1775.06 583.512 1855 682 1855 c 0
EndSplineSet
Validated: 1
LCarets2: 1 0
Ligature2: "pstspostbasesubstitution subtable" u0BAF u0BCD
EndChar

StartChar: u0BB0
Encoding: 203 2992 203
Width: 1219
GlyphClass: 1
Flags: HW
AnchorPoint: "V" 425 1315 basechar 0
AnchorPoint: "N" 425 -500 basechar 0
LayerCount: 2
Back
Fore
SplineSet
670 1165 m 1
 670 -11.5811 l 1
 181.171 -426 l 1
 -63.3564 -426 l 1
 404 10.8525 l 1
 404 1165 l 1
 126 1165 l 1
 126 -25 l 1
 -24 -25 l 1
 -24 1315 l 1
 958.251 1315 l 1
 956.751 1165 l 1
 670 1165 l 1
EndSplineSet
EndChar

